<svg xmlns="http://www.w3.org/2000/svg" xmlns:xlink="http://www.w3.org/1999/xlink" width="119" zoomAndPan="magnify" viewBox="0 0 89.25 31.5" height="42" preserveAspectRatio="xMidYMid meet" version="1.0"><defs><g/><clipPath id="641bd5ea5c"><path d="M 10.621094 2.632812 L 35.585938 2.632812 L 35.585938 27.597656 L 10.621094 27.597656 Z M 10.621094 2.632812 " clip-rule="nonzero"/></clipPath><clipPath id="baa86d2228"><path d="M 23.105469 2.632812 C 16.210938 2.632812 10.621094 8.222656 10.621094 15.113281 C 10.621094 22.007812 16.210938 27.597656 23.105469 27.597656 C 30 27.597656 35.585938 22.007812 35.585938 15.113281 C 35.585938 8.222656 30 2.632812 23.105469 2.632812 Z M 23.105469 2.632812 " clip-rule="nonzero"/></clipPath><clipPath id="0887ba5a4b"><path d="M 0.621094 0.632812 L 25.585938 0.632812 L 25.585938 25.597656 L 0.621094 25.597656 Z M 0.621094 0.632812 " clip-rule="nonzero"/></clipPath><clipPath id="8e0d8c4316"><path d="M 13.105469 0.632812 C 6.210938 0.632812 0.621094 6.222656 0.621094 13.113281 C 0.621094 20.007812 6.210938 25.597656 13.105469 25.597656 C 20 25.597656 25.585938 20.007812 25.585938 13.113281 C 25.585938 6.222656 20 0.632812 13.105469 0.632812 Z M 13.105469 0.632812 " clip-rule="nonzero"/></clipPath><clipPath id="dfadf766b2"><rect x="0" width="26" y="0" height="26"/></clipPath><clipPath id="9828e9a738"><path d="M 9.832031 3.410156 L 34.796875 3.410156 L 34.796875 28.375 L 9.832031 28.375 Z M 9.832031 3.410156 " clip-rule="nonzero"/></clipPath><clipPath id="d4c7bf5ebd"><path d="M 22.3125 3.410156 C 15.421875 3.410156 9.832031 9 9.832031 15.894531 C 9.832031 22.785156 15.421875 28.375 22.3125 28.375 C 29.207031 28.375 34.796875 22.785156 34.796875 15.894531 C 34.796875 9 29.207031 3.410156 22.3125 3.410156 Z M 22.3125 3.410156 " clip-rule="nonzero"/></clipPath><clipPath id="43a8b52433"><path d="M 0.832031 0.410156 L 25.796875 0.410156 L 25.796875 25.375 L 0.832031 25.375 Z M 0.832031 0.410156 " clip-rule="nonzero"/></clipPath><clipPath id="3cf40d4777"><path d="M 13.3125 0.410156 C 6.421875 0.410156 0.832031 6 0.832031 12.894531 C 0.832031 19.785156 6.421875 25.375 13.3125 25.375 C 20.207031 25.375 25.796875 19.785156 25.796875 12.894531 C 25.796875 6 20.207031 0.410156 13.3125 0.410156 Z M 13.3125 0.410156 " clip-rule="nonzero"/></clipPath><clipPath id="9134f22965"><rect x="0" width="26" y="0" height="26"/></clipPath><clipPath id="5aaeda1f8c"><path d="M 16 6.246094 L 31.332031 6.246094 L 31.332031 23.964844 L 16 23.964844 Z M 16 6.246094 " clip-rule="nonzero"/></clipPath><clipPath id="e8edc341c5"><path d="M 1.0625 12 L 3 12 L 3 15 L 1.0625 15 Z M 1.0625 12 " clip-rule="nonzero"/></clipPath><clipPath id="12018ff9c8"><path d="M 1.0625 16 L 3 16 L 3 19 L 1.0625 19 Z M 1.0625 16 " clip-rule="nonzero"/></clipPath><clipPath id="2fa3a8f617"><path d="M 23 18.03125 L 25 18.03125 L 25 25.414062 L 23 25.414062 Z M 23 18.03125 " clip-rule="nonzero"/></clipPath><clipPath id="52716bc5a1"><path d="M 24 19 L 26 19 L 26 25.414062 L 24 25.414062 Z M 24 19 " clip-rule="nonzero"/></clipPath><clipPath id="15f105dcf0"><path d="M 23 18.03125 L 25 18.03125 L 25 25.414062 L 23 25.414062 Z M 23 18.03125 " clip-rule="nonzero"/></clipPath><clipPath id="35fc5b406a"><path d="M 23 20 L 24 20 L 24 25.414062 L 23 25.414062 Z M 23 20 " clip-rule="nonzero"/></clipPath><clipPath id="1ebf733646"><path d="M 25 20 L 26.726562 20 L 26.726562 25.414062 L 25 25.414062 Z M 25 20 " clip-rule="nonzero"/></clipPath><clipPath id="41231d14d2"><path d="M 25 24 L 26 24 L 26 25.414062 L 25 25.414062 Z M 25 24 " clip-rule="nonzero"/></clipPath><clipPath id="6a2f208c9a"><path d="M 24 22 L 25 22 L 25 25.414062 L 24 25.414062 Z M 24 22 " clip-rule="nonzero"/></clipPath><clipPath id="a92d32a936"><path d="M 21 20 L 23 20 L 23 25.414062 L 21 25.414062 Z M 21 20 " clip-rule="nonzero"/></clipPath><clipPath id="7d57d1548a"><path d="M 22 22 L 23 22 L 23 25.414062 L 22 25.414062 Z M 22 22 " clip-rule="nonzero"/></clipPath><clipPath id="f1f20cf1df"><path d="M 21 21 L 22 21 L 22 25.414062 L 21 25.414062 Z M 21 21 " clip-rule="nonzero"/></clipPath><clipPath id="8fd5896712"><path d="M 24 18.03125 L 26 18.03125 L 26 19 L 24 19 Z M 24 18.03125 " clip-rule="nonzero"/></clipPath><clipPath id="94747b78dd"><path d="M 23 18.03125 L 25 18.03125 L 25 19 L 23 19 Z M 23 18.03125 " clip-rule="nonzero"/></clipPath><clipPath id="36b287e275"><path d="M 20.820312 21 L 22 21 L 22 22 L 20.820312 22 Z M 20.820312 21 " clip-rule="nonzero"/></clipPath><clipPath id="7b0712bf04"><path d="M 25 20 L 26.726562 20 L 26.726562 21 L 25 21 Z M 25 20 " clip-rule="nonzero"/></clipPath><clipPath id="ddd8524d6e"><path d="M 24.390625 13 L 31.035156 13 L 31.035156 15 L 24.390625 15 Z M 24.390625 13 " clip-rule="nonzero"/></clipPath><clipPath id="3de251833a"><path d="M 26 13 L 31.035156 13 L 31.035156 15 L 26 15 Z M 26 13 " clip-rule="nonzero"/></clipPath><clipPath id="4e97369739"><path d="M 25 14 L 31.035156 14 L 31.035156 16 L 25 16 Z M 25 14 " clip-rule="nonzero"/></clipPath><clipPath id="c49f3d9746"><path d="M 26 15 L 31.035156 15 L 31.035156 16 L 26 16 Z M 26 15 " clip-rule="nonzero"/></clipPath><clipPath id="5b3844f7fd"><path d="M 26 12.707031 L 31.035156 12.707031 L 31.035156 14 L 26 14 Z M 26 12.707031 " clip-rule="nonzero"/></clipPath><clipPath id="cf9e6f104f"><path d="M 30 13 L 31.035156 13 L 31.035156 14 L 30 14 Z M 30 13 " clip-rule="nonzero"/></clipPath><clipPath id="e7705b5510"><path d="M 28 14 L 31.035156 14 L 31.035156 15 L 28 15 Z M 28 14 " clip-rule="nonzero"/></clipPath><clipPath id="5560dfad12"><path d="M 26 16 L 31.035156 16 L 31.035156 17 L 26 17 Z M 26 16 " clip-rule="nonzero"/></clipPath><clipPath id="bb89ffb442"><path d="M 28 16 L 31.035156 16 L 31.035156 17 L 28 17 Z M 28 16 " clip-rule="nonzero"/></clipPath><clipPath id="980b06ade7"><path d="M 27 16 L 31.035156 16 L 31.035156 17.875 L 27 17.875 Z M 27 16 " clip-rule="nonzero"/></clipPath><clipPath id="610df4c17f"><path d="M 24.390625 13 L 25 13 L 25 15 L 24.390625 15 Z M 24.390625 13 " clip-rule="nonzero"/></clipPath><clipPath id="b79fd5c46c"><path d="M 24.390625 14 L 26 14 L 26 15 L 24.390625 15 Z M 24.390625 14 " clip-rule="nonzero"/></clipPath><clipPath id="f9b65a4553"><path d="M 26 16 L 28 16 L 28 17.875 L 26 17.875 Z M 26 16 " clip-rule="nonzero"/></clipPath><clipPath id="4cff9c076e"><path d="M 27 17 L 29 17 L 29 17.875 L 27 17.875 Z M 27 17 " clip-rule="nonzero"/></clipPath><clipPath id="c9308df5c2"><path d="M 26 12.707031 L 27 12.707031 L 27 13 L 26 13 Z M 26 12.707031 " clip-rule="nonzero"/></clipPath><clipPath id="faa79aa7d8"><path d="M 25 12.707031 L 27 12.707031 L 27 14 L 25 14 Z M 25 12.707031 " clip-rule="nonzero"/></clipPath><clipPath id="6c6cdb1edf"><path d="M 21 6.292969 L 23 6.292969 L 23 12.9375 L 21 12.9375 Z M 21 6.292969 " clip-rule="nonzero"/></clipPath><clipPath id="7e582c7b98"><path d="M 20.152344 6.292969 L 22 6.292969 L 22 12 L 20.152344 12 Z M 20.152344 6.292969 " clip-rule="nonzero"/></clipPath><clipPath id="944184c0e5"><path d="M 22 6.292969 L 23 6.292969 L 23 12.9375 L 22 12.9375 Z M 22 6.292969 " clip-rule="nonzero"/></clipPath><clipPath id="6da5eed0fa"><path d="M 23 6.292969 L 24 6.292969 L 24 11 L 23 11 Z M 23 6.292969 " clip-rule="nonzero"/></clipPath><clipPath id="f5d8c96ba9"><path d="M 20.152344 6.292969 L 21 6.292969 L 21 11 L 20.152344 11 Z M 20.152344 6.292969 " clip-rule="nonzero"/></clipPath><clipPath id="6680c55741"><path d="M 21 6.292969 L 22 6.292969 L 22 8 L 21 8 Z M 21 6.292969 " clip-rule="nonzero"/></clipPath><clipPath id="642869b2e3"><path d="M 21 6.292969 L 23 6.292969 L 23 9 L 21 9 Z M 21 6.292969 " clip-rule="nonzero"/></clipPath><clipPath id="2f04ee3905"><path d="M 23 6.292969 L 25 6.292969 L 25 11 L 23 11 Z M 23 6.292969 " clip-rule="nonzero"/></clipPath><clipPath id="c69125e832"><path d="M 23 6.292969 L 24 6.292969 L 24 9 L 23 9 Z M 23 6.292969 " clip-rule="nonzero"/></clipPath><clipPath id="447ffd0122"><path d="M 24 6.292969 L 25.320312 6.292969 L 25.320312 10 L 24 10 Z M 24 6.292969 " clip-rule="nonzero"/></clipPath><clipPath id="5f09fc1ca9"><path d="M 21 12 L 22 12 L 22 12.9375 L 21 12.9375 Z M 21 12 " clip-rule="nonzero"/></clipPath><clipPath id="3fb9f52ead"><path d="M 21 12 L 23 12 L 23 12.9375 L 21 12.9375 Z M 21 12 " clip-rule="nonzero"/></clipPath><clipPath id="6fe282ff37"><path d="M 24 9 L 25.320312 9 L 25.320312 10 L 24 10 Z M 24 9 " clip-rule="nonzero"/></clipPath><clipPath id="60570e2171"><path d="M 20.152344 10 L 21 10 L 21 11 L 20.152344 11 Z M 20.152344 10 " clip-rule="nonzero"/></clipPath><clipPath id="77feac3e3d"><path d="M 20.152344 6.292969 L 22 6.292969 L 22 8 L 20.152344 8 Z M 20.152344 6.292969 " clip-rule="nonzero"/></clipPath><clipPath id="c3ece50c8e"><path d="M 20.152344 11 L 21 11 L 21 12 L 20.152344 12 Z M 20.152344 11 " clip-rule="nonzero"/></clipPath><clipPath id="3301551b73"><rect x="0" width="38" y="0" height="6"/></clipPath><clipPath id="5799ef3065"><path d="M 0.601562 2 L 7 2 L 7 8 L 0.601562 8 Z M 0.601562 2 " clip-rule="nonzero"/></clipPath><clipPath id="5324e678d1"><rect x="0" width="50" y="0" height="11"/></clipPath></defs><g clip-path="url(#641bd5ea5c)"><g clip-path="url(#baa86d2228)"><g transform="matrix(1, 0, 0, 1, 10, 2)"><g clip-path="url(#dfadf766b2)"><g clip-path="url(#0887ba5a4b)"><g clip-path="url(#8e0d8c4316)"><path fill="#000000" d="M 0.621094 0.632812 L 25.585938 0.632812 L 25.585938 25.597656 L 0.621094 25.597656 Z M 0.621094 0.632812 " fill-opacity="1" fill-rule="nonzero"/></g></g></g></g></g></g><g clip-path="url(#9828e9a738)"><g clip-path="url(#d4c7bf5ebd)"><g transform="matrix(1, 0, 0, 1, 9, 3)"><g clip-path="url(#9134f22965)"><g clip-path="url(#43a8b52433)"><g clip-path="url(#3cf40d4777)"><path fill="#ffffff" d="M 0.832031 0.410156 L 25.796875 0.410156 L 25.796875 25.375 L 0.832031 25.375 Z M 0.832031 0.410156 " fill-opacity="1" fill-rule="nonzero"/></g></g></g></g></g></g><g clip-path="url(#5aaeda1f8c)"><path fill="#1775bb" d="M 31.214844 15.796875 L 31.21875 16.902344 C 31.21875 17.3125 30.882812 17.648438 30.472656 17.648438 L 25.8125 17.648438 C 25.402344 17.648438 25.066406 17.984375 25.066406 18.394531 L 25.070312 23.25 C 25.070312 23.65625 24.730469 23.992188 24.324219 23.992188 L 23.21875 23.992188 C 22.808594 23.992188 22.132812 23.996094 21.722656 23.996094 L 20.617188 23.996094 C 20.210938 23.996094 19.871094 23.65625 19.871094 23.25 L 19.871094 18.394531 C 19.871094 17.988281 19.535156 17.648438 19.125 17.648438 L 16.308594 17.652344 L 16.308594 17.179688 L 17.664062 17.179688 L 17.664062 16.019531 L 16.828125 16.019531 L 16.828125 14.664062 L 18.179688 14.664062 L 18.179688 13.410156 L 17.308594 13.410156 L 17.308594 12.457031 L 19.125 12.453125 C 19.535156 12.453125 19.871094 12.121094 19.871094 11.710938 L 19.867188 7.050781 C 19.867188 6.640625 20.203125 6.304688 20.613281 6.304688 L 21.71875 6.304688 C 22.128906 6.304688 22.800781 6.304688 23.214844 6.304688 L 24.320312 6.304688 C 24.726562 6.304688 25.066406 6.640625 25.066406 7.050781 L 25.066406 11.707031 C 25.066406 12.117188 25.402344 12.453125 25.8125 12.453125 L 30.46875 12.453125 C 30.882812 12.453125 31.214844 12.789062 31.214844 13.199219 L 31.214844 14.304688 C 31.214844 14.714844 31.214844 15.386719 31.214844 15.796875 Z M 31.214844 15.796875 " fill-opacity="1" fill-rule="nonzero"/></g><path fill="#1775bb" d="M 15.054688 14.664062 L 16.308594 14.664062 L 16.308594 15.921875 L 15.054688 15.921875 Z M 15.054688 14.664062 " fill-opacity="1" fill-rule="nonzero"/><path fill="#1775bb" d="M 15.054688 12.585938 L 16.308594 12.585938 L 16.308594 13.84375 L 15.054688 13.84375 Z M 15.054688 12.585938 " fill-opacity="1" fill-rule="nonzero"/><path fill="#1775bb" d="M 14.25 17.542969 L 15.507812 17.542969 L 15.507812 18.796875 L 14.25 18.796875 Z M 14.25 17.542969 " fill-opacity="1" fill-rule="nonzero"/><path fill="#1775bb" d="M 12.996094 15.65625 L 14.25 15.65625 L 14.25 16.910156 L 12.996094 16.910156 Z M 12.996094 15.65625 " fill-opacity="1" fill-rule="nonzero"/><path fill="#1775bb" d="M 12.78125 13.410156 L 14.039062 13.410156 L 14.039062 14.664062 L 12.78125 14.664062 Z M 12.78125 13.410156 " fill-opacity="1" fill-rule="nonzero"/><path fill="#1775bb" d="M 11.738281 11.332031 L 12.996094 11.332031 L 12.996094 12.585938 L 11.738281 12.585938 Z M 11.738281 11.332031 " fill-opacity="1" fill-rule="nonzero"/><path fill="#1775bb" d="M 9.5625 16.285156 L 10.820312 16.285156 L 10.820312 17.542969 L 9.5625 17.542969 Z M 9.5625 16.285156 " fill-opacity="1" fill-rule="nonzero"/><path fill="#1775bb" d="M 8.9375 13.410156 L 10.191406 13.410156 L 10.191406 14.664062 L 8.9375 14.664062 Z M 8.9375 13.410156 " fill-opacity="1" fill-rule="nonzero"/><path fill="#1775bb" d="M 6.617188 8.527344 L 7.871094 8.527344 L 7.871094 9.785156 L 6.617188 9.785156 Z M 6.617188 8.527344 " fill-opacity="1" fill-rule="nonzero"/><path fill="#1775bb" d="M 5.988281 11.523438 L 7.246094 11.523438 L 7.246094 12.78125 L 5.988281 12.78125 Z M 5.988281 11.523438 " fill-opacity="1" fill-rule="nonzero"/><path fill="#1775bb" d="M 4.730469 15.535156 L 5.988281 15.535156 L 5.988281 16.792969 L 4.730469 16.792969 Z M 4.730469 15.535156 " fill-opacity="1" fill-rule="nonzero"/><g clip-path="url(#e8edc341c5)"><path fill="#1775bb" d="M 1.328125 12.78125 L 2.585938 12.78125 L 2.585938 14.039062 L 1.328125 14.039062 Z M 1.328125 12.78125 " fill-opacity="1" fill-rule="nonzero"/></g><g clip-path="url(#12018ff9c8)"><path fill="#1775bb" d="M 1.058594 16.910156 L 2.316406 16.910156 L 2.316406 18.167969 L 1.058594 18.167969 Z M 1.058594 16.910156 " fill-opacity="1" fill-rule="nonzero"/></g><g clip-path="url(#2fa3a8f617)"><path fill="#ffffff" d="M 23.992188 25.164062 L 23.992188 22.390625 L 24.964844 21.082031 C 24.972656 21.074219 24.976562 21.0625 24.976562 21.054688 L 24.976562 18.558594 C 24.976562 18.53125 24.953125 18.511719 24.929688 18.511719 C 24.902344 18.511719 24.882812 18.53125 24.882812 18.558594 L 24.882812 21.039062 L 23.90625 22.347656 C 23.902344 22.355469 23.898438 22.363281 23.898438 22.375 L 23.898438 25.164062 C 23.898438 25.191406 23.917969 25.210938 23.945312 25.210938 C 23.96875 25.210938 23.992188 25.191406 23.992188 25.164062 " fill-opacity="1" fill-rule="nonzero"/></g><g clip-path="url(#52716bc5a1)"><path fill="#ffffff" d="M 24.757812 25.164062 L 24.757812 23.792969 L 25.730469 22.484375 C 25.738281 22.476562 25.742188 22.464844 25.742188 22.457031 L 25.742188 19.960938 C 25.742188 19.933594 25.71875 19.914062 25.695312 19.914062 C 25.667969 19.914062 25.648438 19.933594 25.648438 19.960938 L 25.648438 22.441406 L 24.671875 23.75 C 24.667969 23.757812 24.664062 23.765625 24.664062 23.777344 L 24.664062 25.164062 C 24.664062 25.191406 24.683594 25.210938 24.710938 25.210938 C 24.738281 25.210938 24.757812 25.191406 24.757812 25.164062 " fill-opacity="1" fill-rule="nonzero"/></g><g clip-path="url(#15f105dcf0)"><path fill="#ffffff" d="M 23.570312 25.164062 L 23.570312 21.273438 L 24.25 20.597656 C 24.257812 20.589844 24.261719 20.578125 24.261719 20.566406 L 24.261719 18.804688 C 24.261719 18.777344 24.242188 18.757812 24.214844 18.757812 C 24.191406 18.757812 24.167969 18.777344 24.167969 18.804688 L 24.167969 20.546875 L 23.492188 21.222656 C 23.484375 21.230469 23.480469 21.242188 23.480469 21.253906 L 23.480469 25.164062 C 23.480469 25.191406 23.5 25.210938 23.527344 25.210938 C 23.550781 25.210938 23.570312 25.191406 23.570312 25.164062 " fill-opacity="1" fill-rule="nonzero"/></g><g clip-path="url(#35fc5b406a)"><path fill="#ffffff" d="M 23.183594 25.164062 L 23.183594 20.460938 C 23.183594 20.433594 23.160156 20.414062 23.136719 20.414062 C 23.109375 20.414062 23.089844 20.433594 23.089844 20.460938 L 23.089844 25.164062 C 23.089844 25.191406 23.109375 25.210938 23.136719 25.210938 C 23.160156 25.210938 23.183594 25.191406 23.183594 25.164062 " fill-opacity="1" fill-rule="nonzero"/></g><g clip-path="url(#1ebf733646)"><path fill="#ffffff" d="M 25.675781 25.164062 L 25.675781 23.511719 L 26.316406 22.589844 C 26.320312 22.582031 26.324219 22.574219 26.324219 22.5625 L 26.324219 20.640625 C 26.324219 20.617188 26.304688 20.59375 26.277344 20.59375 C 26.253906 20.59375 26.230469 20.617188 26.230469 20.640625 L 26.230469 22.546875 L 25.59375 23.46875 C 25.585938 23.476562 25.582031 23.484375 25.582031 23.496094 L 25.582031 25.164062 C 25.582031 25.191406 25.605469 25.210938 25.628906 25.210938 C 25.65625 25.210938 25.675781 25.191406 25.675781 25.164062 " fill-opacity="1" fill-rule="nonzero"/></g><g clip-path="url(#41231d14d2)"><path fill="#ffffff" d="M 25.183594 25.164062 L 25.183594 24.277344 C 25.183594 24.253906 25.160156 24.230469 25.136719 24.230469 C 25.109375 24.230469 25.089844 24.253906 25.089844 24.277344 L 25.089844 25.164062 C 25.089844 25.191406 25.109375 25.210938 25.136719 25.210938 C 25.160156 25.210938 25.183594 25.191406 25.183594 25.164062 " fill-opacity="1" fill-rule="nonzero"/></g><g clip-path="url(#6a2f208c9a)"><path fill="#ffffff" d="M 24.769531 22.476562 L 24.308594 23.035156 C 24.304688 23.046875 24.300781 23.054688 24.300781 23.066406 L 24.300781 25.164062 C 24.300781 25.191406 24.320312 25.210938 24.347656 25.210938 C 24.371094 25.210938 24.394531 25.191406 24.394531 25.164062 L 24.394531 23.082031 L 24.839844 22.535156 C 24.859375 22.515625 24.855469 22.488281 24.835938 22.46875 C 24.816406 22.453125 24.785156 22.457031 24.769531 22.476562 " fill-opacity="1" fill-rule="nonzero"/></g><g clip-path="url(#a92d32a936)"><path fill="#ffffff" d="M 21.898438 20.792969 L 22.65625 22.03125 L 22.65625 25.164062 C 22.65625 25.191406 22.675781 25.210938 22.703125 25.210938 C 22.726562 25.210938 22.75 25.191406 22.75 25.164062 L 22.75 22.019531 C 22.75 22.011719 22.746094 22.003906 22.742188 21.996094 L 21.976562 20.742188 C 21.964844 20.722656 21.933594 20.714844 21.914062 20.726562 C 21.890625 20.742188 21.882812 20.769531 21.898438 20.792969 " fill-opacity="1" fill-rule="nonzero"/></g><g clip-path="url(#7d57d1548a)"><path fill="#ffffff" d="M 22.367188 25.164062 L 22.367188 22.679688 C 22.367188 22.652344 22.34375 22.632812 22.320312 22.632812 C 22.292969 22.632812 22.273438 22.652344 22.273438 22.679688 L 22.273438 25.164062 C 22.273438 25.191406 22.292969 25.210938 22.320312 25.210938 C 22.34375 25.210938 22.367188 25.191406 22.367188 25.164062 " fill-opacity="1" fill-rule="nonzero"/></g><g clip-path="url(#f1f20cf1df)"><path fill="#ffffff" d="M 21.984375 25.164062 L 21.984375 23.414062 C 21.984375 23.402344 21.980469 23.390625 21.96875 23.382812 L 21.148438 22.566406 L 21.148438 21.800781 C 21.148438 21.777344 21.128906 21.753906 21.105469 21.753906 C 21.078125 21.753906 21.058594 21.777344 21.058594 21.800781 L 21.058594 22.585938 C 21.058594 22.597656 21.0625 22.609375 21.070312 22.617188 L 21.890625 23.433594 L 21.890625 25.164062 C 21.890625 25.191406 21.910156 25.210938 21.9375 25.210938 C 21.964844 25.210938 21.984375 25.191406 21.984375 25.164062 " fill-opacity="1" fill-rule="nonzero"/></g><g clip-path="url(#8fd5896712)"><path fill="#ffffff" d="M 25.167969 18.320312 L 25.121094 18.320312 C 25.121094 18.375 25.097656 18.421875 25.0625 18.457031 C 25.03125 18.492188 24.980469 18.511719 24.929688 18.511719 C 24.875 18.511719 24.828125 18.492188 24.792969 18.457031 C 24.757812 18.421875 24.738281 18.375 24.738281 18.320312 C 24.738281 18.265625 24.757812 18.21875 24.792969 18.183594 C 24.828125 18.148438 24.875 18.128906 24.929688 18.128906 C 24.980469 18.128906 25.03125 18.148438 25.0625 18.183594 C 25.097656 18.21875 25.121094 18.265625 25.121094 18.320312 L 25.214844 18.320312 C 25.214844 18.164062 25.085938 18.035156 24.929688 18.035156 C 24.769531 18.035156 24.644531 18.164062 24.644531 18.320312 C 24.644531 18.476562 24.769531 18.605469 24.929688 18.605469 C 25.085938 18.605469 25.214844 18.476562 25.214844 18.320312 L 25.167969 18.320312 " fill-opacity="1" fill-rule="nonzero"/></g><g clip-path="url(#94747b78dd)"><path fill="#ffffff" d="M 24.453125 18.558594 L 24.40625 18.558594 C 24.40625 18.613281 24.386719 18.660156 24.351562 18.695312 C 24.316406 18.730469 24.269531 18.75 24.214844 18.75 C 24.164062 18.75 24.113281 18.730469 24.078125 18.695312 C 24.046875 18.660156 24.023438 18.613281 24.023438 18.558594 C 24.023438 18.503906 24.046875 18.457031 24.078125 18.421875 C 24.113281 18.386719 24.164062 18.367188 24.214844 18.367188 C 24.269531 18.367188 24.316406 18.386719 24.351562 18.421875 C 24.386719 18.457031 24.40625 18.503906 24.40625 18.558594 L 24.5 18.558594 C 24.5 18.402344 24.371094 18.273438 24.214844 18.273438 C 24.058594 18.273438 23.929688 18.402344 23.929688 18.558594 C 23.929688 18.714844 24.058594 18.84375 24.214844 18.84375 C 24.371094 18.84375 24.5 18.714844 24.5 18.558594 L 24.453125 18.558594 " fill-opacity="1" fill-rule="nonzero"/></g><path fill="#ffffff" d="M 23.375 20.222656 L 23.328125 20.222656 C 23.328125 20.277344 23.304688 20.324219 23.273438 20.359375 C 23.238281 20.394531 23.1875 20.414062 23.136719 20.414062 C 23.082031 20.414062 23.035156 20.394531 23 20.359375 C 22.964844 20.324219 22.945312 20.277344 22.945312 20.222656 C 22.945312 20.167969 22.964844 20.121094 23 20.085938 C 23.035156 20.050781 23.082031 20.03125 23.136719 20.03125 C 23.1875 20.03125 23.238281 20.050781 23.273438 20.085938 C 23.304688 20.121094 23.328125 20.167969 23.328125 20.222656 L 23.421875 20.222656 C 23.421875 20.066406 23.292969 19.9375 23.136719 19.9375 C 22.980469 19.9375 22.851562 20.066406 22.851562 20.222656 C 22.851562 20.378906 22.980469 20.507812 23.136719 20.507812 C 23.292969 20.507812 23.421875 20.378906 23.421875 20.222656 L 23.375 20.222656 " fill-opacity="1" fill-rule="nonzero"/><path fill="#ffffff" d="M 22.042969 20.566406 L 21.996094 20.566406 C 21.996094 20.617188 21.976562 20.667969 21.941406 20.703125 C 21.90625 20.738281 21.859375 20.757812 21.804688 20.757812 C 21.75 20.757812 21.703125 20.738281 21.667969 20.703125 C 21.632812 20.667969 21.613281 20.617188 21.613281 20.566406 C 21.613281 20.511719 21.632812 20.464844 21.667969 20.429688 C 21.703125 20.394531 21.75 20.375 21.804688 20.375 C 21.859375 20.375 21.90625 20.394531 21.941406 20.429688 C 21.976562 20.464844 21.996094 20.511719 21.996094 20.566406 L 22.089844 20.566406 C 22.089844 20.410156 21.960938 20.28125 21.804688 20.28125 C 21.648438 20.28125 21.519531 20.410156 21.519531 20.566406 C 21.519531 20.722656 21.648438 20.851562 21.804688 20.851562 C 21.960938 20.851562 22.089844 20.722656 22.089844 20.566406 L 22.042969 20.566406 " fill-opacity="1" fill-rule="nonzero"/><g clip-path="url(#36b287e275)"><path fill="#ffffff" d="M 21.34375 21.5625 L 21.296875 21.5625 C 21.296875 21.617188 21.273438 21.664062 21.238281 21.699219 C 21.203125 21.734375 21.15625 21.753906 21.105469 21.753906 C 21.050781 21.753906 21.003906 21.734375 20.96875 21.699219 C 20.933594 21.664062 20.910156 21.617188 20.910156 21.5625 C 20.910156 21.511719 20.933594 21.460938 20.96875 21.425781 C 21.003906 21.394531 21.050781 21.371094 21.105469 21.371094 C 21.15625 21.371094 21.203125 21.394531 21.238281 21.425781 C 21.273438 21.460938 21.296875 21.511719 21.296875 21.5625 L 21.390625 21.5625 C 21.386719 21.40625 21.261719 21.277344 21.105469 21.277344 C 20.945312 21.277344 20.820312 21.40625 20.820312 21.5625 C 20.820312 21.71875 20.945312 21.847656 21.105469 21.847656 C 21.261719 21.847656 21.386719 21.71875 21.390625 21.5625 L 21.34375 21.5625 " fill-opacity="1" fill-rule="nonzero"/></g><g clip-path="url(#7b0712bf04)"><path fill="#ffffff" d="M 26.515625 20.402344 L 26.46875 20.402344 C 26.46875 20.457031 26.449219 20.503906 26.414062 20.539062 C 26.378906 20.574219 26.332031 20.59375 26.277344 20.59375 C 26.226562 20.59375 26.175781 20.574219 26.144531 20.539062 C 26.109375 20.503906 26.085938 20.457031 26.085938 20.402344 C 26.085938 20.351562 26.109375 20.300781 26.144531 20.269531 C 26.175781 20.234375 26.226562 20.210938 26.277344 20.210938 C 26.332031 20.210938 26.378906 20.234375 26.414062 20.269531 C 26.449219 20.300781 26.46875 20.351562 26.46875 20.402344 L 26.5625 20.402344 C 26.5625 20.246094 26.4375 20.117188 26.277344 20.117188 C 26.121094 20.117188 25.992188 20.246094 25.992188 20.402344 C 25.992188 20.5625 26.121094 20.6875 26.277344 20.6875 C 26.4375 20.6875 26.5625 20.5625 26.5625 20.402344 L 26.515625 20.402344 " fill-opacity="1" fill-rule="nonzero"/></g><path fill="#ffffff" d="M 25.375 24.039062 L 25.328125 24.039062 C 25.328125 24.09375 25.308594 24.140625 25.273438 24.175781 C 25.238281 24.210938 25.191406 24.230469 25.136719 24.230469 C 25.082031 24.230469 25.035156 24.210938 25 24.175781 C 24.964844 24.140625 24.945312 24.09375 24.945312 24.039062 C 24.945312 23.988281 24.964844 23.9375 25 23.90625 C 25.035156 23.871094 25.082031 23.847656 25.136719 23.847656 C 25.191406 23.847656 25.238281 23.871094 25.273438 23.90625 C 25.308594 23.9375 25.328125 23.988281 25.328125 24.039062 L 25.421875 24.039062 C 25.421875 23.882812 25.292969 23.753906 25.136719 23.753906 C 24.980469 23.753906 24.851562 23.882812 24.851562 24.039062 C 24.851562 24.199219 24.980469 24.324219 25.136719 24.324219 C 25.292969 24.324219 25.421875 24.199219 25.421875 24.039062 L 25.375 24.039062 " fill-opacity="1" fill-rule="nonzero"/><path fill="#ffffff" d="M 25.1875 22.316406 L 25.140625 22.316406 C 25.140625 22.371094 25.121094 22.417969 25.085938 22.453125 C 25.050781 22.488281 25.003906 22.507812 24.949219 22.507812 C 24.894531 22.507812 24.847656 22.488281 24.8125 22.453125 C 24.777344 22.417969 24.757812 22.371094 24.757812 22.316406 C 24.757812 22.265625 24.777344 22.214844 24.8125 22.179688 C 24.847656 22.144531 24.894531 22.125 24.949219 22.125 C 25.003906 22.125 25.050781 22.144531 25.085938 22.179688 C 25.121094 22.214844 25.140625 22.265625 25.140625 22.316406 L 25.234375 22.316406 C 25.234375 22.160156 25.105469 22.03125 24.949219 22.03125 C 24.792969 22.03125 24.664062 22.160156 24.664062 22.316406 C 24.664062 22.472656 24.792969 22.601562 24.949219 22.601562 C 25.105469 22.601562 25.234375 22.472656 25.234375 22.316406 L 25.1875 22.316406 " fill-opacity="1" fill-rule="nonzero"/><path fill="#ffffff" d="M 22.558594 22.441406 L 22.511719 22.441406 C 22.511719 22.492188 22.488281 22.542969 22.457031 22.578125 C 22.421875 22.613281 22.371094 22.632812 22.320312 22.632812 C 22.265625 22.632812 22.21875 22.613281 22.183594 22.578125 C 22.148438 22.542969 22.128906 22.492188 22.128906 22.441406 C 22.128906 22.386719 22.148438 22.339844 22.183594 22.304688 C 22.21875 22.269531 22.265625 22.25 22.320312 22.25 C 22.371094 22.25 22.421875 22.269531 22.457031 22.304688 C 22.488281 22.339844 22.511719 22.386719 22.511719 22.441406 L 22.605469 22.441406 C 22.605469 22.285156 22.476562 22.15625 22.320312 22.15625 C 22.164062 22.15625 22.035156 22.285156 22.035156 22.441406 C 22.035156 22.597656 22.164062 22.726562 22.320312 22.726562 C 22.476562 22.726562 22.605469 22.597656 22.605469 22.441406 L 22.558594 22.441406 " fill-opacity="1" fill-rule="nonzero"/><path fill="#ffffff" d="M 25.933594 19.722656 L 25.886719 19.722656 C 25.886719 19.777344 25.863281 19.824219 25.832031 19.859375 C 25.796875 19.894531 25.746094 19.914062 25.695312 19.914062 C 25.640625 19.914062 25.59375 19.894531 25.558594 19.859375 C 25.523438 19.824219 25.503906 19.777344 25.503906 19.722656 C 25.503906 19.667969 25.523438 19.621094 25.558594 19.585938 C 25.59375 19.550781 25.640625 19.53125 25.695312 19.53125 C 25.746094 19.53125 25.796875 19.550781 25.832031 19.585938 C 25.863281 19.621094 25.886719 19.667969 25.886719 19.722656 L 25.980469 19.722656 C 25.980469 19.566406 25.851562 19.4375 25.695312 19.4375 C 25.539062 19.4375 25.410156 19.566406 25.410156 19.722656 C 25.410156 19.878906 25.539062 20.007812 25.695312 20.007812 C 25.851562 20.007812 25.980469 19.878906 25.980469 19.722656 L 25.933594 19.722656 " fill-opacity="1" fill-rule="nonzero"/><g clip-path="url(#ddd8524d6e)"><path fill="#ffffff" d="M 31.175781 14.855469 L 28.535156 14.855469 L 27.289062 13.925781 C 27.28125 13.921875 27.273438 13.917969 27.265625 13.917969 L 24.890625 13.917969 C 24.867188 13.917969 24.847656 13.9375 24.847656 13.960938 C 24.847656 13.988281 24.867188 14.007812 24.890625 14.007812 L 27.25 14.007812 L 28.492188 14.933594 C 28.5 14.941406 28.511719 14.941406 28.519531 14.941406 L 31.175781 14.941406 C 31.199219 14.941406 31.21875 14.921875 31.21875 14.898438 C 31.21875 14.875 31.199219 14.855469 31.175781 14.855469 " fill-opacity="1" fill-rule="nonzero"/></g><g clip-path="url(#3de251833a)"><path fill="#ffffff" d="M 31.175781 14.125 L 29.867188 14.125 L 28.625 13.199219 C 28.617188 13.191406 28.609375 13.1875 28.597656 13.1875 L 26.222656 13.1875 C 26.199219 13.1875 26.179688 13.210938 26.179688 13.234375 C 26.179688 13.257812 26.199219 13.277344 26.222656 13.277344 L 28.582031 13.277344 L 29.828125 14.203125 C 29.835938 14.210938 29.84375 14.214844 29.855469 14.214844 L 31.175781 14.214844 C 31.199219 14.214844 31.21875 14.195312 31.21875 14.167969 C 31.21875 14.144531 31.199219 14.125 31.175781 14.125 " fill-opacity="1" fill-rule="nonzero"/></g><g clip-path="url(#4e97369739)"><path fill="#ffffff" d="M 31.175781 15.253906 L 27.472656 15.253906 L 26.828125 14.609375 C 26.820312 14.601562 26.808594 14.597656 26.796875 14.597656 L 25.125 14.597656 C 25.097656 14.597656 25.078125 14.617188 25.078125 14.640625 C 25.078125 14.664062 25.097656 14.683594 25.125 14.683594 L 26.78125 14.683594 L 27.421875 15.328125 C 27.433594 15.335938 27.441406 15.339844 27.453125 15.339844 L 31.175781 15.339844 C 31.199219 15.339844 31.21875 15.320312 31.21875 15.296875 C 31.21875 15.273438 31.199219 15.253906 31.175781 15.253906 " fill-opacity="1" fill-rule="nonzero"/></g><g clip-path="url(#c49f3d9746)"><path fill="#ffffff" d="M 31.175781 15.625 L 26.699219 15.625 C 26.675781 15.625 26.65625 15.644531 26.65625 15.667969 C 26.65625 15.691406 26.675781 15.710938 26.699219 15.710938 L 31.175781 15.710938 C 31.199219 15.710938 31.21875 15.691406 31.21875 15.667969 C 31.21875 15.644531 31.199219 15.625 31.175781 15.625 " fill-opacity="1" fill-rule="nonzero"/></g><g clip-path="url(#5b3844f7fd)"><path fill="#ffffff" d="M 31.175781 13.25 L 29.601562 13.25 L 28.726562 12.640625 C 28.71875 12.636719 28.710938 12.632812 28.699219 12.632812 L 26.871094 12.632812 C 26.847656 12.632812 26.828125 12.652344 26.828125 12.679688 C 26.828125 12.703125 26.847656 12.722656 26.871094 12.722656 L 28.6875 12.722656 L 29.5625 13.332031 C 29.570312 13.335938 29.578125 13.339844 29.585938 13.339844 L 31.175781 13.339844 C 31.199219 13.339844 31.21875 13.320312 31.21875 13.296875 C 31.21875 13.269531 31.199219 13.25 31.175781 13.25 " fill-opacity="1" fill-rule="nonzero"/></g><g clip-path="url(#cf9e6f104f)"><path fill="#ffffff" d="M 31.175781 13.71875 L 30.332031 13.71875 C 30.308594 13.71875 30.289062 13.742188 30.289062 13.765625 C 30.289062 13.789062 30.308594 13.808594 30.332031 13.808594 L 31.175781 13.808594 C 31.199219 13.808594 31.21875 13.789062 31.21875 13.765625 C 31.21875 13.742188 31.199219 13.71875 31.175781 13.71875 " fill-opacity="1" fill-rule="nonzero"/></g><g clip-path="url(#e7705b5510)"><path fill="#ffffff" d="M 28.617188 14.113281 L 29.152344 14.550781 C 29.160156 14.558594 29.167969 14.5625 29.179688 14.5625 L 31.175781 14.5625 C 31.199219 14.5625 31.21875 14.539062 31.21875 14.515625 C 31.21875 14.492188 31.199219 14.472656 31.175781 14.472656 L 29.195312 14.472656 L 28.675781 14.046875 C 28.65625 14.03125 28.628906 14.03125 28.613281 14.050781 C 28.597656 14.070312 28.597656 14.097656 28.617188 14.113281 " fill-opacity="1" fill-rule="nonzero"/></g><g clip-path="url(#5560dfad12)"><path fill="#ffffff" d="M 27.015625 16.847656 L 28.195312 16.125 L 31.175781 16.125 C 31.199219 16.125 31.21875 16.105469 31.21875 16.082031 C 31.21875 16.058594 31.199219 16.035156 31.175781 16.035156 L 28.183594 16.035156 C 28.175781 16.035156 28.167969 16.039062 28.160156 16.042969 L 26.96875 16.769531 C 26.949219 16.78125 26.941406 16.808594 26.953125 16.832031 C 26.964844 16.851562 26.992188 16.859375 27.015625 16.847656 " fill-opacity="1" fill-rule="nonzero"/></g><g clip-path="url(#bb89ffb442)"><path fill="#ffffff" d="M 31.175781 16.402344 L 28.8125 16.402344 C 28.785156 16.402344 28.765625 16.421875 28.765625 16.445312 C 28.765625 16.46875 28.785156 16.488281 28.8125 16.488281 L 31.175781 16.488281 C 31.199219 16.488281 31.21875 16.46875 31.21875 16.445312 C 31.21875 16.421875 31.199219 16.402344 31.175781 16.402344 " fill-opacity="1" fill-rule="nonzero"/></g><g clip-path="url(#980b06ade7)"><path fill="#ffffff" d="M 31.175781 16.765625 L 29.507812 16.765625 C 29.496094 16.765625 29.488281 16.769531 29.476562 16.777344 L 28.703125 17.558594 L 27.976562 17.558594 C 27.953125 17.558594 27.929688 17.578125 27.929688 17.601562 C 27.929688 17.625 27.953125 17.644531 27.976562 17.644531 L 28.722656 17.644531 C 28.734375 17.644531 28.746094 17.640625 28.753906 17.632812 L 29.527344 16.851562 L 31.175781 16.851562 C 31.199219 16.851562 31.21875 16.832031 31.21875 16.808594 C 31.21875 16.785156 31.199219 16.765625 31.175781 16.765625 " fill-opacity="1" fill-rule="nonzero"/></g><g clip-path="url(#610df4c17f)"><path fill="#ffffff" d="M 24.664062 13.734375 L 24.664062 13.78125 C 24.714844 13.78125 24.757812 13.800781 24.792969 13.832031 C 24.824219 13.867188 24.847656 13.910156 24.847656 13.960938 C 24.847656 14.011719 24.824219 14.058594 24.792969 14.089844 C 24.757812 14.125 24.714844 14.144531 24.664062 14.144531 C 24.613281 14.144531 24.566406 14.125 24.535156 14.089844 C 24.5 14.058594 24.480469 14.011719 24.480469 13.960938 C 24.480469 13.910156 24.5 13.867188 24.535156 13.832031 C 24.566406 13.800781 24.613281 13.78125 24.664062 13.78125 L 24.664062 13.691406 C 24.511719 13.691406 24.390625 13.8125 24.390625 13.960938 C 24.390625 14.113281 24.511719 14.234375 24.664062 14.234375 C 24.8125 14.234375 24.933594 14.113281 24.933594 13.960938 C 24.933594 13.8125 24.8125 13.691406 24.664062 13.691406 L 24.664062 13.734375 " fill-opacity="1" fill-rule="nonzero"/></g><g clip-path="url(#b79fd5c46c)"><path fill="#ffffff" d="M 24.890625 14.414062 L 24.890625 14.457031 C 24.941406 14.457031 24.984375 14.480469 25.019531 14.511719 C 25.050781 14.546875 25.074219 14.589844 25.074219 14.640625 C 25.074219 14.691406 25.050781 14.738281 25.019531 14.769531 C 24.984375 14.804688 24.941406 14.824219 24.890625 14.824219 C 24.839844 14.824219 24.792969 14.804688 24.761719 14.769531 C 24.726562 14.738281 24.707031 14.691406 24.707031 14.640625 C 24.707031 14.589844 24.726562 14.546875 24.761719 14.511719 C 24.792969 14.480469 24.839844 14.457031 24.890625 14.457031 L 24.890625 14.371094 C 24.742188 14.371094 24.617188 14.492188 24.617188 14.640625 C 24.617188 14.789062 24.742188 14.910156 24.890625 14.910156 C 25.039062 14.910156 25.160156 14.789062 25.160156 14.640625 C 25.160156 14.492188 25.039062 14.371094 24.890625 14.371094 L 24.890625 14.414062 " fill-opacity="1" fill-rule="nonzero"/></g><path fill="#ffffff" d="M 26.472656 15.441406 L 26.472656 15.484375 C 26.523438 15.484375 26.570312 15.503906 26.601562 15.539062 C 26.636719 15.570312 26.65625 15.617188 26.65625 15.667969 C 26.65625 15.71875 26.636719 15.765625 26.601562 15.796875 C 26.570312 15.832031 26.523438 15.851562 26.472656 15.851562 C 26.421875 15.851562 26.378906 15.832031 26.34375 15.796875 C 26.3125 15.765625 26.289062 15.71875 26.289062 15.667969 C 26.289062 15.617188 26.3125 15.570312 26.34375 15.539062 C 26.378906 15.503906 26.421875 15.484375 26.472656 15.484375 L 26.472656 15.398438 C 26.324219 15.398438 26.203125 15.519531 26.203125 15.667969 C 26.203125 15.816406 26.324219 15.9375 26.472656 15.9375 C 26.621094 15.9375 26.746094 15.816406 26.746094 15.667969 C 26.746094 15.519531 26.621094 15.398438 26.472656 15.398438 L 26.472656 15.441406 " fill-opacity="1" fill-rule="nonzero"/><g clip-path="url(#f9b65a4553)"><path fill="#ffffff" d="M 26.800781 16.707031 L 26.800781 16.75 C 26.851562 16.75 26.894531 16.773438 26.929688 16.804688 C 26.960938 16.839844 26.984375 16.882812 26.984375 16.933594 C 26.984375 16.984375 26.960938 17.03125 26.929688 17.0625 C 26.894531 17.097656 26.851562 17.117188 26.800781 17.117188 C 26.75 17.117188 26.703125 17.097656 26.671875 17.0625 C 26.636719 17.03125 26.617188 16.984375 26.617188 16.933594 C 26.617188 16.882812 26.636719 16.839844 26.671875 16.804688 C 26.703125 16.773438 26.75 16.75 26.800781 16.75 L 26.800781 16.664062 C 26.648438 16.664062 26.527344 16.785156 26.527344 16.933594 C 26.527344 17.082031 26.648438 17.207031 26.800781 17.207031 C 26.949219 17.207031 27.070312 17.082031 27.070312 16.933594 C 27.070312 16.785156 26.949219 16.664062 26.800781 16.664062 L 26.800781 16.707031 " fill-opacity="1" fill-rule="nonzero"/></g><g clip-path="url(#4cff9c076e)"><path fill="#ffffff" d="M 27.75 17.375 L 27.75 17.417969 C 27.800781 17.417969 27.84375 17.4375 27.878906 17.472656 C 27.910156 17.503906 27.929688 17.550781 27.929688 17.601562 C 27.929688 17.652344 27.910156 17.699219 27.878906 17.730469 C 27.84375 17.761719 27.800781 17.785156 27.75 17.785156 C 27.699219 17.785156 27.652344 17.761719 27.621094 17.730469 C 27.585938 17.699219 27.566406 17.652344 27.566406 17.601562 C 27.566406 17.550781 27.585938 17.503906 27.621094 17.472656 C 27.652344 17.4375 27.699219 17.417969 27.75 17.417969 L 27.75 17.332031 C 27.597656 17.332031 27.476562 17.453125 27.476562 17.601562 C 27.476562 17.75 27.597656 17.871094 27.75 17.871094 C 27.898438 17.871094 28.019531 17.75 28.019531 17.601562 C 28.019531 17.453125 27.898438 17.332031 27.75 17.332031 L 27.75 17.375 " fill-opacity="1" fill-rule="nonzero"/></g><g clip-path="url(#c9308df5c2)"><path fill="#ffffff" d="M 26.644531 12.453125 L 26.644531 12.496094 C 26.695312 12.496094 26.742188 12.515625 26.773438 12.550781 C 26.808594 12.582031 26.828125 12.628906 26.828125 12.679688 C 26.828125 12.730469 26.808594 12.773438 26.773438 12.808594 C 26.742188 12.839844 26.695312 12.859375 26.644531 12.859375 C 26.59375 12.859375 26.550781 12.839844 26.515625 12.808594 C 26.484375 12.773438 26.460938 12.730469 26.460938 12.679688 C 26.460938 12.628906 26.484375 12.582031 26.515625 12.550781 C 26.550781 12.515625 26.59375 12.496094 26.644531 12.496094 L 26.644531 12.40625 C 26.496094 12.40625 26.375 12.527344 26.375 12.679688 C 26.375 12.828125 26.496094 12.949219 26.644531 12.949219 C 26.796875 12.949219 26.917969 12.828125 26.917969 12.679688 C 26.917969 12.527344 26.796875 12.40625 26.644531 12.40625 L 26.644531 12.453125 " fill-opacity="1" fill-rule="nonzero"/></g><path fill="#ffffff" d="M 30.105469 13.539062 L 30.105469 13.582031 C 30.15625 13.582031 30.203125 13.601562 30.234375 13.636719 C 30.265625 13.667969 30.289062 13.714844 30.289062 13.765625 C 30.289062 13.816406 30.265625 13.859375 30.234375 13.894531 C 30.203125 13.925781 30.15625 13.949219 30.105469 13.949219 C 30.054688 13.949219 30.007812 13.925781 29.976562 13.894531 C 29.941406 13.859375 29.921875 13.816406 29.921875 13.765625 C 29.921875 13.714844 29.941406 13.667969 29.976562 13.636719 C 30.007812 13.601562 30.054688 13.582031 30.105469 13.582031 L 30.105469 13.492188 C 29.957031 13.492188 29.835938 13.613281 29.835938 13.765625 C 29.835938 13.914062 29.957031 14.035156 30.105469 14.035156 C 30.253906 14.035156 30.375 13.914062 30.375 13.765625 C 30.375 13.613281 30.253906 13.492188 30.105469 13.492188 L 30.105469 13.539062 " fill-opacity="1" fill-rule="nonzero"/><path fill="#ffffff" d="M 28.464844 13.714844 L 28.464844 13.761719 C 28.515625 13.761719 28.5625 13.78125 28.59375 13.8125 C 28.628906 13.847656 28.648438 13.890625 28.648438 13.941406 C 28.648438 13.992188 28.628906 14.039062 28.59375 14.070312 C 28.5625 14.105469 28.515625 14.125 28.464844 14.125 C 28.414062 14.125 28.371094 14.105469 28.335938 14.070312 C 28.304688 14.039062 28.285156 13.992188 28.285156 13.941406 C 28.285156 13.890625 28.304688 13.847656 28.335938 13.8125 C 28.371094 13.78125 28.414062 13.761719 28.464844 13.761719 L 28.464844 13.671875 C 28.316406 13.671875 28.195312 13.792969 28.195312 13.941406 C 28.195312 14.09375 28.316406 14.214844 28.464844 14.214844 C 28.617188 14.214844 28.738281 14.09375 28.738281 13.941406 C 28.738281 13.792969 28.617188 13.671875 28.464844 13.671875 L 28.464844 13.714844 " fill-opacity="1" fill-rule="nonzero"/><path fill="#ffffff" d="M 28.582031 16.21875 L 28.582031 16.261719 C 28.632812 16.261719 28.679688 16.28125 28.714844 16.316406 C 28.746094 16.347656 28.765625 16.394531 28.765625 16.445312 C 28.765625 16.496094 28.746094 16.539062 28.714844 16.574219 C 28.679688 16.605469 28.632812 16.628906 28.582031 16.628906 C 28.535156 16.628906 28.488281 16.605469 28.453125 16.574219 C 28.421875 16.539062 28.402344 16.496094 28.402344 16.445312 C 28.402344 16.394531 28.421875 16.347656 28.453125 16.316406 C 28.488281 16.28125 28.535156 16.261719 28.582031 16.261719 L 28.582031 16.171875 C 28.433594 16.171875 28.3125 16.296875 28.3125 16.445312 C 28.3125 16.59375 28.433594 16.714844 28.582031 16.714844 C 28.734375 16.714844 28.855469 16.59375 28.855469 16.445312 C 28.855469 16.296875 28.734375 16.171875 28.582031 16.171875 L 28.582031 16.21875 " fill-opacity="1" fill-rule="nonzero"/><g clip-path="url(#faa79aa7d8)"><path fill="#ffffff" d="M 25.996094 13.007812 L 25.996094 13.050781 C 26.046875 13.050781 26.09375 13.070312 26.125 13.105469 C 26.160156 13.136719 26.179688 13.183594 26.179688 13.234375 C 26.179688 13.285156 26.160156 13.328125 26.125 13.363281 C 26.09375 13.394531 26.046875 13.417969 25.996094 13.417969 C 25.945312 13.417969 25.902344 13.394531 25.867188 13.363281 C 25.835938 13.328125 25.816406 13.285156 25.816406 13.234375 C 25.816406 13.183594 25.835938 13.136719 25.867188 13.105469 C 25.902344 13.070312 25.945312 13.050781 25.996094 13.050781 L 25.996094 12.960938 C 25.847656 12.960938 25.726562 13.082031 25.726562 13.234375 C 25.726562 13.382812 25.847656 13.503906 25.996094 13.503906 C 26.148438 13.503906 26.269531 13.382812 26.269531 13.234375 C 26.269531 13.082031 26.148438 12.960938 25.996094 12.960938 L 25.996094 13.007812 " fill-opacity="1" fill-rule="nonzero"/></g><g clip-path="url(#6c6cdb1edf)"><path fill="#ffffff" d="M 22.300781 6.152344 L 22.300781 8.792969 L 21.371094 10.039062 C 21.367188 10.046875 21.363281 10.054688 21.363281 10.066406 L 21.363281 12.441406 C 21.363281 12.464844 21.382812 12.484375 21.40625 12.484375 C 21.433594 12.484375 21.453125 12.464844 21.453125 12.441406 L 21.453125 10.078125 L 22.378906 8.835938 C 22.382812 8.828125 22.386719 8.820312 22.386719 8.808594 L 22.386719 6.152344 C 22.386719 6.128906 22.367188 6.109375 22.34375 6.109375 C 22.320312 6.109375 22.300781 6.128906 22.300781 6.152344 " fill-opacity="1" fill-rule="nonzero"/></g><g clip-path="url(#7e582c7b98)"><path fill="#ffffff" d="M 21.570312 6.152344 L 21.570312 7.460938 L 20.644531 8.703125 C 20.636719 8.710938 20.632812 8.722656 20.632812 8.730469 L 20.632812 11.105469 C 20.632812 11.128906 20.652344 11.148438 20.679688 11.148438 C 20.703125 11.148438 20.722656 11.128906 20.722656 11.105469 L 20.722656 8.746094 L 21.648438 7.5 C 21.65625 7.496094 21.660156 7.484375 21.660156 7.476562 L 21.660156 6.152344 C 21.660156 6.128906 21.640625 6.109375 21.613281 6.109375 C 21.589844 6.109375 21.570312 6.128906 21.570312 6.152344 " fill-opacity="1" fill-rule="nonzero"/></g><g clip-path="url(#944184c0e5)"><path fill="#ffffff" d="M 22.699219 6.152344 L 22.699219 9.855469 L 22.054688 10.5 C 22.046875 10.507812 22.042969 10.519531 22.042969 10.53125 L 22.042969 12.207031 C 22.042969 12.230469 22.0625 12.25 22.085938 12.25 C 22.109375 12.25 22.128906 12.230469 22.128906 12.207031 L 22.128906 10.550781 L 22.773438 9.90625 C 22.78125 9.898438 22.785156 9.886719 22.785156 9.875 L 22.785156 6.152344 C 22.785156 6.128906 22.765625 6.109375 22.742188 6.109375 C 22.71875 6.109375 22.699219 6.128906 22.699219 6.152344 " fill-opacity="1" fill-rule="nonzero"/></g><g clip-path="url(#6da5eed0fa)"><path fill="#ffffff" d="M 23.070312 6.152344 L 23.070312 10.628906 C 23.070312 10.652344 23.089844 10.675781 23.113281 10.675781 C 23.136719 10.675781 23.15625 10.652344 23.15625 10.628906 L 23.15625 6.152344 C 23.15625 6.128906 23.136719 6.109375 23.113281 6.109375 C 23.089844 6.109375 23.070312 6.128906 23.070312 6.152344 " fill-opacity="1" fill-rule="nonzero"/></g><g clip-path="url(#f5d8c96ba9)"><path fill="#ffffff" d="M 20.695312 6.152344 L 20.695312 7.730469 L 20.085938 8.605469 C 20.082031 8.613281 20.078125 8.621094 20.078125 8.628906 L 20.078125 10.457031 C 20.078125 10.480469 20.097656 10.5 20.125 10.5 C 20.148438 10.5 20.167969 10.480469 20.167969 10.457031 L 20.167969 8.644531 L 20.777344 7.769531 C 20.78125 7.761719 20.785156 7.75 20.785156 7.742188 L 20.785156 6.152344 C 20.785156 6.128906 20.765625 6.109375 20.738281 6.109375 C 20.714844 6.109375 20.695312 6.128906 20.695312 6.152344 " fill-opacity="1" fill-rule="nonzero"/></g><g clip-path="url(#6680c55741)"><path fill="#ffffff" d="M 21.164062 6.152344 L 21.164062 6.996094 C 21.164062 7.023438 21.183594 7.042969 21.210938 7.042969 C 21.234375 7.042969 21.253906 7.023438 21.253906 6.996094 L 21.253906 6.152344 C 21.253906 6.128906 21.234375 6.109375 21.210938 6.109375 C 21.183594 6.109375 21.164062 6.128906 21.164062 6.152344 " fill-opacity="1" fill-rule="nonzero"/></g><g clip-path="url(#642869b2e3)"><path fill="#ffffff" d="M 21.558594 8.710938 L 21.996094 8.179688 C 22.003906 8.171875 22.003906 8.160156 22.003906 8.152344 L 22.003906 6.152344 C 22.003906 6.128906 21.984375 6.109375 21.960938 6.109375 C 21.9375 6.109375 21.917969 6.128906 21.917969 6.152344 L 21.917969 8.136719 L 21.492188 8.65625 C 21.476562 8.675781 21.476562 8.703125 21.496094 8.71875 C 21.515625 8.734375 21.542969 8.730469 21.558594 8.710938 " fill-opacity="1" fill-rule="nonzero"/></g><g clip-path="url(#2f04ee3905)"><path fill="#ffffff" d="M 24.289062 10.316406 L 23.570312 9.136719 L 23.570312 6.152344 C 23.570312 6.128906 23.550781 6.109375 23.527344 6.109375 C 23.5 6.109375 23.480469 6.128906 23.480469 6.152344 L 23.480469 9.148438 C 23.480469 9.15625 23.484375 9.164062 23.488281 9.171875 L 24.214844 10.359375 C 24.226562 10.382812 24.253906 10.386719 24.277344 10.375 C 24.296875 10.363281 24.304688 10.335938 24.289062 10.316406 " fill-opacity="1" fill-rule="nonzero"/></g><g clip-path="url(#c69125e832)"><path fill="#ffffff" d="M 23.84375 6.152344 L 23.84375 8.519531 C 23.84375 8.542969 23.863281 8.5625 23.890625 8.5625 C 23.914062 8.5625 23.933594 8.542969 23.933594 8.519531 L 23.933594 6.152344 C 23.933594 6.128906 23.914062 6.109375 23.890625 6.109375 C 23.863281 6.109375 23.84375 6.128906 23.84375 6.152344 " fill-opacity="1" fill-rule="nonzero"/></g><g clip-path="url(#447ffd0122)"><path fill="#ffffff" d="M 24.207031 6.152344 L 24.207031 7.820312 C 24.207031 7.832031 24.214844 7.84375 24.222656 7.851562 L 25.003906 8.625 L 25.003906 9.355469 C 25.003906 9.378906 25.023438 9.398438 25.046875 9.398438 C 25.070312 9.398438 25.089844 9.378906 25.089844 9.355469 L 25.089844 8.609375 C 25.089844 8.597656 25.085938 8.585938 25.078125 8.578125 L 24.296875 7.800781 L 24.296875 6.152344 C 24.296875 6.128906 24.277344 6.109375 24.253906 6.109375 C 24.230469 6.109375 24.207031 6.128906 24.207031 6.152344 " fill-opacity="1" fill-rule="nonzero"/></g><g clip-path="url(#5f09fc1ca9)"><path fill="#ffffff" d="M 21.179688 12.667969 L 21.226562 12.667969 C 21.226562 12.617188 21.246094 12.570312 21.277344 12.539062 C 21.3125 12.503906 21.355469 12.484375 21.40625 12.484375 C 21.457031 12.484375 21.503906 12.503906 21.535156 12.539062 C 21.570312 12.570312 21.589844 12.617188 21.589844 12.667969 C 21.589844 12.71875 21.570312 12.761719 21.535156 12.796875 C 21.503906 12.828125 21.457031 12.847656 21.40625 12.847656 C 21.355469 12.847656 21.3125 12.828125 21.277344 12.796875 C 21.246094 12.761719 21.226562 12.71875 21.226562 12.667969 L 21.136719 12.667969 C 21.136719 12.816406 21.257812 12.9375 21.40625 12.9375 C 21.558594 12.9375 21.679688 12.816406 21.679688 12.667969 C 21.679688 12.515625 21.558594 12.394531 21.40625 12.394531 C 21.257812 12.394531 21.136719 12.515625 21.136719 12.667969 L 21.179688 12.667969 " fill-opacity="1" fill-rule="nonzero"/></g><g clip-path="url(#3fb9f52ead)"><path fill="#ffffff" d="M 21.859375 12.441406 L 21.902344 12.441406 C 21.902344 12.390625 21.921875 12.34375 21.957031 12.3125 C 21.988281 12.277344 22.035156 12.257812 22.085938 12.257812 C 22.136719 12.257812 22.183594 12.277344 22.214844 12.3125 C 22.246094 12.34375 22.269531 12.390625 22.269531 12.441406 C 22.269531 12.492188 22.246094 12.535156 22.214844 12.570312 C 22.183594 12.601562 22.136719 12.621094 22.085938 12.621094 C 22.035156 12.621094 21.988281 12.601562 21.957031 12.570312 C 21.921875 12.535156 21.902344 12.492188 21.902344 12.441406 L 21.816406 12.441406 C 21.816406 12.589844 21.9375 12.710938 22.085938 12.710938 C 22.234375 12.710938 22.355469 12.589844 22.355469 12.441406 C 22.355469 12.289062 22.234375 12.167969 22.085938 12.167969 C 21.9375 12.167969 21.816406 12.289062 21.816406 12.441406 L 21.859375 12.441406 " fill-opacity="1" fill-rule="nonzero"/></g><path fill="#ffffff" d="M 22.886719 10.855469 L 22.929688 10.855469 C 22.929688 10.804688 22.949219 10.761719 22.984375 10.726562 C 23.015625 10.695312 23.0625 10.675781 23.113281 10.675781 C 23.164062 10.675781 23.207031 10.695312 23.242188 10.726562 C 23.273438 10.761719 23.296875 10.804688 23.296875 10.855469 C 23.296875 10.90625 23.273438 10.953125 23.242188 10.984375 C 23.207031 11.019531 23.164062 11.039062 23.113281 11.039062 C 23.0625 11.039062 23.015625 11.019531 22.984375 10.984375 C 22.949219 10.953125 22.929688 10.90625 22.929688 10.855469 L 22.84375 10.855469 C 22.84375 11.007812 22.964844 11.128906 23.113281 11.128906 C 23.261719 11.128906 23.382812 11.007812 23.382812 10.855469 C 23.382812 10.707031 23.261719 10.585938 23.113281 10.585938 C 22.964844 10.585938 22.84375 10.707031 22.84375 10.855469 L 22.886719 10.855469 " fill-opacity="1" fill-rule="nonzero"/><path fill="#ffffff" d="M 24.152344 10.53125 L 24.195312 10.53125 C 24.195312 10.480469 24.21875 10.433594 24.25 10.402344 C 24.285156 10.367188 24.328125 10.347656 24.378906 10.347656 C 24.429688 10.347656 24.476562 10.367188 24.507812 10.402344 C 24.542969 10.433594 24.5625 10.480469 24.5625 10.53125 C 24.5625 10.582031 24.542969 10.625 24.507812 10.660156 C 24.476562 10.691406 24.429688 10.710938 24.378906 10.710938 C 24.328125 10.710938 24.285156 10.691406 24.25 10.660156 C 24.21875 10.625 24.195312 10.582031 24.195312 10.53125 L 24.109375 10.53125 C 24.109375 10.679688 24.230469 10.800781 24.378906 10.800781 C 24.527344 10.800781 24.648438 10.679688 24.648438 10.53125 C 24.648438 10.378906 24.527344 10.257812 24.378906 10.257812 C 24.230469 10.257812 24.109375 10.378906 24.109375 10.53125 L 24.152344 10.53125 " fill-opacity="1" fill-rule="nonzero"/><g clip-path="url(#6fe282ff37)"><path fill="#ffffff" d="M 24.820312 9.582031 L 24.863281 9.582031 C 24.863281 9.53125 24.882812 9.484375 24.917969 9.453125 C 24.949219 9.417969 24.996094 9.398438 25.046875 9.398438 C 25.097656 9.398438 25.140625 9.417969 25.175781 9.453125 C 25.207031 9.484375 25.230469 9.53125 25.230469 9.582031 C 25.230469 9.632812 25.207031 9.675781 25.175781 9.710938 C 25.140625 9.742188 25.097656 9.761719 25.046875 9.761719 C 24.996094 9.761719 24.949219 9.742188 24.917969 9.710938 C 24.882812 9.675781 24.863281 9.632812 24.863281 9.582031 L 24.773438 9.582031 C 24.773438 9.730469 24.898438 9.851562 25.046875 9.851562 C 25.195312 9.851562 25.316406 9.730469 25.316406 9.582031 C 25.316406 9.429688 25.195312 9.308594 25.046875 9.308594 C 24.898438 9.308594 24.773438 9.429688 24.773438 9.582031 L 24.820312 9.582031 " fill-opacity="1" fill-rule="nonzero"/></g><g clip-path="url(#60570e2171)"><path fill="#ffffff" d="M 19.894531 10.683594 L 19.941406 10.683594 C 19.941406 10.632812 19.960938 10.589844 19.992188 10.554688 C 20.027344 10.523438 20.074219 10.5 20.125 10.5 C 20.171875 10.5 20.21875 10.523438 20.253906 10.554688 C 20.285156 10.589844 20.304688 10.632812 20.304688 10.683594 C 20.304688 10.734375 20.285156 10.78125 20.253906 10.8125 C 20.21875 10.847656 20.171875 10.867188 20.125 10.867188 C 20.074219 10.867188 20.027344 10.847656 19.992188 10.8125 C 19.960938 10.78125 19.941406 10.734375 19.941406 10.683594 L 19.851562 10.683594 C 19.851562 10.832031 19.972656 10.957031 20.125 10.957031 C 20.273438 10.957031 20.394531 10.835938 20.394531 10.683594 C 20.394531 10.535156 20.273438 10.414062 20.125 10.414062 C 19.972656 10.414062 19.851562 10.535156 19.851562 10.683594 L 19.894531 10.683594 " fill-opacity="1" fill-rule="nonzero"/></g><g clip-path="url(#77feac3e3d)"><path fill="#ffffff" d="M 20.984375 7.222656 L 21.027344 7.222656 C 21.027344 7.171875 21.046875 7.128906 21.082031 7.09375 C 21.113281 7.0625 21.160156 7.042969 21.210938 7.042969 C 21.261719 7.042969 21.304688 7.0625 21.339844 7.09375 C 21.371094 7.128906 21.390625 7.171875 21.390625 7.222656 C 21.390625 7.273438 21.371094 7.320312 21.339844 7.351562 C 21.304688 7.386719 21.261719 7.40625 21.210938 7.40625 C 21.160156 7.40625 21.113281 7.386719 21.082031 7.351562 C 21.046875 7.320312 21.027344 7.273438 21.027344 7.222656 L 20.9375 7.222656 C 20.9375 7.375 21.058594 7.496094 21.210938 7.496094 C 21.359375 7.496094 21.480469 7.375 21.480469 7.222656 C 21.480469 7.074219 21.359375 6.953125 21.210938 6.953125 C 21.058594 6.953125 20.9375 7.074219 20.9375 7.222656 L 20.984375 7.222656 " fill-opacity="1" fill-rule="nonzero"/></g><path fill="#ffffff" d="M 21.160156 8.863281 L 21.203125 8.863281 C 21.207031 8.8125 21.226562 8.769531 21.257812 8.734375 C 21.292969 8.703125 21.335938 8.679688 21.386719 8.679688 C 21.4375 8.679688 21.484375 8.703125 21.515625 8.734375 C 21.550781 8.769531 21.570312 8.8125 21.570312 8.863281 C 21.570312 8.914062 21.550781 8.960938 21.515625 8.992188 C 21.484375 9.027344 21.4375 9.046875 21.386719 9.046875 C 21.335938 9.046875 21.292969 9.027344 21.257812 8.992188 C 21.226562 8.960938 21.207031 8.914062 21.203125 8.863281 L 21.117188 8.863281 C 21.117188 9.011719 21.238281 9.136719 21.386719 9.136719 C 21.539062 9.136719 21.660156 9.011719 21.660156 8.863281 C 21.660156 8.714844 21.539062 8.59375 21.386719 8.59375 C 21.238281 8.59375 21.117188 8.714844 21.117188 8.863281 L 21.160156 8.863281 " fill-opacity="1" fill-rule="nonzero"/><path fill="#ffffff" d="M 23.664062 8.746094 L 23.707031 8.746094 C 23.707031 8.695312 23.726562 8.648438 23.761719 8.617188 C 23.792969 8.582031 23.839844 8.5625 23.890625 8.5625 C 23.941406 8.5625 23.984375 8.582031 24.019531 8.617188 C 24.050781 8.648438 24.070312 8.695312 24.070312 8.746094 C 24.070312 8.796875 24.050781 8.839844 24.019531 8.875 C 23.984375 8.90625 23.941406 8.929688 23.890625 8.929688 C 23.839844 8.929688 23.792969 8.90625 23.761719 8.875 C 23.726562 8.839844 23.707031 8.796875 23.707031 8.746094 L 23.617188 8.746094 C 23.617188 8.894531 23.738281 9.015625 23.890625 9.015625 C 24.039062 9.015625 24.160156 8.894531 24.160156 8.746094 C 24.160156 8.597656 24.039062 8.476562 23.890625 8.476562 C 23.738281 8.476562 23.617188 8.597656 23.617188 8.746094 L 23.664062 8.746094 " fill-opacity="1" fill-rule="nonzero"/><g clip-path="url(#c3ece50c8e)"><path fill="#ffffff" d="M 20.453125 11.332031 L 20.496094 11.332031 C 20.496094 11.28125 20.515625 11.238281 20.550781 11.203125 C 20.582031 11.171875 20.628906 11.148438 20.679688 11.148438 C 20.730469 11.148438 20.773438 11.171875 20.808594 11.203125 C 20.839844 11.238281 20.859375 11.28125 20.859375 11.332031 C 20.859375 11.382812 20.839844 11.429688 20.808594 11.460938 C 20.773438 11.496094 20.730469 11.515625 20.679688 11.515625 C 20.628906 11.515625 20.582031 11.496094 20.550781 11.460938 C 20.515625 11.429688 20.496094 11.382812 20.496094 11.332031 L 20.40625 11.332031 C 20.40625 11.480469 20.527344 11.601562 20.679688 11.601562 C 20.828125 11.601562 20.949219 11.480469 20.949219 11.332031 C 20.949219 11.183594 20.828125 11.0625 20.679688 11.0625 C 20.527344 11.0625 20.40625 11.183594 20.40625 11.332031 L 20.453125 11.332031 " fill-opacity="1" fill-rule="nonzero"/></g><g transform="matrix(1, 0, 0, 1, 45, 14)"><g clip-path="url(#3301551b73)"><g fill="#1775bb" fill-opacity="1"><g transform="translate(0.935718, 4.200266)"><g><path d="M 0.25 0 L 0.25 -2.03125 L 0.640625 -2.03125 L 1.359375 -0.984375 L 2.078125 -2.03125 L 2.46875 -2.03125 L 2.46875 0 L 2.015625 0 L 2.015625 -1.21875 L 1.515625 -0.5 L 1.203125 -0.5 L 0.703125 -1.21875 L 0.703125 0 Z M 0.25 0 "/></g></g></g><g fill="#1775bb" fill-opacity="1"><g transform="translate(4.334505, 4.200266)"><g><path d="M 0.25 0 L 0.25 -2.03125 L 1.578125 -2.03125 L 1.578125 -1.640625 L 0.703125 -1.640625 L 0.703125 -1.21875 L 1.5 -1.21875 L 1.5 -0.84375 L 0.703125 -0.84375 L 0.703125 -0.390625 L 1.609375 -0.390625 L 1.609375 0 Z M 0.25 0 "/></g></g></g><g fill="#1775bb" fill-opacity="1"><g transform="translate(6.780623, 4.200266)"><g><path d="M 0.25 0 L 0.25 -2.03125 L 1.046875 -2.03125 C 1.265625 -2.03125 1.453125 -1.988281 1.609375 -1.90625 C 1.773438 -1.820312 1.898438 -1.703125 1.984375 -1.546875 C 2.078125 -1.390625 2.125 -1.210938 2.125 -1.015625 C 2.125 -0.816406 2.078125 -0.640625 1.984375 -0.484375 C 1.898438 -0.328125 1.773438 -0.207031 1.609375 -0.125 C 1.453125 -0.0390625 1.265625 0 1.046875 0 Z M 0.703125 -0.421875 L 1.046875 -0.421875 C 1.160156 -0.421875 1.265625 -0.445312 1.359375 -0.5 C 1.453125 -0.550781 1.519531 -0.617188 1.5625 -0.703125 C 1.613281 -0.796875 1.640625 -0.898438 1.640625 -1.015625 C 1.640625 -1.140625 1.613281 -1.242188 1.5625 -1.328125 C 1.519531 -1.421875 1.453125 -1.488281 1.359375 -1.53125 C 1.265625 -1.582031 1.15625 -1.609375 1.03125 -1.609375 L 0.703125 -1.609375 Z M 0.703125 -0.421875 "/></g></g></g><g fill="#1775bb" fill-opacity="1"><g transform="translate(9.708885, 4.200266)"><g><path d="M 0.25 0 L 0.25 -2.03125 L 0.703125 -2.03125 L 0.703125 0 Z M 0.25 0 "/></g></g></g><g fill="#1775bb" fill-opacity="1"><g transform="translate(11.344651, 4.200266)"><g><path d="M 1.171875 0.046875 C 0.972656 0.046875 0.789062 0 0.625 -0.09375 C 0.46875 -0.1875 0.34375 -0.3125 0.25 -0.46875 C 0.164062 -0.625 0.125 -0.804688 0.125 -1.015625 C 0.125 -1.222656 0.164062 -1.40625 0.25 -1.5625 C 0.34375 -1.726562 0.46875 -1.851562 0.625 -1.9375 C 0.78125 -2.03125 0.960938 -2.078125 1.171875 -2.078125 C 1.347656 -2.078125 1.503906 -2.039062 1.640625 -1.96875 C 1.785156 -1.90625 1.90625 -1.8125 2 -1.6875 C 2.101562 -1.570312 2.175781 -1.429688 2.21875 -1.265625 L 1.734375 -1.265625 C 1.703125 -1.378906 1.632812 -1.46875 1.53125 -1.53125 C 1.4375 -1.601562 1.320312 -1.640625 1.1875 -1.640625 C 1.070312 -1.640625 0.96875 -1.613281 0.875 -1.5625 C 0.789062 -1.507812 0.722656 -1.4375 0.671875 -1.34375 C 0.617188 -1.25 0.59375 -1.140625 0.59375 -1.015625 C 0.59375 -0.890625 0.617188 -0.78125 0.671875 -0.6875 C 0.722656 -0.601562 0.789062 -0.53125 0.875 -0.46875 C 0.96875 -0.414062 1.070312 -0.390625 1.1875 -0.390625 C 1.320312 -0.390625 1.4375 -0.425781 1.53125 -0.5 C 1.632812 -0.570312 1.707031 -0.664062 1.75 -0.78125 L 2.234375 -0.78125 C 2.203125 -0.613281 2.132812 -0.46875 2.03125 -0.34375 C 1.9375 -0.21875 1.8125 -0.117188 1.65625 -0.046875 C 1.507812 0.015625 1.347656 0.046875 1.171875 0.046875 Z M 1.171875 0.046875 "/></g></g></g><g fill="#1775bb" fill-opacity="1"><g transform="translate(14.374567, 4.200266)"><g><path d="M 0.03125 0 L 0.828125 -2.03125 L 1.28125 -2.03125 L 2.09375 0 L 1.59375 0 L 1.46875 -0.359375 L 0.65625 -0.359375 L 0.515625 0 Z M 0.78125 -0.71875 L 1.34375 -0.71875 L 1.0625 -1.453125 Z M 0.78125 -0.71875 "/></g></g></g><g fill="#1775bb" fill-opacity="1"><g transform="translate(17.18084, 4.200266)"><g><path d="M 0.25 0 L 0.25 -2.03125 L 0.703125 -2.03125 L 0.703125 -0.4375 L 1.59375 -0.4375 L 1.59375 0 Z M 0.25 0 "/></g></g></g><g fill="#1775bb" fill-opacity="1"><g transform="translate(19.539822, 4.200266)"><g/></g></g><g fill="#1775bb" fill-opacity="1"><g transform="translate(20.908374, 4.200266)"><g><path d="M 0.25 0 L 0.25 -2.03125 L 1.15625 -2.03125 C 1.363281 -2.03125 1.523438 -1.976562 1.640625 -1.875 C 1.765625 -1.78125 1.828125 -1.648438 1.828125 -1.484375 C 1.828125 -1.390625 1.804688 -1.300781 1.765625 -1.21875 C 1.722656 -1.144531 1.664062 -1.085938 1.59375 -1.046875 C 1.6875 -1.003906 1.757812 -0.941406 1.8125 -0.859375 C 1.863281 -0.773438 1.890625 -0.675781 1.890625 -0.5625 C 1.890625 -0.445312 1.859375 -0.347656 1.796875 -0.265625 C 1.742188 -0.179688 1.664062 -0.113281 1.5625 -0.0625 C 1.457031 -0.0195312 1.335938 0 1.203125 0 Z M 0.703125 -0.359375 L 1.125 -0.359375 C 1.21875 -0.359375 1.289062 -0.378906 1.34375 -0.421875 C 1.394531 -0.472656 1.421875 -0.535156 1.421875 -0.609375 C 1.421875 -0.691406 1.394531 -0.753906 1.34375 -0.796875 C 1.289062 -0.835938 1.21875 -0.859375 1.125 -0.859375 L 0.703125 -0.859375 Z M 0.703125 -1.203125 L 1.078125 -1.203125 C 1.171875 -1.203125 1.238281 -1.222656 1.28125 -1.265625 C 1.332031 -1.304688 1.359375 -1.363281 1.359375 -1.4375 C 1.359375 -1.507812 1.332031 -1.566406 1.28125 -1.609375 C 1.238281 -1.648438 1.171875 -1.671875 1.078125 -1.671875 L 0.703125 -1.671875 Z M 0.703125 -1.203125 "/></g></g></g><g fill="#1775bb" fill-opacity="1"><g transform="translate(23.595564, 4.200266)"><g><path d="M 0.25 0 L 0.25 -2.03125 L 0.703125 -2.03125 L 0.703125 0 Z M 0.25 0 "/></g></g></g><g fill="#1775bb" fill-opacity="1"><g transform="translate(25.23133, 4.200266)"><g><path d="M 0.25 0 L 0.25 -2.03125 L 0.703125 -2.03125 L 0.703125 -0.4375 L 1.59375 -0.4375 L 1.59375 0 Z M 0.25 0 "/></g></g></g><g fill="#1775bb" fill-opacity="1"><g transform="translate(27.590312, 4.200266)"><g><path d="M 0.25 0 L 0.25 -2.03125 L 0.703125 -2.03125 L 0.703125 -0.4375 L 1.59375 -0.4375 L 1.59375 0 Z M 0.25 0 "/></g></g></g><g fill="#1775bb" fill-opacity="1"><g transform="translate(29.949295, 4.200266)"><g><path d="M 0.25 0 L 0.25 -2.03125 L 0.703125 -2.03125 L 0.703125 0 Z M 0.25 0 "/></g></g></g><g fill="#1775bb" fill-opacity="1"><g transform="translate(31.58506, 4.200266)"><g><path d="M 0.25 0 L 0.25 -2.03125 L 0.640625 -2.03125 L 1.53125 -0.796875 L 1.53125 -2.03125 L 2 -2.03125 L 2 0 L 1.59375 0 L 0.703125 -1.25 L 0.703125 0 Z M 0.25 0 "/></g></g></g><g fill="#1775bb" fill-opacity="1"><g transform="translate(34.507513, 4.200266)"><g><path d="M 1.1875 0.046875 C 0.976562 0.046875 0.789062 0 0.625 -0.09375 C 0.46875 -0.1875 0.34375 -0.3125 0.25 -0.46875 C 0.164062 -0.625 0.125 -0.804688 0.125 -1.015625 C 0.125 -1.222656 0.164062 -1.40625 0.25 -1.5625 C 0.34375 -1.726562 0.46875 -1.851562 0.625 -1.9375 C 0.789062 -2.03125 0.976562 -2.078125 1.1875 -2.078125 C 1.351562 -2.078125 1.503906 -2.046875 1.640625 -1.984375 C 1.773438 -1.929688 1.890625 -1.847656 1.984375 -1.734375 C 2.085938 -1.628906 2.160156 -1.507812 2.203125 -1.375 L 1.703125 -1.375 C 1.660156 -1.457031 1.59375 -1.523438 1.5 -1.578125 C 1.40625 -1.628906 1.300781 -1.65625 1.1875 -1.65625 C 1.070312 -1.65625 0.96875 -1.625 0.875 -1.5625 C 0.78125 -1.507812 0.707031 -1.4375 0.65625 -1.34375 C 0.613281 -1.25 0.59375 -1.140625 0.59375 -1.015625 C 0.59375 -0.890625 0.613281 -0.78125 0.65625 -0.6875 C 0.707031 -0.59375 0.78125 -0.519531 0.875 -0.46875 C 0.96875 -0.414062 1.078125 -0.390625 1.203125 -0.390625 C 1.347656 -0.390625 1.46875 -0.425781 1.5625 -0.5 C 1.664062 -0.570312 1.734375 -0.671875 1.765625 -0.796875 L 1.09375 -0.796875 L 1.09375 -1.15625 L 2.25 -1.15625 C 2.257812 -0.976562 2.238281 -0.816406 2.1875 -0.671875 C 2.144531 -0.523438 2.078125 -0.398438 1.984375 -0.296875 C 1.890625 -0.191406 1.773438 -0.109375 1.640625 -0.046875 C 1.503906 0.015625 1.351562 0.046875 1.1875 0.046875 Z M 1.1875 0.046875 "/></g></g></g></g></g><g transform="matrix(1, 0, 0, 1, 38, 6)"><g clip-path="url(#5324e678d1)"><g clip-path="url(#5799ef3065)"><g fill="#000000" fill-opacity="1"><g transform="translate(0.870017, 7.887368)"><g><path d="M 1.453125 0 L -0.078125 0 L 2 -5.484375 L 3.5625 -5.484375 L 5.640625 0 L 4.109375 0 L 3.75 -0.984375 L 1.796875 -0.984375 Z M 2.15625 -2 L 3.40625 -2 L 2.78125 -3.828125 Z M 2.15625 -2 "/></g></g></g></g><g fill="#000000" fill-opacity="1"><g transform="translate(7.024322, 7.887368)"><g><path d="M 3.515625 -5.484375 C 4.109375 -5.484375 4.554688 -5.328125 4.859375 -5.015625 C 5.171875 -4.710938 5.328125 -4.265625 5.328125 -3.671875 L 5.328125 -1.796875 C 5.328125 -1.210938 5.171875 -0.765625 4.859375 -0.453125 C 4.554688 -0.148438 4.109375 0 3.515625 0 L 0.46875 0 L 0.46875 -5.484375 Z M 3.921875 -3.671875 C 3.921875 -4.148438 3.679688 -4.390625 3.203125 -4.390625 L 1.875 -4.390625 L 1.875 -1.09375 L 3.203125 -1.09375 C 3.679688 -1.09375 3.921875 -1.328125 3.921875 -1.796875 Z M 3.921875 -3.671875 "/></g></g></g><g fill="#000000" fill-opacity="1"><g transform="translate(13.256926, 7.887368)"><g><path d="M 2.78125 -1.640625 L 4.109375 -5.484375 L 5.640625 -5.484375 L 3.5625 0 L 2 0 L -0.078125 -5.484375 L 1.453125 -5.484375 Z M 2.78125 -1.640625 "/></g></g></g><g fill="#000000" fill-opacity="1"><g transform="translate(19.411231, 7.887368)"><g><path d="M 1.453125 0 L -0.078125 0 L 2 -5.484375 L 3.5625 -5.484375 L 5.640625 0 L 4.109375 0 L 3.75 -0.984375 L 1.796875 -0.984375 Z M 2.15625 -2 L 3.40625 -2 L 2.78125 -3.828125 Z M 2.15625 -2 "/></g></g></g><g fill="#000000" fill-opacity="1"><g transform="translate(25.565537, 7.887368)"><g><path d="M 5.25 0 L 3.75 0 L 1.875 -3.28125 L 1.875 0 L 0.46875 0 L 0.46875 -5.484375 L 1.953125 -5.484375 L 3.828125 -2.1875 L 3.828125 -5.484375 L 5.25 -5.484375 Z M 5.25 0 "/></g></g></g><g fill="#000000" fill-opacity="1"><g transform="translate(31.876437, 7.887368)"><g><path d="M 4.703125 -0.078125 C 3.535156 0.0234375 2.566406 0.078125 1.796875 0.078125 C 1.285156 0.078125 0.910156 -0.0390625 0.671875 -0.28125 C 0.429688 -0.519531 0.3125 -0.894531 0.3125 -1.40625 L 0.3125 -3.921875 C 0.3125 -4.460938 0.4375 -4.859375 0.6875 -5.109375 C 0.9375 -5.359375 1.332031 -5.484375 1.875 -5.484375 L 4.703125 -5.484375 L 4.703125 -4.390625 L 2.1875 -4.390625 C 1.875 -4.390625 1.71875 -4.234375 1.71875 -3.921875 L 1.71875 -1.40625 C 1.71875 -1.289062 1.753906 -1.195312 1.828125 -1.125 C 1.898438 -1.050781 1.988281 -1.015625 2.09375 -1.015625 C 2.207031 -1.015625 2.328125 -1.015625 2.453125 -1.015625 C 2.585938 -1.023438 2.722656 -1.03125 2.859375 -1.03125 C 3.003906 -1.039062 3.144531 -1.046875 3.28125 -1.046875 C 3.425781 -1.054688 3.613281 -1.066406 3.84375 -1.078125 C 4.070312 -1.097656 4.359375 -1.117188 4.703125 -1.140625 Z M 4.703125 -0.078125 "/></g></g></g><g fill="#000000" fill-opacity="1"><g transform="translate(37.326058, 7.887368)"><g><path d="M 4.8125 0 L 0.46875 0 L 0.46875 -5.484375 L 4.8125 -5.484375 L 4.8125 -4.390625 L 1.875 -4.390625 L 1.875 -3.328125 L 4.1875 -3.328125 L 4.1875 -2.234375 L 1.875 -2.234375 L 1.875 -1.09375 L 4.8125 -1.09375 Z M 4.8125 0 "/></g></g></g><g fill="#000000" fill-opacity="1"><g transform="translate(42.893129, 7.887368)"><g><path d="M 3.515625 -5.484375 C 4.109375 -5.484375 4.554688 -5.328125 4.859375 -5.015625 C 5.171875 -4.710938 5.328125 -4.265625 5.328125 -3.671875 L 5.328125 -1.796875 C 5.328125 -1.210938 5.171875 -0.765625 4.859375 -0.453125 C 4.554688 -0.148438 4.109375 0 3.515625 0 L 0.46875 0 L 0.46875 -5.484375 Z M 3.921875 -3.671875 C 3.921875 -4.148438 3.679688 -4.390625 3.203125 -4.390625 L 1.875 -4.390625 L 1.875 -1.09375 L 3.203125 -1.09375 C 3.679688 -1.09375 3.921875 -1.328125 3.921875 -1.796875 Z M 3.921875 -3.671875 "/></g></g></g></g></g></svg>