<?xml version="1.0" encoding="UTF-8"?>
<svg version="1.1" xmlns="http://www.w3.org/2000/svg" width="466" height="536">
<path d="M0 0 C1.53303598 -0.00015569 3.06607232 -0.00165622 4.59910583 -0.00440979 C7.78329264 -0.00577992 10.96702143 0.00652884 14.15112305 0.02954102 C18.18727106 0.05794595 22.22266205 0.05516288 26.25886631 0.0424509 C29.4154838 0.03542348 32.57193302 0.04336209 35.72852898 0.05570793 C37.21493823 0.06015254 38.701366 0.06062219 40.18777657 0.05664253 C59.07832329 0.02971696 77.16320053 3.56234157 92.43359375 15.49609375 C92.43359375 16.15609375 92.43359375 16.81609375 92.43359375 17.49609375 C93.03171875 17.76421875 93.62984375 18.03234375 94.24609375 18.30859375 C96.43207229 19.49526781 97.84691969 20.59208488 99.43359375 22.49609375 C99.43359375 23.15609375 99.43359375 23.81609375 99.43359375 24.49609375 C100.09359375 24.49609375 100.75359375 24.49609375 101.43359375 24.49609375 C101.43359375 25.15609375 101.43359375 25.81609375 101.43359375 26.49609375 C102.09359375 26.49609375 102.75359375 26.49609375 103.43359375 26.49609375 C117.61664371 45.68072304 117.75044396 68.85366125 117.62890625 91.62109375 C117.62516646 93.70572777 117.62232406 95.79036358 117.62033081 97.875 C117.61277036 103.30656974 117.59318896 108.73802897 117.57092285 114.16955566 C117.550299 119.73411566 117.54129407 125.29869388 117.53125 130.86328125 C117.50993435 141.74093342 117.4758925 152.61850432 117.43359375 163.49609375 C119.3910553 163.49823128 119.3910553 163.49823128 121.38806152 163.50041199 C133.74480809 163.51715199 146.10122829 163.56013866 158.45780182 163.62818432 C164.80899182 163.66233305 171.15994435 163.68754544 177.51123047 163.69165039 C183.65174868 163.69595932 189.79173229 163.72463647 195.93208313 163.76952553 C198.26333999 163.78241791 200.5946611 163.78683788 202.9259491 163.78224754 C221.91300643 163.75359528 236.96973923 165.42073324 252.43359375 177.49609375 C252.9764502 177.91697266 253.51930664 178.33785156 254.07861328 178.77148438 C269.61946449 190.94745383 278.92947834 204.59502826 281.43359375 224.49609375 C281.71339878 230.04977545 281.71598216 235.59280218 281.69921875 241.15234375 C281.70056974 242.74694884 281.70251386 244.34155353 281.70501709 245.93615723 C281.70794798 249.26102664 281.70373681 252.58578781 281.69433594 255.91064453 C281.68294263 260.14336008 281.68951309 264.37582186 281.70148087 268.60852814 C281.7087548 271.89619817 281.70638631 275.18380939 281.70122528 278.47148132 C281.69990404 280.03098074 281.70148212 281.59048575 281.70618439 283.14997864 C281.75677447 304.63613465 277.14250235 322.19190278 262.12109375 338.18359375 C257.60698299 342.4622747 252.59248873 346.0404083 247.43359375 349.49609375 C246.60214844 350.05683594 245.77070313 350.61757813 244.9140625 351.1953125 C229.7029933 360.47149448 211.7784807 360.05793516 194.58203125 359.88671875 C192.34331778 359.87923798 190.10459766 359.87355376 187.86587524 359.86956787 C182.03634861 359.85445595 176.20723469 359.81530225 170.37786865 359.77075195 C164.40431294 359.72948387 158.4306891 359.71149017 152.45703125 359.69140625 C140.78237295 359.64879107 129.10801796 359.58071953 117.43359375 359.49609375 C117.4424762 360.70893036 117.45135864 361.92176697 117.46051025 363.1713562 C117.54205406 374.67372155 117.60177716 386.17602727 117.64084244 397.67861748 C117.66160231 403.59039352 117.68970501 409.5019338 117.73535156 415.41357422 C117.77922676 421.13244018 117.80281775 426.85108124 117.81310272 432.57010269 C117.82042003 434.73789122 117.83470577 436.90566926 117.85651398 439.07336044 C118.08403232 462.65385624 114.98896531 484.50062376 98.43359375 502.49609375 C82.79582771 518.17766305 64.53366713 522.58879241 43.02346802 522.66069031 C41.55861446 522.66221938 40.09376042 522.66333313 38.62890625 522.6640625 C37.09870372 522.66728328 35.56850148 522.67064794 34.03829956 522.67414856 C30.84274584 522.68010823 27.64721904 522.68199168 24.45166016 522.68139648 C20.38481118 522.68129493 16.31813703 522.69495453 12.25132942 522.71216869 C9.09405749 522.72336065 5.93682692 522.72531351 2.7795372 522.72478676 C1.28143587 522.72595577 -0.21666692 522.73031585 -1.71474838 522.73811913 C-23.79103121 522.84237316 -41.61002055 517.91433196 -57.734375 502.35546875 C-67.64561067 492.49400494 -73.01991648 481.93920699 -76.56640625 468.49609375 C-76.73909531 467.89254059 -76.91178436 467.28898743 -77.08970642 466.66714478 C-77.61984031 464.25273712 -77.72701649 462.03950331 -77.77172852 459.56787109 C-77.80164635 458.08778816 -77.80164635 458.08778816 -77.83216858 456.57780457 C-77.84888107 455.50669937 -77.86559357 454.43559418 -77.8828125 453.33203125 C-77.91398415 451.64470634 -77.91398415 451.64470634 -77.94578552 449.92329407 C-78.01189866 446.23929594 -78.07064457 442.55522377 -78.12890625 438.87109375 C-78.17249817 436.33959913 -78.21611813 433.80810499 -78.25976562 431.27661133 C-78.5474949 413.801756 -78.65499995 396.33179577 -78.52954102 378.85498047 C-78.52527603 378.03200974 -78.52101105 377.209039 -78.51661682 376.36112976 C-78.50842183 374.8438566 -78.49607163 373.32659742 -78.47862244 371.80940247 C-78.46354299 368.74547891 -78.58857844 366.42957719 -79.56640625 363.49609375 C-82.57226157 361.97038532 -82.57226157 361.97038532 -86.19140625 360.62109375 C-91.53389782 358.46023824 -96.16893504 356.26535479 -100.56640625 352.49609375 C-100.56640625 351.83609375 -100.56640625 351.17609375 -100.56640625 350.49609375 C-101.16453125 350.24601562 -101.76265625 349.9959375 -102.37890625 349.73828125 C-109.31199084 345.80127965 -113.73598386 335.02898155 -117.75390625 328.37109375 C-118.26501953 327.52434082 -118.77613281 326.67758789 -119.30273438 325.80517578 C-121.47588229 322.1626674 -123.59218481 318.53527001 -125.4375 314.71484375 C-128.39869223 308.6465653 -131.98007023 302.91269306 -135.44140625 297.12109375 C-136.14348106 295.94155614 -136.84530546 294.76186946 -137.546875 293.58203125 C-141.10450865 287.60338147 -144.67897138 281.63503762 -148.27709961 275.68066406 C-150.17856519 272.4588663 -151.95532759 269.1733461 -153.734375 265.8828125 C-156.16381564 261.39171434 -158.61215163 256.911172 -161.06640625 252.43359375 C-161.5469043 251.55461426 -162.02740234 250.67563477 -162.52246094 249.77001953 C-164.90548523 245.43167229 -167.34369383 241.17255956 -170.00390625 236.99609375 C-176.7597974 225.98360066 -179.59463108 211.85458767 -176.84765625 199.1796875 C-175.88375082 195.88763953 -174.78978051 192.7003621 -173.56640625 189.49609375 C-173.23898438 188.63113281 -172.9115625 187.76617187 -172.57421875 186.875 C-167.19064288 174.59494556 -156.10735496 164.25033408 -143.6875 159.36328125 C-140.2357354 158.40421774 -137.01306392 158.00837531 -133.44140625 157.74609375 C-132.24257812 157.648125 -131.04375 157.55015625 -129.80859375 157.44921875 C-126.64392014 157.49497307 -125.13193742 157.71481263 -122.56640625 159.49609375 C-120.00390791 163.72421601 -119.98122786 168.68558316 -120.56640625 173.49609375 C-121.93348107 177.1226519 -123.49816094 178.34151613 -126.91796875 180.07421875 C-127.76875 180.5125 -128.61953125 180.95078125 -129.49609375 181.40234375 C-130.38554687 181.84578125 -131.275 182.28921875 -132.19140625 182.74609375 C-133.08859375 183.205 -133.98578125 183.66390625 -134.91015625 184.13671875 C-137.12380069 185.26709038 -139.34239068 186.38630554 -141.56640625 187.49609375 C-141.52515625 188.52734375 -141.48390625 189.55859375 -141.44140625 190.62109375 C-141.56384729 194.416766 -142.3436439 196.94492954 -143.56640625 200.49609375 C-144.65157612 211.85514463 -142.51167609 218.94530718 -136.15625 228.11328125 C-133.99335964 231.35495968 -132.18465455 234.74140511 -130.35546875 238.1796875 C-128.92162823 240.83761457 -127.45641819 243.46825822 -125.96484375 246.09375 C-125.50819336 246.90142822 -125.05154297 247.70910645 -124.58105469 248.54125977 C-123.66453477 250.1603054 -122.74340559 251.77675162 -121.81738281 253.39038086 C-121.39682617 254.13682861 -120.97626953 254.88327637 -120.54296875 255.65234375 C-120.16221191 256.32072266 -119.78145508 256.98910156 -119.38916016 257.67773438 C-118.56640625 259.49609375 -118.56640625 259.49609375 -118.56640625 262.49609375 C-117.90640625 262.49609375 -117.24640625 262.49609375 -116.56640625 262.49609375 C-116.22609375 263.13933594 -115.88578125 263.78257812 -115.53515625 264.4453125 C-112.69861105 269.73365873 -109.73910387 274.90147354 -106.56640625 279.99609375 C-103.62420139 284.72582685 -100.8887674 289.50840242 -98.26171875 294.41796875 C-95.69559018 299.07720679 -92.96761738 303.63900357 -90.24975586 308.2109375 C-87.80553305 312.33727083 -85.47718352 316.4948659 -83.25390625 320.74609375 C-81.14573373 324.6604253 -78.99775769 327.59264253 -75.56640625 330.49609375 C-74.32890625 331.57890625 -74.32890625 331.57890625 -73.06640625 332.68359375 C-66.9970792 337.08385586 -60.85067034 337.29811765 -53.56640625 336.49609375 C-51.24784219 335.68016595 -49.29046182 334.73052709 -47.1875 333.46875 C-45.56640625 332.49609375 -45.56640625 332.49609375 -42.56640625 331.49609375 C-42.56640625 330.83609375 -42.56640625 330.17609375 -42.56640625 329.49609375 C-41.90640625 329.49609375 -41.24640625 329.49609375 -40.56640625 329.49609375 C-40.29562256 328.77639404 -40.02483887 328.05669434 -39.74584961 327.31518555 C-38.5756375 324.51815819 -37.22588008 322.00606552 -35.6953125 319.390625 C-34.84187256 317.92882812 -34.84187256 317.92882812 -33.97119141 316.4375 C-33.3632373 315.40496094 -32.7552832 314.37242187 -32.12890625 313.30859375 C-31.50290527 312.23867188 -30.8769043 311.16875 -30.23193359 310.06640625 C-26.46845261 303.65575535 -22.61675526 297.30846985 -18.69140625 290.99609375 C-15.0263812 285.08867362 -11.78235792 279.10994067 -8.77954102 272.84301758 C-5.23636684 265.57360373 -1.04559345 258.68792974 3.13037109 251.76855469 C3.94368896 250.41745605 3.94368896 250.41745605 4.7734375 249.0390625 C5.26191162 248.2349292 5.75038574 247.4307959 6.25366211 246.60229492 C7.56394753 244.41800267 7.56394753 244.41800267 8.43359375 241.49609375 C9.09359375 241.49609375 9.75359375 241.49609375 10.43359375 241.49609375 C10.52898437 240.78195313 10.624375 240.0678125 10.72265625 239.33203125 C11.54785791 236.04029274 12.90596483 233.92285532 14.80859375 231.12109375 C20.73929299 222.07920802 23.13060778 214.35208728 22.43359375 203.49609375 C21.4448421 199.38897149 20.01797937 196.78531181 17.43359375 193.49609375 C17.43359375 192.83609375 17.43359375 192.17609375 17.43359375 191.49609375 C16.77359375 191.49609375 16.11359375 191.49609375 15.43359375 191.49609375 C13.80859375 190.12109375 13.80859375 190.12109375 12.43359375 188.49609375 C12.43359375 187.83609375 12.43359375 187.17609375 12.43359375 186.49609375 C11.57121094 186.21636719 10.70882812 185.93664062 9.8203125 185.6484375 C6.58062741 184.5461225 3.41553873 183.34806376 0.24609375 182.05859375 C-0.77871094 181.64738281 -1.80351562 181.23617187 -2.859375 180.8125 C-5.39255128 179.58063794 -6.87695991 178.71904946 -8.56640625 176.49609375 C-9.97427101 170.32314828 -9.66064995 164.51170194 -7.56640625 158.49609375 C-5.8609854 156.25147151 -4.95660671 155.56912064 -2.15307617 155.04443359 C14.68901523 154.52905034 26.27756184 155.20664415 39.43359375 166.49609375 C43.43359375 171.90149916 43.43359375 171.90149916 43.43359375 174.49609375 C44.09359375 174.49609375 44.75359375 174.49609375 45.43359375 174.49609375 C47.73008024 177.05755945 48.43359375 177.97576947 48.43359375 181.49609375 C49.09359375 181.49609375 49.75359375 181.49609375 50.43359375 181.49609375 C56.20316852 194.46166952 58.91866049 207.61107463 54.43359375 221.49609375 C50.00815964 232.70098025 43.96113452 243.06919846 37.73339844 253.34472656 C35.52259483 257.00393042 33.35375471 260.68769437 31.18359375 264.37109375 C30.79574707 265.02400391 30.40790039 265.67691406 30.00830078 266.34960938 C27.77373084 270.13162609 25.6321377 273.95199204 23.54296875 277.81640625 C19.9713125 284.40157642 16.13332179 290.81768867 12.2890625 297.24609375 C8.51683851 303.58415029 4.92641892 310.00020768 1.43359375 316.49609375 C-12.47888016 342.35015621 -12.47888016 342.35015621 -23.56640625 350.49609375 C-24.22640625 350.49609375 -24.88640625 350.49609375 -25.56640625 350.49609375 C-25.56640625 351.15609375 -25.56640625 351.81609375 -25.56640625 352.49609375 C-28.022108 353.83448108 -30.48070541 355.16695607 -32.94140625 356.49609375 C-33.64007813 356.87765625 -34.33875 357.25921875 -35.05859375 357.65234375 C-40.33984375 360.49609375 -40.33984375 360.49609375 -42.56640625 360.49609375 C-42.45860085 361.71388016 -42.45860085 361.71388016 -42.34861755 362.95626831 C-41.63604447 371.76879291 -41.45370908 380.4788966 -41.52180672 389.31402969 C-41.53956266 391.69600288 -41.54960818 394.07790584 -41.557724 396.45993042 C-41.5818679 403.22123829 -41.6176852 409.98244977 -41.66235352 416.74365234 C-41.68934594 420.90950789 -41.70624657 425.07531065 -41.71722221 429.24123764 C-41.72336331 430.81109458 -41.73327965 432.38094211 -41.7473011 433.95074844 C-41.91213324 452.55192448 -39.73531321 468.40048593 -26.56640625 482.49609375 C-18.1750729 490.98351107 -10.31409059 493.43200272 1.5078125 494.04296875 C2.29355148 494.08460144 3.07929047 494.12623413 3.88883972 494.16912842 C12.17067499 494.57748186 20.4488858 494.71686353 28.73999023 494.73632812 C31.26252757 494.74615779 33.78428813 494.77740848 36.30664062 494.80859375 C48.15042723 494.88633309 59.98797376 494.71250741 69.9453125 487.484375 C71.43359375 486.49609375 71.43359375 486.49609375 73.43359375 486.49609375 C73.43359375 485.83609375 73.43359375 485.17609375 73.43359375 484.49609375 C75.80859375 481.87109375 75.80859375 481.87109375 78.43359375 479.49609375 C79.09359375 479.49609375 79.75359375 479.49609375 80.43359375 479.49609375 C80.62308594 478.614375 80.62308594 478.614375 80.81640625 477.71484375 C81.43359375 475.49609375 81.43359375 475.49609375 83.30859375 471.99609375 C89.17128501 460.21989278 88.85200012 448.29142412 88.8137188 435.42724037 C88.8045273 432.05052017 88.81492238 428.67434561 88.83033752 425.2976532 C88.87022612 415.70584842 88.87163691 406.11409082 88.86938477 396.5222168 C88.86933358 390.63384245 88.88853799 384.745766 88.91871834 378.85747337 C88.92949979 375.54209695 88.91744307 372.22729898 88.90489197 368.91194153 C88.91379916 366.86877886 88.92387451 364.82562083 88.93530273 362.7824707 C88.92555923 361.87055466 88.91581573 360.95863861 88.90577698 360.01908875 C89.00085247 351.46499349 91.85900141 344.39761585 97.66015625 338.06640625 C104.9096674 331.64723558 112.19221053 330.33044311 121.61328125 330.43359375 C123.31843989 330.44230897 125.02359946 330.4508447 126.72875977 330.45922852 C127.63554474 330.4654422 128.54232971 330.47165588 129.47659302 330.47805786 C148.6541194 330.60019192 167.82170558 330.40074754 186.99609375 330.05859375 C188.18708679 330.03885498 189.37807983 330.01911621 190.60516357 329.9987793 C194.02854431 329.94129418 197.45176292 329.87793419 200.875 329.8125 C202.38509895 329.78743126 202.38509895 329.78743126 203.92570496 329.76185608 C217.84450052 329.64237178 217.84450052 329.64237178 230.80859375 325.24609375 C232.52175781 324.37210937 232.52175781 324.37210937 234.26953125 323.48046875 C242.9134115 318.05936854 248.19970378 309.73809764 250.890625 300.05078125 C252.42032923 292.85346784 252.60821806 285.90490589 252.63671875 278.5625 C252.64241882 277.41176498 252.6481189 276.26102997 252.6539917 275.07542419 C252.66341626 272.64217032 252.66996554 270.20890383 252.67382812 267.77563477 C252.68347934 264.10214118 252.71450556 260.4292206 252.74609375 256.75585938 C252.82797408 238.9112548 252.74593018 222.78679949 242.43359375 207.49609375 C242.43359375 206.83609375 242.43359375 206.17609375 242.43359375 205.49609375 C241.77359375 205.49609375 241.11359375 205.49609375 240.43359375 205.49609375 C239.93859375 204.93921875 239.44359375 204.38234375 238.93359375 203.80859375 C228.97659557 194.59837043 215.95748081 194.15850848 203.12109375 193.87109375 C202.39746643 193.85108307 201.67383911 193.83107239 200.92828369 193.81045532 C189.47575321 193.49590221 178.02819859 193.48816342 166.57263374 193.56361389 C164.28467029 193.57815291 161.99670611 193.59028923 159.70872498 193.60168457 C158.16885353 193.60957427 156.62898231 193.61750899 155.08911133 193.62548828 C154.323175 193.62941463 153.55723867 193.63334099 152.76809216 193.63738632 C148.15275042 193.66334328 143.53811648 193.70957829 138.92310429 193.76997471 C135.98695412 193.80440372 133.05085381 193.82209903 130.11454201 193.83603477 C128.73888701 193.8462308 127.3632627 193.86353254 125.98779869 193.88862038 C115.49169384 194.07563291 106.4271489 193.01703481 98.49609375 185.55859375 C97.78582031 184.91019531 97.07554687 184.26179687 96.34375 183.59375 C89.73130243 176.33222783 89.13768568 168.54275549 89.1940918 159.17724609 C89.19207764 158.16322723 89.19006348 157.14920837 89.18798828 156.10446167 C89.18445331 153.91049853 89.18519683 151.71652517 89.18976402 149.52256393 C89.19537996 146.04020292 89.18615974 142.55817221 89.17256165 139.07583618 C89.13553722 129.17733295 89.1168597 119.27894172 89.12817383 109.38037109 C89.13405328 103.31613467 89.11562527 97.2523627 89.08228493 91.18822098 C89.07437392 88.88795902 89.07554894 86.58764587 89.08630943 84.28739548 C89.14691453 70.74549721 89.0568032 59.63313292 81.76811218 47.78988647 C80.43359375 45.49609375 80.43359375 45.49609375 80.43359375 43.49609375 C79.79421875 43.22796875 79.15484375 42.95984375 78.49609375 42.68359375 C76.43359375 41.49609375 76.43359375 41.49609375 75.43359375 38.49609375 C74.77359375 38.49609375 74.11359375 38.49609375 73.43359375 38.49609375 C73.43359375 37.83609375 73.43359375 37.17609375 73.43359375 36.49609375 C72.87027344 36.38265625 72.30695313 36.26921875 71.7265625 36.15234375 C68.32482899 35.17876414 65.43165318 33.38207156 62.359375 31.65234375 C55.10101854 28.78388779 46.76747888 29.33663133 39.07421875 29.328125 C38.00798279 29.3247966 36.94174683 29.3214682 35.84320068 29.31803894 C33.59761991 29.31300074 31.35203173 29.31062965 29.10644531 29.31079102 C25.707554 29.30860913 22.30899011 29.29043241 18.91015625 29.27148438 C3.0679077 29.19902898 3.0679077 29.19902898 -12.56640625 31.49609375 C-13.83097656 31.7796875 -15.09554687 32.06328125 -16.3984375 32.35546875 C-22.49291539 34.17662335 -27.23897614 36.13788869 -32.078125 40.32421875 C-33.56640625 41.49609375 -33.56640625 41.49609375 -35.56640625 41.49609375 C-35.56640625 42.15609375 -35.56640625 42.81609375 -35.56640625 43.49609375 C-36.22640625 43.49609375 -36.88640625 43.49609375 -37.56640625 43.49609375 C-37.83453125 44.03878906 -38.10265625 44.58148438 -38.37890625 45.140625 C-39.23358265 46.83592062 -40.11147722 48.51958299 -41.00390625 50.1953125 C-41.51953125 51.18144531 -42.03515625 52.16757812 -42.56640625 53.18359375 C-43.33984375 54.64345703 -43.33984375 54.64345703 -44.12890625 56.1328125 C-47.08740887 63.0547439 -47.86435091 69.9439894 -47.88525391 77.41235352 C-47.89529953 78.25247482 -47.90534515 79.09259613 -47.91569519 79.95817566 C-47.9462842 82.70127758 -47.96349401 85.44428303 -47.98046875 88.1875 C-47.99919999 90.10278642 -48.01877483 92.01806476 -48.03915405 93.93333435 C-48.09027471 98.94897679 -48.13000731 103.96464593 -48.16729736 108.98040771 C-48.20746342 114.10874934 -48.25849802 119.23698184 -48.30859375 124.36523438 C-48.40511524 134.40878477 -48.4885897 144.45238099 -48.56640625 154.49609375 C-58.46640625 154.49609375 -68.36640625 154.49609375 -78.56640625 154.49609375 C-78.61173438 142.96880268 -78.64836676 131.44157159 -78.67003059 119.91421127 C-78.6804323 114.56061215 -78.69452498 109.2070776 -78.71728516 103.85351562 C-78.73914304 98.67933779 -78.751002 93.50522175 -78.75616074 88.33100128 C-78.75983338 86.36482013 -78.76700461 84.39864206 -78.77786636 82.43248749 C-78.88292788 62.61201068 -76.84949254 45.42072319 -65.56640625 28.49609375 C-64.90640625 28.49609375 -64.24640625 28.49609375 -63.56640625 28.49609375 C-63.33953125 27.93921875 -63.11265625 27.38234375 -62.87890625 26.80859375 C-61.17186095 23.80094251 -59.09855539 21.86310273 -56.56640625 19.49609375 C-56.05722656 18.97015625 -55.54804687 18.44421875 -55.0234375 17.90234375 C-50.82151687 13.82100803 -46.23103028 10.98545337 -41.06640625 8.30859375 C-40.46916748 7.98785889 -39.87192871 7.66712402 -39.2565918 7.33666992 C-26.84171657 1.18401082 -13.61643125 -0.11546392 0 0 Z " fill="#DF6426" transform="translate(181.56640625,5.50390625)"/>
<path d="M0 0 C3.41944463 2.66075535 5.36330905 5.18768359 7.5 8.9453125 C7.5 9.6053125 7.5 10.2653125 7.5 10.9453125 C8.16 10.9453125 8.82 10.9453125 9.5 10.9453125 C11.79648649 13.5067782 12.5 14.42498822 12.5 17.9453125 C13.16 17.9453125 13.82 17.9453125 14.5 17.9453125 C20.26957477 30.91088827 22.98506674 44.06029338 18.5 57.9453125 C14.07456589 69.150199 8.02754077 79.51841721 1.79980469 89.79394531 C-0.41099892 93.45314917 -2.57983904 97.13691312 -4.75 100.8203125 C-5.13784668 101.47322266 -5.52569336 102.12613281 -5.92529297 102.79882812 C-8.15986291 106.58084484 -10.30145605 110.40121079 -12.390625 114.265625 C-15.96228125 120.85079517 -19.80027196 127.26690742 -23.64453125 133.6953125 C-27.41675524 140.03336904 -31.00717483 146.44942643 -34.5 152.9453125 C-48.41247391 178.79937496 -48.41247391 178.79937496 -59.5 186.9453125 C-60.16 186.9453125 -60.82 186.9453125 -61.5 186.9453125 C-61.5 187.6053125 -61.5 188.2653125 -61.5 188.9453125 C-62.82 188.9453125 -64.14 188.9453125 -65.5 188.9453125 C-65.37300982 182.976774 -63.43300875 180.25397207 -59.67578125 175.7421875 C-56.9420482 172.228089 -54.59788166 168.5367511 -52.25 164.7578125 C-51.825979 164.08049072 -51.40195801 163.40316895 -50.96508789 162.70532227 C-48.59653328 158.87456929 -46.44821258 155.01252252 -44.5 150.9453125 C-43.84 150.9453125 -43.18 150.9453125 -42.5 150.9453125 C-42.42394531 150.28015625 -42.34789062 149.615 -42.26953125 148.9296875 C-41.23563869 144.92007373 -39.28228735 141.74181293 -37.1875 138.1953125 C-33.9303812 132.55984722 -30.9771473 126.97662766 -28.5 120.9453125 C-27.84 120.9453125 -27.18 120.9453125 -26.5 120.9453125 C-26.41363281 120.33945312 -26.32726562 119.73359375 -26.23828125 119.109375 C-25.10563053 112.35503586 -22.82547318 106.910856 -19.5 100.9453125 C-18.84 100.9453125 -18.18 100.9453125 -17.5 100.9453125 C-17.273125 100.2234375 -17.04625 99.5015625 -16.8125 98.7578125 C-15.23073192 95.36830947 -13.2009863 93.52067153 -10.5 90.9453125 C-7.31425356 87.51380848 -5.16966156 84.3281741 -3.5 79.9453125 C-2.32091126 77.93223416 -1.07829592 75.96987292 0.18359375 74.0078125 C0.61800781 73.3271875 1.05242187 72.6465625 1.5 71.9453125 C2.01304687 71.14351563 2.52609375 70.34171875 3.0546875 69.515625 C9.02815695 58.89253608 9.21986468 43.95448625 6.703125 32.234375 C5.43689314 28.28957574 4.05339818 24.83550432 1.86328125 21.3125 C0.5 18.9453125 0.5 18.9453125 0.5 15.9453125 C-0.056875 15.7390625 -0.61375 15.5328125 -1.1875 15.3203125 C-3.5 13.9453125 -3.5 13.9453125 -5.7421875 11.11328125 C-12.95698433 2.27883615 -25.95497047 -1.7213043 -36.5 -5.0546875 C-36.5 -5.3846875 -36.5 -5.7146875 -36.5 -6.0546875 C-23.26535516 -9.21784353 -11.19361581 -7.43131716 0 0 Z " fill="#F58F5C" transform="translate(217.5,169.0546875)"/>
<path d="M0 0 C0.15516656 3.25849786 0.10017122 5.71492774 -0.98828125 8.8125 C-3.2267552 15.86498936 -3.07317055 24.30669627 -0.04296875 31.12109375 C1.59790526 34.0771252 3.48506101 36.84015524 5.41015625 39.6171875 C7.57304661 42.85886593 9.3817517 46.24531136 11.2109375 49.68359375 C12.64477802 52.34152082 14.10998806 54.97216447 15.6015625 57.59765625 C16.05821289 58.40533447 16.51486328 59.2130127 16.98535156 60.04516602 C17.90187148 61.66421165 18.82300066 63.28065787 19.74902344 64.89428711 C20.3798584 66.01395874 20.3798584 66.01395874 21.0234375 67.15625 C21.40419434 67.82462891 21.78495117 68.49300781 22.17724609 69.18164062 C23 71 23 71 23 74 C23.66 74 24.32 74 25 74 C25.3403125 74.64324219 25.680625 75.28648437 26.03125 75.94921875 C28.8677952 81.23756498 31.82730238 86.40537979 35 91.5 C37.94220486 96.2297331 40.67763885 101.01230867 43.3046875 105.921875 C45.87081607 110.58111304 48.59878887 115.14290982 51.31665039 119.71484375 C53.7608732 123.84117708 56.08922273 127.99877215 58.3125 132.25 C60.41614339 136.1728505 62.65658036 139.00851927 66 142 C66.680625 142.886875 67.36125 143.77375 68.0625 144.6875 C71.0257495 148.22428166 73.05554493 148.89349762 77.671875 149.4140625 C79.03076358 149.49322106 80.39020651 149.56330805 81.75 149.625 C82.44738281 149.66367187 83.14476563 149.70234375 83.86328125 149.7421875 C85.57510818 149.83598624 87.28751682 149.91906174 89 150 C88 153 88 153 85.921875 154.16796875 C82.33621741 155.1890183 78.94781645 155.34161666 75.25 155.3125 C74.54061279 155.30903564 73.83122559 155.30557129 73.1003418 155.30200195 C65.39663412 155.1425906 59.34351068 153.34593819 53 149 C47.7581723 143.10294384 43.54384307 136.66976857 40.25219727 129.50439453 C39.07239696 127.14479392 37.77040985 125.09407444 36.2578125 122.9375 C32.62105793 117.56415215 29.59991545 111.91475922 26.5625 106.1875 C23.18984952 99.87039642 19.82717373 93.59238494 16.0625 87.5 C12.96250057 82.34615479 10.94217779 76.93638029 9.03930664 71.25195312 C7.55050114 66.90434576 7.55050114 66.90434576 4 64 C2.9375 62.30078125 2.9375 62.30078125 2 60.3125 C1.690625 59.66925781 1.38125 59.02601563 1.0625 58.36328125 C0.24063273 56.53523088 -0.54062884 54.68889414 -1.3046875 52.8359375 C-3.66569088 47.29500411 -6.64064157 42.05625036 -9.50390625 36.76367188 C-9.93832031 35.95091797 -10.37273438 35.13816406 -10.8203125 34.30078125 C-11.21492676 33.57028564 -11.60954102 32.83979004 -12.01611328 32.0871582 C-14.82871052 26.12068333 -14.99437371 19.43213764 -14 13 C-11.43720747 6.71281393 -7.68240768 -2.30472231 0 0 Z " fill="#F8915D" transform="translate(40,194)"/>
<path d="M0 0 C2.18819222 2.18819222 1.18686013 7.42885773 1.20532227 10.47680664 C1.21522186 11.47181686 1.22512146 12.46682709 1.23532104 13.49198914 C1.2670404 16.79802021 1.29173455 20.10406567 1.31640625 23.41015625 C1.33696678 25.69559616 1.357963 27.98103218 1.37937927 30.26646423 C1.43469307 36.29494086 1.48406116 42.32345233 1.53222656 48.35198975 C1.58237381 54.49836342 1.63809516 60.64468621 1.69335938 66.79101562 C1.80105472 78.86063367 1.90247426 90.9302958 2 103 C2.66 103 3.32 103 4 103 C5 106 6 109 7 112 C8.35244705 113.94752376 9.75566639 115.86007558 11.1875 117.75 C11.7916272 118.54809082 11.7916272 118.54809082 12.40795898 119.36230469 C15.46671421 123.37398685 18.65478322 127.22590927 22 131 C20.68 131 19.36 131 18 131 C18 130.01 18 129.02 18 128 C17.43152344 128.28617188 16.86304688 128.57234375 16.27734375 128.8671875 C10.21656923 131.47767135 10.21656923 131.47767135 7.08984375 130.25 C-2.04385116 122.92639952 -7.13886767 111.30489084 -9 100 C-9.70220768 92.61568253 -9.56465766 85.18286669 -9.53125 77.7734375 C-9.5339497 75.65068383 -9.53783609 73.52793136 -9.54284668 71.40518188 C-9.54870636 66.98598294 -9.5402848 62.56710996 -9.52148438 58.14794922 C-9.49855656 52.48293718 -9.51192733 46.81867754 -9.53577423 41.15369225 C-9.55020876 36.78368421 -9.54563938 32.41385567 -9.53526306 28.04384232 C-9.53259652 25.95383235 -9.53586295 23.86380605 -9.54518127 21.77381516 C-9.55532342 18.8635786 -9.53988471 15.95457784 -9.51757812 13.04443359 C-9.52567505 12.18313843 -9.53377197 11.32184326 -9.54211426 10.43444824 C-9.45952073 4.62745957 -9.45952073 4.62745957 -7.13562012 1.45425415 C-4.53647844 -0.31563579 -3.08445697 -0.41681851 0 0 Z " fill="#FB935F" transform="translate(137,364)"/>
<path d="M0 0 C0.15516656 3.25849786 0.10017122 5.71492774 -0.98828125 8.8125 C-3.2267552 15.86498936 -3.07317055 24.30669627 -0.04296875 31.12109375 C1.59790526 34.0771252 3.48506101 36.84015524 5.41015625 39.6171875 C7.57304661 42.85886593 9.3817517 46.24531136 11.2109375 49.68359375 C12.64477802 52.34152082 14.10998806 54.97216447 15.6015625 57.59765625 C16.05821289 58.40533447 16.51486328 59.2130127 16.98535156 60.04516602 C17.90187148 61.66421165 18.82300066 63.28065787 19.74902344 64.89428711 C20.3798584 66.01395874 20.3798584 66.01395874 21.0234375 67.15625 C21.40419434 67.82462891 21.78495117 68.49300781 22.17724609 69.18164062 C23 71 23 71 23 74 C23.66 74 24.32 74 25 74 C25.96189997 75.72718516 26.91936508 77.45684058 27.875 79.1875 C28.40867188 80.15042969 28.94234375 81.11335938 29.4921875 82.10546875 C30.8423678 84.69739518 31.97098329 87.26761098 33 90 C29.18688695 88.5019913 27.27516449 86.37351976 25 83 C24.7525 81.6696875 24.7525 81.6696875 24.5 80.3125 C24.2525 79.1678125 24.2525 79.1678125 24 78 C22.68352881 77.30062468 21.34977849 76.63270867 20 76 C19.64345284 74.67268579 19.31542607 73.3376828 19 72 C18.1831056 70.23229408 17.32656265 68.48253234 16.4375 66.75 C15.75494141 65.41195312 15.75494141 65.41195312 15.05859375 64.046875 C14.70925781 63.37140625 14.35992187 62.6959375 14 62 C13.42121094 62.19207031 12.84242187 62.38414062 12.24609375 62.58203125 C8.83478489 63.21683133 6.90666414 62.15217751 3.93359375 60.515625 C1.02626665 58.23675042 -0.05263134 55.67894791 -1.5078125 52.33203125 C-3.92176122 46.94172168 -6.80871174 41.79787348 -9.61083984 36.60131836 C-10.03316895 35.80733643 -10.45549805 35.01335449 -10.890625 34.1953125 C-11.27250977 33.48391113 -11.65439453 32.77250977 -12.04785156 32.03955078 C-14.82839278 26.0834889 -14.99081759 19.40913476 -14 13 C-11.43720747 6.71281393 -7.68240768 -2.30472231 0 0 Z " fill="#FA9462" transform="translate(40,194)"/>
<path d="M0 0 C2.475 0.99 2.475 0.99 5 2 C5 2.66 5 3.32 5 4 C5.99 4 6.98 4 8 4 C8 3.34 8 2.68 8 2 C8.99 1.67 9.98 1.34 11 1 C9.43765949 5.37122931 7.17569455 9.19278448 4.75 13.125 C0.61768368 19.91650793 -3.22437153 26.82654842 -6.98291016 33.83203125 C-19.95080101 57.88222115 -19.95080101 57.88222115 -31 66 C-31.66 66 -32.32 66 -33 66 C-33 66.66 -33 67.32 -33 68 C-34.32 68 -35.64 68 -37 68 C-36.87300982 62.0314615 -34.93300875 59.30865957 -31.17578125 54.796875 C-28.4420482 51.2827765 -26.09788166 47.5914386 -23.75 43.8125 C-23.11396851 42.79651733 -23.11396851 42.79651733 -22.46508789 41.76000977 C-20.09653328 37.92925679 -17.94821258 34.06721002 -16 30 C-15.34 30 -14.68 30 -14 30 C-13.92394531 29.33484375 -13.84789062 28.6696875 -13.76953125 27.984375 C-12.73563869 23.97476123 -10.78228735 20.79650043 -8.6875 17.25 C-5.4303812 11.61453472 -2.4771473 6.03131516 0 0 Z " fill="#EF8B56" transform="translate(189,290)"/>
<path d="M0 0 C3.41944463 2.66075535 5.36330905 5.18768359 7.5 8.9453125 C7.5 9.6053125 7.5 10.2653125 7.5 10.9453125 C8.16 10.9453125 8.82 10.9453125 9.5 10.9453125 C9.2215625 11.96625 9.2215625 11.96625 8.9375 13.0078125 C8.3440968 15.97824906 8.3440968 15.97824906 9 19.0703125 C9.65465239 24.1438685 9.09471592 28.88565241 8.5 33.9453125 C5.38635196 32.38848848 5.12755808 29.82643104 3.9375 26.6328125 C3.50308594 25.48167969 3.06867188 24.33054688 2.62109375 23.14453125 C1.5 19.9453125 1.5 19.9453125 0.95703125 17.58203125 C0.80621094 17.04191406 0.65539062 16.50179687 0.5 15.9453125 C-0.0775 15.6565625 -0.655 15.3678125 -1.25 15.0703125 C-3.5 13.9453125 -3.5 13.9453125 -5.73828125 11.12890625 C-12.94344649 2.28055055 -25.95161693 -1.72024422 -36.5 -5.0546875 C-36.5 -5.3846875 -36.5 -5.7146875 -36.5 -6.0546875 C-23.26535516 -9.21784353 -11.19361581 -7.43131716 0 0 Z " fill="#F1915E" transform="translate(217.5,169.0546875)"/>
<path d="M0 0 C0.92833649 0.00045319 1.85667297 0.00090637 2.81314087 0.00137329 C3.78543137 -0.00198532 4.75772186 -0.00534393 5.75947571 -0.00880432 C8.99099994 -0.01834566 12.22247254 -0.02025901 15.45401001 -0.02133179 C17.68981447 -0.0245421 19.92561872 -0.027906 22.16142273 -0.03141785 C26.85490405 -0.03741706 31.54836692 -0.03925693 36.24185181 -0.03866577 C42.26930734 -0.03856409 48.29664522 -0.05221879 54.32407284 -0.06943798 C58.943604 -0.08053187 63.56310649 -0.08258579 68.18264961 -0.08205605 C70.40549691 -0.08324002 72.62834486 -0.08768496 74.85117912 -0.09538841 C77.95447003 -0.10513596 81.05750246 -0.10233108 84.16079712 -0.09628296 C85.08710938 -0.10190247 86.01342163 -0.10752197 86.96780396 -0.11331177 C87.81052353 -0.10911728 88.6532431 -0.10492279 89.52149963 -0.1006012 C90.25579162 -0.10114596 90.9900836 -0.10169073 91.74662685 -0.10225201 C93.55166626 0.14663696 93.55166626 0.14663696 95.55166626 2.14663696 C62.22166626 2.14663696 28.89166626 2.14663696 -5.44833374 2.14663696 C-5.44833374 35.14663696 -5.44833374 68.14663696 -5.44833374 102.14663696 C-6.43833374 102.64163696 -6.43833374 102.64163696 -7.44833374 103.14663696 C-7.47145453 89.86476287 -7.48924748 76.58289353 -7.50014591 63.30100346 C-7.50537532 57.13438776 -7.51247401 50.96778578 -7.52377319 44.80117798 C-7.53460003 38.85547691 -7.54061014 32.90978907 -7.54321098 26.9640789 C-7.5450656 24.69016753 -7.54868691 22.41625692 -7.5540638 20.14235115 C-7.56127152 16.96936576 -7.5623248 13.7964358 -7.56185913 10.6234436 C-7.56545441 9.67326355 -7.56904968 8.7230835 -7.57275391 7.74411011 C-7.56069454 0.20303329 -7.55253517 0.03835153 0 0 Z " fill="#A85430" transform="translate(304.4483337402344,362.8533630371094)"/>
<path d="M0 0 C0.99 0.33 1.98 0.66 3 1 C2.11255924 7.59241706 2.11255924 7.59241706 1.46655273 9.93164062 C0.93061149 12.30761875 0.92017929 14.40957212 0.97265625 16.84375 C0.98490234 17.76027344 0.99714844 18.67679688 1.00976562 19.62109375 C1.04492326 21.54044008 1.08398624 23.45971885 1.12695312 25.37890625 C1.13791016 26.29542969 1.14886719 27.21195313 1.16015625 28.15625 C1.17699463 28.98962891 1.19383301 29.82300781 1.21118164 30.68164062 C0.97935923 33.22659513 0.20870211 34.77515351 -1 37 C-1 37.66 -1 38.32 -1 39 C-2.32 39 -3.64 39 -5 39 C-5.6509259 37.75264433 -6.29551669 36.50198168 -6.9375 35.25 C-7.29714844 34.55390625 -7.65679688 33.8578125 -8.02734375 33.140625 C-10.77300718 27.09796011 -11.00411941 20.49517798 -10 14 C-8.00905466 9.11570147 -4.76626121 2.38313061 0 0 Z " fill="#F69260" transform="translate(36,193)"/>
<path d="M0 0 C0.66 0 1.32 0 2 0 C3.32984842 3.98954526 3.13072766 7.81088488 3.11352539 11.96948242 C3.11364593 12.90158948 3.11376646 13.83369654 3.11389065 14.79404926 C3.11314361 17.81454661 3.10552482 20.83498243 3.09765625 23.85546875 C3.09618619 25.71895315 3.09516587 27.58243796 3.09460449 29.44592285 C3.08935909 36.35978819 3.07539792 43.2736447 3.0625 50.1875 C3.041875 65.635625 3.02125 81.08375 3 97 C37.32 97.33 71.64 97.66 107 98 C107 98.33 107 98.66 107 99 C93.47462895 99.0231306 79.94926258 99.04091877 66.42387581 99.05181217 C60.14406767 99.05703942 53.86427303 99.06413422 47.58447266 99.07543945 C41.52854148 99.08627391 35.47262331 99.09227803 29.4166832 99.09487724 C27.10173208 99.09673048 24.7867817 99.10034916 22.47183609 99.10573006 C19.23918344 99.11294787 16.00658514 99.11399062 12.77392578 99.11352539 C11.80863953 99.11712067 10.84335327 99.12071594 9.84881592 99.12442017 C8.97099457 99.1230455 8.09317322 99.12167084 7.18875122 99.12025452 C6.42366304 99.12117631 5.65857487 99.1220981 4.8703022 99.12304783 C3 99 3 99 1 98 C0.67 65.66 0.34 33.32 0 0 Z " fill="#AE5B2E" transform="translate(296,72)"/>
<path d="M0 0 C-0.33 0.66 -0.66 1.32 -1 2 C-50.005 2.495 -50.005 2.495 -100 3 C-100.33 3.66 -100.66 4.32 -101 5 C-101.61875 5.28875 -102.2375 5.5775 -102.875 5.875 C-106.63375263 7.86492787 -108.25599889 11.24368992 -110 15 C-111.66666667 15 -113.33333333 15 -115 15 C-118.09926819 15.32198966 -118.09926819 15.32198966 -121 16 C-121.33 16.66 -121.66 17.32 -122 18 C-122.23861993 15.09086761 -122.22917066 13.40897015 -120.78515625 10.83203125 C-116.88500244 6.25974208 -114.0093499 4.07836152 -108.015625 3.15625 C-106.34794219 3.02697226 -104.67268607 3 -103 3 C-103 2.34 -103 1.68 -103 1 C-92.95842452 0.82765525 -82.9167594 0.66123644 -72.875 0.5 C-72.13550739 0.48812275 -71.39601479 0.4762455 -70.63411331 0.46400833 C-47.08826712 0.08768111 -23.54923345 -0.15211171 0 0 Z " fill="#DF7038" transform="translate(396,337)"/>
<path d="M0 0 C0.99 0.495 0.99 0.495 2 1 C2.93542819 3.80628456 3.12368604 5.48529632 3.12025452 8.38493347 C3.12162918 9.28095779 3.12300385 10.17698212 3.12442017 11.10015869 C3.12082489 12.08055115 3.11722961 13.0609436 3.11352539 14.07104492 C3.11367142 15.10536148 3.11381744 16.13967804 3.1139679 17.20533752 C3.1132702 20.63040246 3.10548446 24.05541329 3.09765625 27.48046875 C3.09579156 29.85272695 3.0943679 32.22498554 3.09336853 34.59724426 C3.08954736 40.84602926 3.07972045 47.09479107 3.06866455 53.34356689 C3.05844186 59.7179737 3.05386907 66.09238424 3.04882812 72.46679688 C3.03809786 84.97787448 3.02121797 97.48893601 3 110 C2.01 110.495 2.01 110.495 1 111 C0.67 74.37 0.34 37.74 0 0 Z " fill="#C1663D" transform="translate(270,64)"/>
<path d="M0 0 C1.58040182 0.00373554 3.16080597 0.00657995 4.74121094 0.00857544 C8.87744674 0.01616935 13.0135395 0.03578082 17.14971924 0.0579834 C21.37974107 0.07853378 25.60978627 0.08759672 29.83984375 0.09765625 C38.12246108 0.1190312 46.40496269 0.15311519 54.6875 0.1953125 C54.6875 0.8553125 54.6875 1.5153125 54.6875 2.1953125 C45.61568764 3.12919111 36.62915399 3.32885179 27.515625 3.29296875 C26.09788056 3.29109821 24.68013546 3.28967732 23.26239014 3.28868103 C19.57342672 3.28490586 15.88450417 3.27511978 12.19555664 3.26397705 C8.41423088 3.25365394 4.63289836 3.24916032 0.8515625 3.24414062 C-6.53647674 3.23349178 -13.92448259 3.21647734 -21.3125 3.1953125 C-21.3125 3.8553125 -21.3125 4.5153125 -21.3125 5.1953125 C-22.3025 5.1953125 -23.2925 5.1953125 -24.3125 5.1953125 C-24.3125 4.2053125 -24.3125 3.2153125 -24.3125 2.1953125 C-16.34908958 -0.44393706 -8.28822218 -0.05774353 0 0 Z " fill="#B24E2F" transform="translate(181.3125,5.8046875)"/>
<path d="M0 0 C2 2 2 2 3.6875 5.5625 C8.79878046 15.97366906 16.93442944 25.08094376 28 29 C28 29.66 28 30.32 28 31 C38.89 31.495 38.89 31.495 50 32 C50 32.33 50 32.66 50 33 C44.39 33 38.78 33 33 33 C33 33.66 33 34.32 33 35 C24.11683971 34.82393736 15.85894499 33.35174417 8 29 C6.6328125 26.83203125 6.6328125 26.83203125 6 25 C8.64738916 23.5393715 9.89448334 23 13 23 C13 23.99 13 24.98 13 26 C13.99 25.67 14.98 25.34 16 25 C15.49210938 24.52691406 14.98421875 24.05382812 14.4609375 23.56640625 C9.49107196 18.79198486 5.59120762 13.87652156 2 8 C1.01 8.495 1.01 8.495 0 9 C0 6.03 0 3.06 0 0 Z " fill="#FA925D" transform="translate(142,469)"/>
<path d="M0 0 C0 0.33 0 0.66 0 1 C-6.80383344 2.57152893 -13.80017011 2.3910067 -20.75 2.5625 C-21.55615753 2.58367889 -22.36231506 2.60485779 -23.19290161 2.62667847 C-51.78355677 3.35482405 -80.40252602 3.08726404 -109 3 C-109 3.66 -109 4.32 -109 5 C-111.64 5.33 -114.28 5.66 -117 6 C-115.69074456 3.38148913 -114.70433286 3.31656944 -111.97314453 2.39111328 C-107.34646768 0.94170627 -103.24685037 0.62094217 -98.4296875 0.7421875 C-97.61454681 0.74916656 -96.79940613 0.75614563 -95.95956421 0.76333618 C-94.19111296 0.77946251 -92.42271179 0.80216969 -90.65441895 0.83081055 C-85.80373683 0.90793062 -80.95273585 0.93260821 -76.1015625 0.9609375 C-75.06680786 0.96796692 -74.03205322 0.97499634 -72.96594238 0.98223877 C-59.72432414 1.05120292 -46.4882776 0.76898589 -33.25 0.5 C-26.10967605 0.35656052 -26.10967605 0.35656052 -22.57241821 0.28573608 C-20.43760826 0.242491 -18.30281996 0.19815661 -16.1680603 0.15249634 C-10.77714711 0.04001953 -5.3920929 -0.0223672 0 0 Z " fill="#582315" transform="translate(402,335)"/>
<path d="M0 0 C2.31 0.33 4.62 0.66 7 1 C7 1.66 7 2.32 7 3 C9.64 3.33 12.28 3.66 15 4 C15 3.34 15 2.68 15 2 C59.55 2.495 59.55 2.495 105 3 C105 3.33 105 3.66 105 4 C86.58562772 5.10465465 68.17759109 5.25225614 49.73632812 5.29516602 C45.44184044 5.30637985 41.1478497 5.34105127 36.85354042 5.38033772 C33.50769111 5.40650055 30.16196356 5.41485568 26.81602097 5.41844749 C25.23167795 5.42328487 23.64733931 5.43481647 22.06309891 5.45348549 C6.96424785 5.62091737 6.96424785 5.62091737 0 1 C0 0.67 0 0.34 0 0 Z " fill="#E26E3A" transform="translate(285,192)"/>
<path d="M0 0 C0.33 0.66 0.66 1.32 1 2 C-0.07674702 4.28258633 -1.19546116 6.4356434 -2.4375 8.625 C-2.77587891 9.23601562 -3.11425781 9.84703125 -3.46289062 10.4765625 C-4.30146192 11.988353 -5.14982577 13.49470399 -6 15 C-2.57421051 11.82460444 -2.57421051 11.82460444 0 8 C0.66 8 1.32 8 2 8 C1.70263701 12.75780785 -0.67166924 15.35937626 -3.515625 18.94140625 C-4.91486599 20.88193258 -5.77870599 22.58862741 -6.625 24.8125 C-8.03277494 28.07597826 -8.92495874 29.31368705 -12 31 C-12.66 31 -13.32 31 -14 31 C-15.9451 33.91765 -16.45276317 35.62537285 -17 39 C-17.66 39 -18.32 39 -19 39 C-19.28875 39.598125 -19.5775 40.19625 -19.875 40.8125 C-21 43 -21 43 -23 46 C-23.66 45.67 -24.32 45.34 -25 45 C-20.94712683 37.52030723 -16.82750081 30.07917557 -12.68969727 22.64624023 C-9.84633194 17.53486911 -7.03090776 12.40953348 -4.25390625 7.26171875 C-2.8920937 4.80536526 -1.45739466 2.40066467 0 0 Z " fill="#CB5E2B" transform="translate(186,255)"/>
<path d="M0 0 C1.10923828 0.00064453 2.21847656 0.00128906 3.36132812 0.00195312 C5.09866211 0.02612305 5.09866211 0.02612305 6.87109375 0.05078125 C8.03318359 0.04755859 9.19527344 0.04433594 10.39257812 0.04101562 C19.04167429 0.09636179 19.04167429 0.09636179 21.30859375 2.36328125 C20.04402344 2.35167969 18.77945313 2.34007812 17.4765625 2.328125 C15.81640773 2.31874559 14.15625136 2.30964555 12.49609375 2.30078125 C11.66271484 2.29240234 10.82933594 2.28402344 9.97070312 2.27539062 C9.16826172 2.27216797 8.36582031 2.26894531 7.5390625 2.265625 C6.80067139 2.26038818 6.06228027 2.25515137 5.30151367 2.24975586 C3.09801966 2.28804912 3.09801966 2.28804912 0.30859375 3.36328125 C3.27859375 4.35328125 6.24859375 5.34328125 9.30859375 6.36328125 C9.30859375 6.69328125 9.30859375 7.02328125 9.30859375 7.36328125 C8.27734375 7.46640625 7.24609375 7.56953125 6.18359375 7.67578125 C2.34699936 8.35646735 -0.28463512 9.54105483 -3.69140625 11.36328125 C-4.35140625 11.36328125 -5.01140625 11.36328125 -5.69140625 11.36328125 C-6.02140625 12.35328125 -6.35140625 13.34328125 -6.69140625 14.36328125 C-7.34270422 15.70418884 -8.006539 17.03920456 -8.69140625 18.36328125 C-7.37140625 18.69328125 -6.05140625 19.02328125 -4.69140625 19.36328125 C-5.02140625 20.68328125 -5.35140625 22.00328125 -5.69140625 23.36328125 C-4.37140625 24.02328125 -3.05140625 24.68328125 -1.69140625 25.36328125 C-4.23251564 25.01988809 -6.23602023 24.63976562 -8.44140625 23.30078125 C-11.93226605 17.88994856 -10.61450283 11.5085435 -9.45703125 5.5625 C-7.70743365 0.53687016 -5.06453161 -0.01481677 0 0 Z " fill="#CC5E2A" transform="translate(182.69140625,160.63671875)"/>
<path d="M0 0 C0.99 0.33 1.98 0.66 3 1 C1.7067646 4.45269452 0.19600086 7.49675131 -1.75 10.625 C-4.58033894 15.24511209 -7.17215625 19.96020968 -9.703125 24.75 C-11 27 -11 27 -13 29 C-12.96519531 28.18015625 -12.93039063 27.3603125 -12.89453125 26.515625 C-12.86746094 25.43796875 -12.84039062 24.3603125 -12.8125 23.25 C-12.77769531 22.18265625 -12.74289063 21.1153125 -12.70703125 20.015625 C-13.02917214 16.69972145 -13.77148914 15.40983327 -16 13 C-15.401875 12.79375 -14.80375 12.5875 -14.1875 12.375 C-11.71667553 11.09328953 -11.71667553 11.09328953 -10.5625 8 C-9 5 -9 5 -6.3125 3.625 C-5.549375 3.41875 -4.78625 3.2125 -4 3 C-4 3.99 -4 4.98 -4 6 C-3.67 5.34 -3.34 4.68 -3 4 C-2.01 4 -1.02 4 0 4 C0 2.68 0 1.36 0 0 Z " fill="#ED8F5A" transform="translate(213,262)"/>
<path d="M0 0 C0.33 0 0.66 0 1 0 C1.0465417 9.32802325 1.08197939 18.65600592 1.10362434 27.98412037 C1.11401795 32.31652265 1.1280954 36.64884492 1.15087891 40.98120117 C1.17276625 45.16982995 1.1846018 49.35838223 1.18975449 53.54706383 C1.19342193 55.13727712 1.2005827 56.72748669 1.21146011 58.31766701 C1.28870151 70.08829625 0.67018977 81.02046719 -3.9375 92 C-4.18951172 92.64066406 -4.44152344 93.28132813 -4.70117188 93.94140625 C-6.11965794 97.41687851 -7.28811408 99.28811408 -10 102 C-9.67 99.03 -9.34 96.06 -9 93 C-8.34 93 -7.68 93 -7 93 C-6.67 89.37 -6.34 85.74 -6 82 C-5.34 82 -4.68 82 -4 82 C-4.04125 80.948125 -4.0825 79.89625 -4.125 78.8125 C-4.00852125 75.25989827 -3.52791932 73.15133359 -2 70 C-1.67 70 -1.34 70 -1 70 C-0.67 46.9 -0.34 23.8 0 0 Z " fill="#853C18" transform="translate(462,230)"/>
<path d="M0 0 C-1 3 -1 3 -3 5 C-3.33 5.66 -3.66 6.32 -4 7 C-5.175625 7.433125 -5.175625 7.433125 -6.375 7.875 C-9.40980537 9.17563087 -10.31936924 10.19894873 -12 13 C-12.25265625 13.77085937 -12.5053125 14.54171875 -12.765625 15.3359375 C-14.31222995 18.67386338 -16.29331395 20.40988247 -19.0625 22.8125 C-19.96097656 23.60269531 -20.85945313 24.39289063 -21.78515625 25.20703125 C-24 27 -24 27 -25 27 C-25.68735478 23.04770999 -25.62892498 21.02527875 -23.5 17.5546875 C-9.75688073 0 -9.75688073 0 0 0 Z " fill="#E36F33" transform="translate(36,168)"/>
<path d="M0 0 C2.475 0.99 2.475 0.99 5 2 C5 2.66 5 3.32 5 4 C5.99 4 6.98 4 8 4 C8 3.34 8 2.68 8 2 C8.99 1.67 9.98 1.34 11 1 C9.38456135 5.55659054 7.02039944 9.46785746 4.5 13.5625 C1.03598912 19.16234577 1.03598912 19.16234577 -2 25 C-3.53445094 21.93109813 -2.54984289 19.29905734 -2 16 C-2.66 16 -3.32 16 -4 16 C-5.1233244 12.71643636 -5.24383906 10.61141735 -3.953125 7.375 C-2.69157319 4.88024586 -1.38639349 2.42738791 0 0 Z " fill="#E48752" transform="translate(189,290)"/>
<path d="M0 0 C-5.07640595 2.71950319 -9.08713416 3.12739023 -14.84814453 3.14526367 C-15.52826599 3.14862228 -16.20838745 3.1519809 -16.90911865 3.15544128 C-19.15036864 3.16491736 -21.39154374 3.1668923 -23.6328125 3.16796875 C-25.19172191 3.1711822 -26.75063102 3.17454634 -28.30953979 3.17805481 C-31.57274068 3.18403665 -34.83591511 3.18589553 -38.09912109 3.18530273 C-42.28694554 3.18520083 -46.47460152 3.19888617 -50.66238594 3.21607494 C-53.87935166 3.22717085 -57.09627622 3.22922274 -60.31325912 3.22869301 C-61.85787414 3.22987549 -63.40249013 3.23431223 -64.94708633 3.24202538 C-67.10172776 3.25178262 -69.25599759 3.24896509 -71.41064453 3.24291992 C-73.25119919 3.24505745 -73.25119919 3.24505745 -75.12893677 3.24723816 C-78 3 -78 3 -80 1 C-70.89819678 0.86885906 -61.79638389 0.73841681 -52.69455814 0.60884857 C-48.46750973 0.54865322 -44.24046494 0.48822382 -40.01342773 0.42724609 C-35.92856561 0.36832817 -31.8436949 0.31004259 -27.75881767 0.25218201 C-26.20603556 0.23007894 -24.6532566 0.20775405 -23.10048103 0.18519592 C-15.40000773 0.07346435 -7.70146539 -0.03030582 0 0 Z " fill="#C35A2E" transform="translate(244,525)"/>
<path d="M0 0 C0.33 0 0.66 0 1 0 C1.495 7.92 1.495 7.92 2 16 C1.01 16 0.02 16 -1 16 C-1.2475 16.86625 -1.495 17.7325 -1.75 18.625 C-3 22 -3 22 -5.125 25.125 C-7.36417852 27.98634331 -7.36417852 27.98634331 -7 32 C-9.61630224 33.90919353 -11.92633278 34.97544426 -15 36 C-16.20882096 38.00016466 -16.20882096 38.00016466 -17 40 C-18.32 39.34 -19.64 38.68 -21 38 C-20.7578125 36.16015625 -20.7578125 36.16015625 -20 34 C-18.1796875 32.68359375 -18.1796875 32.68359375 -15.875 31.4375 C-7.90760357 26.40078602 -3.81631801 18.24549125 -1.48828125 9.3046875 C-0.83174811 6.20585107 -0.34232594 3.14939865 0 0 Z " fill="#EC742F" transform="translate(434,296)"/>
<path d="M0 0 C0.99 0.33 1.98 0.66 3 1 C3.33 1.99 3.66 2.98 4 4 C4.66 4.33 5.32 4.66 6 5 C7.15014372 8.45043117 8 11.35282355 8 15 C9.32 15.33 10.64 15.66 12 16 C12.33872513 17.41538717 12.67074624 18.83237963 13 20.25 C13.185625 21.03890625 13.37125 21.8278125 13.5625 22.640625 C14 25 14 25 14 29 C14.99 29.33 15.98 29.66 17 30 C16.67 30.99 16.34 31.98 16 33 C11.55363777 27.6525619 8.22989071 21.81389689 4.75 15.8125 C4.1003125 14.70712891 3.450625 13.60175781 2.78125 12.46289062 C1.86085937 10.88217773 1.86085937 10.88217773 0.921875 9.26953125 C0.36081055 8.30635986 -0.20025391 7.34318848 -0.77832031 6.35083008 C-2 4 -2 4 -2 2 C-1.34 2 -0.68 2 0 2 C0 1.34 0 0.68 0 0 Z " fill="#D76530" transform="translate(36,278)"/>
<path d="M0 0 C0.70125 0.144375 1.4025 0.28875 2.125 0.4375 C5.040053 1.04566172 5.040053 1.04566172 8.1875 1.375 C11 2 11 2 13 5 C13.928125 5.12375 14.85625 5.2475 15.8125 5.375 C19.94095658 6.18450129 21.3775568 7.77814121 24 11 C24.8125 13.3125 24.8125 13.3125 25 15 C27.475 15.495 27.475 15.495 30 16 C30 18.31 30 20.62 30 23 C30.66 23 31.32 23 32 23 C35.62870159 32.41002278 35.62870159 32.41002278 34 37 C33.67 37 33.34 37 33 37 C32.85304688 36.23816406 32.70609375 35.47632813 32.5546875 34.69140625 C31.11826429 28.07890632 29.28696708 23.16224824 25.20703125 17.7421875 C24 16 24 16 24 14 C23.34 14 22.68 14 22 14 C21.505 13.443125 21.01 12.88625 20.5 12.3125 C14.45602183 6.7218202 6.95627804 4.41159772 -1 3 C-0.67 2.01 -0.34 1.02 0 0 Z " fill="#B55932" transform="translate(400,197)"/>
<path d="M0 0 C0.66 0.33 1.32 0.66 2 1 C2 2.98 2 4.96 2 7 C-0.475 6.505 -0.475 6.505 -3 6 C-3.33 8.64 -3.66 11.28 -4 14 C-6.31 14.33 -8.62 14.66 -11 15 C-11.33 16.65 -11.66 18.3 -12 20 C-12.66 20 -13.32 20 -14 20 C-14.33 21.32 -14.66 22.64 -15 24 C-17.31 23.67 -19.62 23.34 -22 23 C-21.01 22.01 -20.02 21.02 -19 20 C-19.66 19.34 -20.32 18.68 -21 18 C-20.33613281 17.72027344 -19.67226562 17.44054687 -18.98828125 17.15234375 C-13.64745533 14.72753082 -10.17479016 12.73907079 -7.08984375 7.7109375 C-5.43058617 5.10608152 -3.23424582 3.11012106 -1 1 C-0.67 0.67 -0.34 0.34 0 0 Z " fill="#EB702F" transform="translate(267,480)"/>
<path d="M0 0 C2.86697492 1.28519565 4.97607712 2.57129254 7 5 C7 5.66 7 6.32 7 7 C7.66 7 8.32 7 9 7 C9 7.66 9 8.32 9 9 C9.66 9 10.32 9 11 9 C14.11450382 13.15267176 14.11450382 13.15267176 13.6875 16.3125 C13.460625 16.869375 13.23375 17.42625 13 18 C10 18 10 18 7.8125 16.125 C6 14 6 14 6 12 C5.34 11.67 4.68 11.34 4 11 C4 10.34 4 9.68 4 9 C3.360625 8.773125 2.72125 8.54625 2.0625 8.3125 C0 7 0 7 -0.8125 4.5 C-1 2 -1 2 0 0 Z " fill="#ED6F2D" transform="translate(274,23)"/>
<path d="M0 0 C1.32 0 2.64 0 4 0 C2.75651745 3.73044765 1.19286425 4.79540326 -2 7 C-2.99 7 -3.98 7 -5 7 C-5.04125 7.61875 -5.0825 8.2375 -5.125 8.875 C-6 11 -6 11 -8.5 12.1875 C-15.24812907 13.75402996 -21.17733967 14.30646687 -28 13 C-28 12.67 -28 12.34 -28 12 C-26.57107422 11.92652344 -26.57107422 11.92652344 -25.11328125 11.8515625 C-23.85902344 11.77679688 -22.60476562 11.70203125 -21.3125 11.625 C-19.45044922 11.52058594 -19.45044922 11.52058594 -17.55078125 11.4140625 C-14.28279659 11.03297738 -11.91012066 10.50095277 -9 9 C-8.67 8.34 -8.34 7.68 -8 7 C-9.53720703 7.05220703 -9.53720703 7.05220703 -11.10546875 7.10546875 C-12.46612936 7.13362035 -13.8268078 7.16091904 -15.1875 7.1875 C-15.86103516 7.21263672 -16.53457031 7.23777344 -17.22851562 7.26367188 C-21.70864748 7.32923478 -24.39440999 6.66743649 -28 4 C-27.34 3.67 -26.68 3.34 -26 3 C-25.25363281 3.30164063 -24.50726563 3.60328125 -23.73828125 3.9140625 C-18.36930066 6.04327306 -11.93625252 6.00450744 -6.4765625 4.13671875 C-3.00293975 2.41905 -3.00293975 2.41905 0 0 Z " fill="#943B1A" transform="translate(137,337)"/>
<path d="M0 0 C0.99 0.66 1.98 1.32 3 2 C2.67 5.96 2.34 9.92 2 14 C1.01 14.33 0.02 14.66 -1 15 C-1 15.66 -1 16.32 -1 17 C-1.99 17 -2.98 17 -4 17 C-4 16.34 -4 15.68 -4 15 C-5.32 15 -6.64 15 -8 15 C-6.78065514 10.96678237 -5.44045073 7.45730521 -3 4 C-2.34 4 -1.68 4 -1 4 C-0.67 2.68 -0.34 1.36 0 0 Z " fill="#FA965C" transform="translate(198,277)"/>
<path d="M0 0 C2.79453906 2.48403472 4.40709412 5.22932846 6.1875 8.5 C6.71730469 9.4590625 7.24710938 10.418125 7.79296875 11.40625 C9 14 9 14 9 17 C9.66 17 10.32 17 11 17 C11.96189997 18.72718516 12.91936508 20.45684058 13.875 22.1875 C14.67550781 23.63189453 14.67550781 23.63189453 15.4921875 25.10546875 C16.8423678 27.69739518 17.97098329 30.26761098 19 33 C15.18688695 31.5019913 13.27516449 29.37351976 11 26 C10.835 25.113125 10.67 24.22625 10.5 23.3125 C10.335 22.549375 10.17 21.78625 10 21 C8.68352881 20.30062468 7.34977849 19.63270867 6 19 C5.63597389 17.67471743 5.30728627 16.33957607 5 15 C4.36352106 13.71378215 3.69541763 12.44283108 3 11.1875 C1.03597682 7.39465813 0.35330198 4.23962376 0 0 Z " fill="#CC8C5F" transform="translate(54,251)"/>
<path d="M0 0 C1.125 3.75 1.125 3.75 0 6 C0.99 5.67 1.98 5.34 3 5 C1.125 9.75 1.125 9.75 0 12 C0.99 12 1.98 12 3 12 C2.67 12.66 2.34 13.32 2 14 C0.9171875 14.3403125 0.9171875 14.3403125 -0.1875 14.6875 C-4.73067939 16.80765038 -7.36943504 20.76294442 -10.28125 24.7578125 C-12.51313815 27.7193564 -13.66418952 28.91129534 -17.3125 29.875 C-18.199375 29.91625 -19.08625 29.9575 -20 30 C-18.71034824 28.62437146 -17.37310707 27.29233607 -16 26 C-15.34 26 -14.68 26 -14 26 C-14 25.34 -14 24.68 -14 24 C-11.625 21.375 -11.625 21.375 -9 19 C-8.34 19 -7.68 19 -7 19 C-6.87496094 18.41863281 -6.74992187 17.83726562 -6.62109375 17.23828125 C-5.99984231 14.99943173 -5.16330421 13.22710328 -4.0625 11.1875 C-2.16795662 7.51553046 -1.000752 4.003008 0 0 Z " fill="#BC5729" transform="translate(269,466)"/>
<path d="M0 0 C0.33 0 0.66 0 1 0 C0.98839844 0.81082031 0.97679687 1.62164062 0.96484375 2.45703125 C0.92114342 7.81968582 0.93449128 13.10100925 1.5 18.4375 C3.28598235 36.06436927 3.28598235 36.06436927 0 43 C-0.33 43 -0.66 43 -1 43 C-1.02464574 37.03686834 -1.042834 31.07376605 -1.05493164 25.1105957 C-1.05997278 23.08031702 -1.06680557 21.05004198 -1.07543945 19.01977539 C-1.08751467 16.10822653 -1.09323034 13.1967255 -1.09765625 10.28515625 C-1.10281754 9.3716188 -1.10797882 8.45808136 -1.11329651 7.51686096 C-1.11349168 5.34424573 -1.06211805 3.17172704 -1 1 C-0.67 0.67 -0.34 0.34 0 0 Z " fill="#F36528" transform="translate(438,248)"/>
<path d="M0 0 C0.66 0.33 1.32 0.66 2 1 C1.67 2.32 1.34 3.64 1 5 C2.2375 5.928125 2.2375 5.928125 3.5 6.875 C4.325 7.57625 5.15 8.2775 6 9 C6 9.66 6 10.32 6 11 C7.32 11.33 8.64 11.66 10 12 C10 12.99 10 13.98 10 15 C10.99 15.33 11.98 15.66 13 16 C4.54153991 16.11701427 4.54153991 16.11701427 1 13.55078125 C-1.5392895 10.73680899 -2.88941416 8.86625575 -3.375 5.0625 C-3.25125 4.381875 -3.1275 3.70125 -3 3 C-2.01 3 -1.02 3 0 3 C0 2.01 0 1.02 0 0 Z " fill="#ED682A" transform="translate(278,177)"/>
<path d="M0 0 C0.66 0 1.32 0 2 0 C3 3 3 3 2 6 C1.34 6 0.68 6 0 6 C-0.33 9.3 -0.66 12.6 -1 16 C-1.969375 16.12375 -2.93875 16.2475 -3.9375 16.375 C-4.948125 16.58125 -5.95875 16.7875 -7 17 C-7.33 17.66 -7.66 18.32 -8 19 C-10.0625 20.125 -10.0625 20.125 -12 21 C-11.58332936 16.13884258 -9.49843869 14.23605579 -6 11 C-5.67 10.34 -5.34 9.68 -5 9 C-4.34 9 -3.68 9 -3 9 C-3.061875 8.2575 -3.12375 7.515 -3.1875 6.75 C-2.96760006 3.52480092 -2.21747812 2.30276574 0 0 Z " fill="#EC6F2E" transform="translate(172,285)"/>
<path d="M0 0 C0.66 0.33 1.32 0.66 2 1 C1.67 1.66 1.34 2.32 1 3 C2.32 3.66 3.64 4.32 5 5 C4.979375 6.093125 4.95875 7.18625 4.9375 8.3125 C4.81455548 11.94384191 4.81455548 11.94384191 6 15 C5.01 15.33 4.02 15.66 3 16 C3.02320313 16.77085937 3.04640625 17.54171875 3.0703125 18.3359375 C3.09738281 19.84027344 3.09738281 19.84027344 3.125 21.375 C3.14820313 22.37273437 3.17140625 23.37046875 3.1953125 24.3984375 C3 27 3 27 1 29 C1.02320313 28.05898437 1.04640625 27.11796875 1.0703125 26.1484375 C1.08835938 24.90320313 1.10640625 23.65796875 1.125 22.375 C1.15980469 20.53035156 1.15980469 20.53035156 1.1953125 18.6484375 C0.90240893 13.17699876 -0.45987617 9.18378271 -4 5 C-3.67 4.34 -3.34 3.68 -3 3 C-2.34 3 -1.68 3 -1 3 C-0.67 2.01 -0.34 1.02 0 0 Z " fill="#AF5126" transform="translate(203,194)"/>
<path d="M0 0 C0.66 0 1.32 0 2 0 C0.58750914 3.72816096 -1.09072378 7.18875132 -3 10.6875 C-3.515625 11.64011719 -4.03125 12.59273438 -4.5625 13.57421875 C-6 16 -6 16 -8 18 C-8 17.01 -8 16.02 -8 15 C-8.66 14.67 -9.32 14.34 -10 14 C-9.01 14 -8.02 14 -7 14 C-7.33 13.34 -7.66 12.68 -8 12 C-9.98 12.66 -11.96 13.32 -14 14 C-12.75023244 10.34683329 -12.32901247 9.21934164 -9 7 C-8.34 6.01 -7.68 5.02 -7 4 C-6.67 4.99 -6.34 5.98 -6 7 C-5.34 7 -4.68 7 -4 7 C-4 6.34 -4 5.68 -4 5 C-3.34 5 -2.68 5 -2 5 C-1.34 3.35 -0.68 1.7 0 0 Z " fill="#F79560" transform="translate(224,245)"/>
<path d="M0 0 C3.48670834 1.1094072 6.77484237 2.26337666 10 4 C10 4.66 10 5.32 10 6 C17.26 6.33 24.52 6.66 32 7 C32 7.33 32 7.66 32 8 C26.39 8 20.78 8 15 8 C15 8.66 15 9.32 15 10 C11.04 9.67 7.08 9.34 3 9 C3.66 8.67 4.32 8.34 5 8 C4.34 6.68 3.68 5.36 3 4 C2.01 4.495 2.01 4.495 1 5 C0.67 3.35 0.34 1.7 0 0 Z " fill="#EA8B5C" transform="translate(160,494)"/>
<path d="M0 0 C1.1171875 3.734375 1.1171875 3.734375 0.0625 6.125 C-0.288125 6.74375 -0.63875 7.3625 -1 8 C-1 8.66 -1 9.32 -1 10 C-1.99 10.495 -1.99 10.495 -3 11 C-3.33 11.99 -3.66 12.98 -4 14 C-3.34 14.33 -2.68 14.66 -2 15 C-2.99 15.66 -3.98 16.32 -5 17 C-5.309375 17.825 -5.61875 18.65 -5.9375 19.5 C-7 22 -7 22 -8.9375 23.3125 C-11 24 -11 24 -14 24 C-14 23.34 -14 22.68 -14 22 C-13.34 22 -12.68 22 -12 22 C-11.77570313 21.35675781 -11.55140625 20.71351563 -11.3203125 20.05078125 C-9.51647249 15.88273674 -7.2046875 12.0801011 -4.875 8.1875 C-4.40707031 7.39923828 -3.93914062 6.61097656 -3.45703125 5.79882812 C-2.30784603 3.86397546 -1.15542997 1.93112772 0 0 Z " fill="#CB6533" transform="translate(153,313)"/>
<path d="M0 0 C0.33 0 0.66 0 1 0 C1.02897435 4.27081914 1.04678996 8.54161309 1.0625 12.8125 C1.07087891 14.02744141 1.07925781 15.24238281 1.08789062 16.49414062 C1.09111328 17.65751953 1.09433594 18.82089844 1.09765625 20.01953125 C1.10289307 21.09307861 1.10812988 22.16662598 1.11352539 23.27270508 C1 26 1 26 0 29 C-3.44444444 32 -3.44444444 32 -6 32 C-4.36681412 19.39564779 -4.36681412 19.39564779 -2.4375 14.875 C-0.41101663 10.10559975 -0.273124 5.12342955 0 0 Z " fill="#E56F2D" transform="translate(206,210)"/>
<path d="M0 0 C0.33 0.99 0.66 1.98 1 3 C2.32 2.67 3.64 2.34 5 2 C4.67 3.32 4.34 4.64 4 6 C8.89839012 5.49760101 12.68694428 3.89249347 17.046875 1.7421875 C17.69140625 1.49726563 18.3359375 1.25234375 19 1 C19.66 1.33 20.32 1.66 21 2 C18.23116804 3.48293582 15.4596027 4.96068862 12.6875 6.4375 C11.90181641 6.85837891 11.11613281 7.27925781 10.30664062 7.71289062 C9.54931641 8.11572266 8.79199219 8.51855469 8.01171875 8.93359375 C7.31522217 9.30540771 6.61872559 9.67722168 5.90112305 10.06030273 C4 11 4 11 1 12 C1 10.68 1 9.36 1 8 C0.34 7.67 -0.32 7.34 -1 7 C-1.33 7.99 -1.66 8.98 -2 10 C-2.66 9.01 -3.32 8.02 -4 7 C-2.68 4.69 -1.36 2.38 0 0 Z " fill="#A3471C" transform="translate(36,182)"/>
<path d="M0 0 C8.6276435 3.15533958 22.85271159 11.70542318 27 20 C25.68 20 24.36 20 23 20 C22.67 19.34 22.34 18.68 22 18 C21.01 17.67 20.02 17.34 19 17 C18.71125 16.195625 18.4225 15.39125 18.125 14.5625 C17.22055781 11.76071559 17.22055781 11.76071559 14.375 10.6875 C13.59125 10.460625 12.8075 10.23375 12 10 C12 9.34 12 8.68 12 8 C10.8553125 7.814375 10.8553125 7.814375 9.6875 7.625 C7 7 7 7 4 5 C1.37468476 4.83286431 1.37468476 4.83286431 -1 5 C-0.67 3.35 -0.34 1.7 0 0 Z " fill="#C37130" transform="translate(420,175)"/>
<path d="M0 0 C0.33 0.99 0.66 1.98 1 3 C0.67 3.66 0.34 4.32 0 5 C-0.15270643 6.41394844 -0.27367453 7.83144348 -0.375 9.25 C-0.78146714 13.37464197 -1.87423608 16.39544378 -4 20 C-4.66 20 -5.32 20 -6 20 C-6.33 19.34 -6.66 18.68 -7 18 C-8.32 19.65 -9.64 21.3 -11 23 C-10.43683419 18.78386679 -9.00199551 16.1253014 -6.625 12.625 C-3.90731974 8.50104577 -1.74248199 4.61245233 0 0 Z " fill="#BE5924" transform="translate(203,224)"/>
<path d="M0 0 C2.97 0.495 2.97 0.495 6 1 C5.625 2.9375 5.625 2.9375 5 5 C4.01 5.495 4.01 5.495 3 6 C1.60536866 9.60963407 0.67176829 13.19331304 0 17 C-0.33 16.34 -0.66 15.68 -1 15 C-1.66 15 -2.32 15 -3 15 C-2.814375 13.88625 -2.62875 12.7725 -2.4375 11.625 C-1.68319343 8.17431139 -1.68319343 8.17431139 -3 6 C-2.06553465 3.96855359 -1.06775224 1.96466413 0 0 Z " fill="#ED702E" transform="translate(190,247)"/>
<path d="M0 0 C0 0.66 0 1.32 0 2 C2.97 2.33 5.94 2.66 9 3 C4.96193808 4.00951548 1.96776373 4.03159784 -2.171875 3.87890625 C-2.8542926 3.85529526 -3.53671021 3.83168427 -4.23980713 3.80735779 C-6.41010058 3.7310504 -8.58000714 3.64688594 -10.75 3.5625 C-12.22524176 3.50924627 -13.70050216 3.45650611 -15.17578125 3.40429688 C-18.78408912 3.2754805 -22.3920921 3.13961806 -26 3 C-26 2.34 -26 1.68 -26 1 C-22.04169483 0.83265991 -18.08335144 0.66624177 -14.125 0.5 C-12.43310547 0.42845703 -12.43310547 0.42845703 -10.70703125 0.35546875 C-9.63066406 0.31035156 -8.55429687 0.26523438 -7.4453125 0.21875 C-5.95281982 0.1559082 -5.95281982 0.1559082 -4.43017578 0.09179688 C-2.95418617 0.0360432 -1.47704224 0 0 0 Z " fill="#C55C35" transform="translate(394,195)"/>
<path d="M0 0 C3.12498063 -0.02895976 6.2499269 -0.04678483 9.375 -0.0625 C10.70917969 -0.07506836 10.70917969 -0.07506836 12.0703125 -0.08789062 C13.34648437 -0.09272461 13.34648437 -0.09272461 14.6484375 -0.09765625 C15.43395996 -0.10289307 16.21948242 -0.10812988 17.02880859 -0.11352539 C19 0 19 0 21 1 C21 1.66 21 2.32 21 3 C12.89834459 5.6009653 7.65042353 4.51977661 0 1 C0 0.67 0 0.34 0 0 Z " fill="#FA8C4F" transform="translate(181,163)"/>
<path d="M0 0 C0.66 0 1.32 0 2 0 C1.67 1.65 1.34 3.3 1 5 C0.34 5 -0.32 5 -1 5 C-1.103125 6.11375 -1.20625 7.2275 -1.3125 8.375 C-1.539375 9.57125 -1.76625 10.7675 -2 12 C-2.99 12.66 -3.98 13.32 -5 14 C-6.62882052 9.88004223 -7.30770013 7.27974589 -6 3 C-5.67 2.34 -5.34 1.68 -5 1 C-3.35 1.33 -1.7 1.66 0 2 C0 1.34 0 0.68 0 0 Z " fill="#FA9358" transform="translate(174,327)"/>
<path d="M0 0 C2.4375 0.375 2.4375 0.375 5 1 C5.33 1.66 5.66 2.32 6 3 C6.804375 3.309375 7.60875 3.61875 8.4375 3.9375 C11 5 11 5 13 8 C12.34 8 11.68 8 11 8 C12.39759905 11.54518884 12.39759905 11.54518884 14 15 C12.68 14.67 11.36 14.34 10 14 C10 13.01 10 12.02 10 11 C9.34 11 8.68 11 8 11 C8.33 9.68 8.66 8.36 9 7 C7.68 6.67 6.36 6.34 5 6 C4.67 4.68 4.34 3.36 4 2 C3.34 2 2.68 2 2 2 C2 2.66 2 3.32 2 4 C0.35 4.33 -1.3 4.66 -3 5 C-2.01 3.35 -1.02 1.7 0 0 Z " fill="#E96D30" transform="translate(262,17)"/>
<path d="M0 0 C3.35522309 1.67761154 5.54357924 3.03911419 7.1875 6.5 C7.455625 7.325 7.72375 8.15 8 9 C8.65604893 12.06565448 8.65604893 12.06565448 10.8125 13.0625 C11.534375 13.371875 12.25625 13.68125 13 14 C15.52075165 15.18623607 17.00449854 16.00449854 19 18 C18.01 18 17.02 18 16 18 C15.67 18.66 15.34 19.32 15 20 C3.77723971 9.16949153 3.77723971 9.16949153 0 3 C0 2.01 0 1.02 0 0 Z " fill="#AE542F" transform="translate(113,492)"/>
<path d="M0 0 C0.33 0 0.66 0 1 0 C1.33 5.28 1.66 10.56 2 16 C1.01 16 0.02 16 -1 16 C-1.04125 16.556875 -1.0825 17.11375 -1.125 17.6875 C-2.46930374 21.24030274 -5.00974189 22.70958953 -8 25 C-7.08810297 22.644266 -6.15691314 20.32090023 -5.046875 18.05078125 C-2.20945875 12.15361388 -0.91831791 6.46447473 0 0 Z " fill="#A34A24" transform="translate(434,296)"/>
<path d="M0 0 C0.33872513 1.41538717 0.67074624 2.83237963 1 4.25 C1.185625 5.03890625 1.37125 5.8278125 1.5625 6.640625 C2 9 2 9 2 13 C2.99 13.33 3.98 13.66 5 14 C4.67 14.99 4.34 15.98 4 17 C-6 5.46153846 -6 5.46153846 -6 0 C-3.50907189 -1.24546405 -2.58919267 -0.7767578 0 0 Z " fill="#D16639" transform="translate(48,294)"/>
<path d="M0 0 C0.99 0.33 1.98 0.66 3 1 C2.01 1.495 2.01 1.495 1 2 C1.66 2.66 2.32 3.32 3 4 C0 6 0 6 -3.1875 5.625 C-4.115625 5.41875 -5.04375 5.2125 -6 5 C-6 5.66 -6 6.32 -6 7 C-8.64 7 -11.28 7 -14 7 C-14 6.01 -14 5.02 -14 4 C-13.07316406 3.79503906 -12.14632812 3.59007812 -11.19140625 3.37890625 C-9.99386719 3.10949219 -8.79632813 2.84007812 -7.5625 2.5625 C-6.36753906 2.29566406 -5.17257813 2.02882813 -3.94140625 1.75390625 C-1.1295314 1.29933252 -1.1295314 1.29933252 0 0 Z " fill="#B85225" transform="translate(246,496)"/>
<path d="M0 0 C1.21744727 3.65234182 0.64202228 4.62953322 -1 8 C-1.66 8.66 -2.32 9.32 -3 10 C-3.99 10 -4.98 10 -6 10 C-6.33 10.99 -6.66 11.98 -7 13 C-8.03517628 10.30854168 -7.96664477 8.81839931 -7.4375 5.9375 C-5.6168335 2.21700758 -3.78198333 1.47990652 0 0 Z " fill="#FA9560" transform="translate(216,256)"/>
<path d="M0 0 C0.33 0 0.66 0 1 0 C1.15516656 3.25849786 1.10017122 5.71492774 0.01171875 8.8125 C-2.60293684 17.0501794 -1.51246276 25.27258194 2 33 C2.35805463 34.32690835 2.69782069 35.65926268 3 37 C2.67 36.34 2.34 35.68 2 35 C-0.02463255 34.34786708 -0.02463255 34.34786708 -2 34 C-3.88871244 22.43163633 -3.88878071 11.13394952 0 0 Z " fill="#4A1908" transform="translate(39,194)"/>
<path d="M0 0 C1.12894876 0.93274109 2.25300876 1.87140122 3.375 2.8125 C4.00148437 3.33457031 4.62796875 3.85664063 5.2734375 4.39453125 C7 6 7 6 9 9 C7.68 9 6.36 9 5 9 C5 8.01 5 7.02 5 6 C0.545 7.485 0.545 7.485 -4 9 C-3.25 4.25 -3.25 4.25 -1 2 C-0.67 1.34 -0.34 0.68 0 0 Z " fill="#F89766" transform="translate(150,486)"/>
<path d="M0 0 C0.99 0 1.98 0 3 0 C3 0.66 3 1.32 3 2 C2.34 2 1.68 2 1 2 C0.73445312 2.53109375 0.46890625 3.0621875 0.1953125 3.609375 C-2.203125 8.40625 -4.6015625 13.203125 -7 18 C-7.33 18 -7.66 18 -8 18 C-8 15.36 -8 12.72 -8 10 C-7.34 10 -6.68 10 -6 10 C-6 8.68 -6 7.36 -6 6 C-5.34 6 -4.68 6 -4 6 C-4.33 5.01 -4.66 4.02 -5 3 C-3.68 3.33 -2.36 3.66 -1 4 C-0.67 2.68 -0.34 1.36 0 0 Z " fill="#904121" transform="translate(143,47)"/>
<path d="M0 0 C5.625 -0.25 5.625 -0.25 9 2 C9 2.66 9 3.32 9 4 C9.99 3.67 10.98 3.34 12 3 C12 2.34 12 1.68 12 1 C15.39914975 2.13304992 16.05254451 3.12518475 18 6 C17.67 6.66 17.34 7.32 17 8 C16.01 8.33 15.02 8.66 14 9 C14 8.34 14 7.68 14 7 C13.17242187 6.83177734 13.17242187 6.83177734 12.328125 6.66015625 C9.59934789 5.88639227 7.27227057 4.73182306 4.75 3.4375 C3.85796875 2.98246094 2.9659375 2.52742188 2.046875 2.05859375 C1.37140625 1.70925781 0.6959375 1.35992187 0 1 C0 0.67 0 0.34 0 0 Z " fill="#D5632E" transform="translate(241,35)"/>
<path d="M0 0 C2 2 2 2 2.375 5.375 C3.08282254 9.48037071 3.91817925 10.37138819 7 13 C8.02323436 14.31558703 9.03126968 15.64377755 10 17 C9.67 17.66 9.34 18.32 9 19 C7.68 18.34 6.36 17.68 5 17 C4.67 17.66 4.34 18.32 4 19 C4 17.02 4 15.04 4 13 C2.68 12.67 1.36 12.34 0 12 C0 8.04 0 4.08 0 0 Z " fill="#F09C6B" transform="translate(140,467)"/>
<path d="M0 0 C3.55560182 3.07074703 4.54803482 6.64410445 6 11 C6.66 11.66 7.32 12.32 8 13 C7.34 14.32 6.68 15.64 6 17 C5.16151196 15.54462432 4.32936066 14.08559627 3.5 12.625 C3.0359375 11.81289063 2.571875 11.00078125 2.09375 10.1640625 C1 8 1 8 1 6 C-0.32 5.34 -1.64 4.68 -3 4 C-3 3.01 -3 2.02 -3 1 C-2.34 1.66 -1.68 2.32 -1 3 C-0.67 2.01 -0.34 1.02 0 0 Z " fill="#B14B2A" transform="translate(261,43)"/>
<path d="M0 0 C2 2 2 2 3.6875 5.5625 C6.12789205 10.57987321 9.46346623 14.71353162 13 19 C13.7734375 19.94166016 13.7734375 19.94166016 14.5625 20.90234375 C15.69972056 22.27540835 16.84837773 23.63899186 18 25 C14.24405842 23.46853407 12.10719981 21.20051146 9.4375 18.1875 C8.67308594 17.33542969 7.90867188 16.48335938 7.12109375 15.60546875 C5.13729729 13.16865064 3.53693965 10.73506514 2 8 C1.01 8.495 1.01 8.495 0 9 C0 6.03 0 3.06 0 0 Z " fill="#5D3418" transform="translate(142,469)"/>
<path d="M0 0 C0.99 0.66 1.98 1.32 3 2 C3 2.99 3 3.98 3 5 C3.66 5 4.32 5 5 5 C6.5625 7.8125 6.5625 7.8125 8 11 C7.67 11.99 7.34 12.98 7 14 C6.67 12.68 6.34 11.36 6 10 C4.35 10 2.7 10 1 10 C0.01 7.03 -0.98 4.06 -2 1 C-1.34 0.67 -0.68 0.34 0 0 Z " fill="#D77E51" transform="translate(227,182)"/>
<path d="M0 0 C-6.52964142 2.17654714 -13.78109942 0.80976978 -20.5 0 C-21.73363281 -0.14308594 -21.73363281 -0.14308594 -22.9921875 -0.2890625 C-24.99526826 -0.52197887 -26.99770659 -0.76040934 -29 -1 C-29 -1.33 -29 -1.66 -29 -2 C-18.64416495 -3.13896663 -10.02382816 -2.73377132 0 0 Z " fill="#B1572B" transform="translate(253,10)"/>
<path d="M0 0 C5.87920328 5.01461456 10.49076695 12.36399945 12 20 C11.34 19.67 10.68 19.34 10 19 C10 18.34 10 17.68 10 17 C9.01 16.67 8.02 16.34 7 16 C3.7540382 11.86877589 2.24441205 8.07337221 1 3 C0.67 2.01 0.34 1.02 0 0 Z " fill="#874E35" transform="translate(42,231)"/>
<path d="M0 0 C0.66 0.33 1.32 0.66 2 1 C1.67 1.99 1.34 2.98 1 4 C1.79299706 6.17038477 1.79299706 6.17038477 3.84765625 6.6328125 C4.57855469 6.79523438 5.30945313 6.95765625 6.0625 7.125 C6.79597656 7.29257812 7.52945313 7.46015625 8.28515625 7.6328125 C8.85105469 7.75398438 9.41695312 7.87515625 10 8 C10.33 9.32 10.66 10.64 11 12 C5.75942078 11.16150733 1.33228399 7.88818932 -3 5 C-2.625 3.0625 -2.625 3.0625 -2 1 C-1.34 0.67 -0.68 0.34 0 0 Z " fill="#BA572F" transform="translate(84,353)"/>
<path d="M0 0 C2.64 0 5.28 0 8 0 C8.33 0.99 8.66 1.98 9 3 C9.66 3 10.32 3 11 3 C13.625 5.25 13.625 5.25 16 8 C16 9.32 16 10.64 16 12 C13.20058226 10.93815189 12.17885814 10.35771628 10.8125 7.625 C8.11310365 3.71552942 4.34818138 2.63170748 0 1 C0 0.67 0 0.34 0 0 Z " fill="#DF713B" transform="translate(187,187)"/>
<path d="M0 0 C1.09651823 3.41139003 0.94215473 6.20655581 0.5625 9.75 C0.40974609 11.22726563 0.40974609 11.22726563 0.25390625 12.734375 C0.12822266 13.85585937 0.12822266 13.85585937 0 15 C1.32 15.33 2.64 15.66 4 16 C3.67 17.32 3.34 18.64 3 20 C4.32 20.66 5.64 21.32 7 22 C4.45889061 21.65660684 2.45538602 21.27648437 0.25 19.9375 C-2.84682187 15.1374261 -2.11979033 9.82421202 -1.0625 4.5 C-0.72073208 2.99712651 -0.37092082 1.49594511 0 0 Z " fill="#A75434" transform="translate(174,164)"/>
<path d="M0 0 C2.31 0.33 4.62 0.66 7 1 C7 1.66 7 2.32 7 3 C20.86 3.495 20.86 3.495 35 4 C35 4.33 35 4.66 35 5 C30.66689672 5.116965 26.3342042 5.1875089 22 5.25 C20.77925781 5.28351563 19.55851562 5.31703125 18.30078125 5.3515625 C11.0135369 5.43034352 6.19522369 4.93396704 0 1 C0 0.67 0 0.34 0 0 Z " fill="#E77243" transform="translate(285,192)"/>
<path d="M0 0 C0.66 0 1.32 0 2 0 C2.09152344 0.6084375 2.18304688 1.216875 2.27734375 1.84375 C3.3728864 5.11261239 5.64695182 5.95472382 8.50390625 7.65625 C8.99761719 8.0996875 9.49132812 8.543125 10 9 C10 13 10 13 9 15 C7.67621942 13.44704556 6.36638151 11.88219918 5.0625 10.3125 C4.33160156 9.44238281 3.60070312 8.57226562 2.84765625 7.67578125 C0.9894837 4.98477026 0.36465468 3.21243412 0 0 Z " fill="#964A2F" transform="translate(70,341)"/>
<path d="M0 0 C1.32 0 2.64 0 4 0 C4 0.99 4 1.98 4 3 C2.576875 3.6496875 2.576875 3.6496875 1.125 4.3125 C-2.20041937 5.79302201 -2.20041937 5.79302201 -4 9 C-4.33 8.67 -4.66 8.34 -5 8 C-5.66 8.99 -6.32 9.98 -7 11 C-6.25 4.375 -6.25 4.375 -4 1 C-2.68 1.33 -1.36 1.66 0 2 C0 1.34 0 0.68 0 0 Z " fill="#CF5728" transform="translate(278,351)"/>
<path d="M0 0 C1.53445094 3.06890187 0.54984289 5.70094266 0 9 C-0.66 9 -1.32 9 -2 9 C-2.2475 9.78375 -2.495 10.5675 -2.75 11.375 C-4.15389099 14.32317108 -5.00675737 14.9024777 -8 16 C-6.42986223 10.03347646 -3.24970218 5.17090975 0 0 Z " fill="#E1773E" transform="translate(188,254)"/>
<path d="M0 0 C-0.495 0.61875 -0.99 1.2375 -1.5 1.875 C-3.19222773 3.83880904 -3.19222773 3.83880904 -3 6 C-6.3 6 -9.6 6 -13 6 C-9.41603189 2.00249711 -5.50726745 -1.83575582 0 0 Z " fill="#C16434" transform="translate(145,14)"/>
<path d="M0 0 C1.2065625 0.0309375 1.2065625 0.0309375 2.4375 0.0625 C-1.45345157 3.46708262 -5.67615765 6.30427968 -10.5625 8.0625 C-12.5625 7.0625 -12.5625 7.0625 -13.5625 5.0625 C-10.27629848 2.87169899 -7.34369262 2.11283128 -3.5625 1.0625 C-2.5625 0.0625 -2.5625 0.0625 0 0 Z " fill="#C55C36" transform="translate(151.5625,357.9375)"/>
<path d="M0 0 C0.99 0.33 1.98 0.66 3 1 C2.39644592 4.85025879 1.23227397 7.86101159 -0.5625 11.3125 C-1.01753906 12.19550781 -1.47257812 13.07851563 -1.94140625 13.98828125 C-2.29074219 14.65214844 -2.64007813 15.31601562 -3 16 C-4.53445094 12.93109813 -3.54984289 10.29905734 -3 7 C-2.34 7 -1.68 7 -1 7 C-0.67 4.69 -0.34 2.38 0 0 Z " fill="#9E4823" transform="translate(456,316)"/>
<path d="M0 0 C1.98 1.65 3.96 3.3 6 5 C5.01 5.495 5.01 5.495 4 6 C4.33 7.65 4.66 9.3 5 11 C4.01 11 3.02 11 2 11 C-0.99481865 6.41968912 -0.99481865 6.41968912 -2 4 C-1.25 1.5625 -1.25 1.5625 0 0 Z " fill="#CC5D34" transform="translate(25,259)"/>
<path d="M0 0 C0 1.98 0 3.96 0 6 C-0.99 6.33 -1.98 6.66 -3 7 C-4.42857119 8.40105576 -4.42857119 8.40105576 -5.6875 10.0625 C-6.450625 11.031875 -7.21375 12.00125 -8 13 C-8.33 12.01 -8.66 11.02 -9 10 C-7.85546875 7.7734375 -7.85546875 7.7734375 -6.1875 5.375 C-5.64480469 4.57835937 -5.10210938 3.78171875 -4.54296875 2.9609375 C-2.21314741 0 -2.21314741 0 0 0 Z " fill="#F98850" transform="translate(37,193)"/>
<path d="M0 0 C0.66 0.33 1.32 0.66 2 1 C1.67 1.66 1.34 2.32 1 3 C1.66 3 2.32 3 3 3 C2.8125 4.875 2.8125 4.875 2 7 C-0.89111788 8.52164099 -2.71823412 9 -6 9 C-6.33 9.66 -6.66 10.32 -7 11 C-6.6875 9.0625 -6.6875 9.0625 -6 7 C-5.01 6.67 -4.02 6.34 -3 6 C-1.84478498 3.52869082 -1.84478498 3.52869082 -1 1 C-0.67 0.67 -0.34 0.34 0 0 Z " fill="#F1763A" transform="translate(281,344)"/>
<path d="M0 0 C2.65183353 1.32591677 3.25136473 2.86562451 4.6875 5.4375 C5.14511719 6.24058594 5.60273437 7.04367187 6.07421875 7.87109375 C6.37972656 8.57363281 6.68523437 9.27617187 7 10 C6.67 10.66 6.34 11.32 6 12 C5.67 11.01 5.34 10.02 5 9 C4.21625 8.9175 3.4325 8.835 2.625 8.75 C0 8 0 8 -1.4375 6.1875 C-2 4 -2 4 -1.125 1.75 C-0.75375 1.1725 -0.3825 0.595 0 0 Z " fill="#D48D57" transform="translate(84,303)"/>
<path d="M0 0 C0.33 0.66 0.66 1.32 1 2 C1.99 2 2.98 2 4 2 C4.99 4.64 5.98 7.28 7 10 C5.35 10 3.7 10 2 10 C1.01 7.03 0.02 4.06 -1 1 C-0.67 0.67 -0.34 0.34 0 0 Z " fill="#EF6A2E" transform="translate(449,205)"/>
<path d="M0 0 C1.43343546 2.86687092 0.56303792 4.50563683 -0.25 7.5625 C-0.62898438 9.04943359 -0.62898438 9.04943359 -1.015625 10.56640625 C-1.34046875 11.36949219 -1.6653125 12.17257813 -2 13 C-2.99 13.33 -3.98 13.66 -5 14 C-5.33 14.66 -5.66 15.32 -6 16 C-5.52412884 9.97229862 -2.80277043 5.23321711 0 0 Z " fill="#A84827" transform="translate(112,41)"/>
<path d="M0 0 C0.70125 0.144375 1.4025 0.28875 2.125 0.4375 C5.01595244 1.05860679 5.01595244 1.05860679 8.0625 1.25 C11.82061997 2.20951999 12.89142884 3.83714326 15 7 C11.34056353 6.31092878 7.77558041 5.43178734 4.1875 4.4375 C3.21167969 4.16808594 2.23585938 3.89867187 1.23046875 3.62109375 C0.12638672 3.31365234 0.12638672 3.31365234 -1 3 C-0.67 2.01 -0.34 1.02 0 0 Z " fill="#A63E20" transform="translate(400,197)"/>
<path d="M0 0 C7.65217391 2.43478261 7.65217391 2.43478261 10 4 C10.75 6.125 10.75 6.125 11 8 C7.31245243 7.50168276 5.39509338 6.89932357 3 4 C2.01 4.495 2.01 4.495 1 5 C0.67 3.35 0.34 1.7 0 0 Z " fill="#B06642" transform="translate(160,494)"/>
<path d="M0 0 C1.9375 0.8125 1.9375 0.8125 4 2 C4.33 2.99 4.66 3.98 5 5 C5.66 5.33 6.32 5.66 7 6 C8.79401325 9.49360475 9.11665191 11.28574649 8 15 C6.66121428 12.8782637 5.32884524 10.75294812 4 8.625 C3.6184375 8.02171875 3.236875 7.4184375 2.84375 6.796875 C0 2.2265625 0 2.2265625 0 0 Z " fill="#A25737" transform="translate(14,245)"/>
<path d="M0 0 C2.88437779 1.29299694 4.87219421 2.65941363 7 5 C6.67 5.66 6.34 6.32 6 7 C5.01 7 4.02 7 3 7 C2.67 7.33 2.34 7.66 2 8 C1.01 7.34 0.02 6.68 -1 6 C-0.67 4.02 -0.34 2.04 0 0 Z " fill="#BB5825" transform="translate(274,23)"/>
<path d="M0 0 C3.8063457 0.67170806 7.35206816 1.72746564 11 3 C11 3.99 11 4.98 11 6 C12.32 6.66 13.64 7.32 15 8 C10.96522658 7.41841104 8.14758799 6.13243941 4.6875 4 C3.80449219 3.46375 2.92148438 2.9275 2.01171875 2.375 C1.34785156 1.92125 0.68398437 1.4675 0 1 C0 0.67 0 0.34 0 0 Z " fill="#B34D28" transform="translate(133,515)"/>
<path d="M0 0 C1.37494222 2.26461071 2.07991957 3.45654694 1.6875 6.125 C1 8 1 8 0 10 C-0.66 10 -1.32 10 -2 10 C-2.33 10.99 -2.66 11.98 -3 13 C-3.66 12.01 -4.32 11.02 -5 10 C-3.625 6.3125 -3.625 6.3125 -2 3 C-1.34 3 -0.68 3 0 3 C0 2.01 0 1.02 0 0 Z " fill="#ED7031" transform="translate(156,310)"/>
<path d="M0 0 C3.96 1.98 3.96 1.98 8 4 C8 5.32 8 6.64 8 8 C5.07120629 7.37240135 2.63904371 6.41377341 0 5 C0 3.35 0 1.7 0 0 Z " fill="#E77236" transform="translate(441,192)"/>
<path d="M0 0 C0.66 0.33 1.32 0.66 2 1 C1.06862408 2.29608947 0.1296434 3.58671632 -0.8125 4.875 C-1.33457031 5.59429687 -1.85664063 6.31359375 -2.39453125 7.0546875 C-4 9 -4 9 -7 11 C-9.1875 10.625 -9.1875 10.625 -11 10 C-7.25 7 -7.25 7 -5 7 C-5 6.34 -5 5.68 -5 5 C-3.37446717 3.29319053 -1.70884005 1.62339805 0 0 Z " fill="#964E28" transform="translate(260,485)"/>
<path d="M0 0 C1.09898702 3.29696105 0.87124444 4.40494903 0.0625 7.6875 C-0.13214844 8.49574219 -0.32679688 9.30398438 -0.52734375 10.13671875 C-0.68332031 10.75160156 -0.83929688 11.36648438 -1 12 C-2.65 12 -4.3 12 -6 12 C-4.43358249 7.69235185 -2.31663844 3.93828536 0 0 Z " fill="#C46132" transform="translate(160,301)"/>
<path d="M0 0 C2.49552403 2.27597646 4.06622986 4.60721178 5.6875 7.5625 C6.12449219 8.34753906 6.56148437 9.13257813 7.01171875 9.94140625 C8 12 8 12 8 14 C4.13995876 12.53584643 2.73327733 10.7141657 1 7 C0.3125 3.1875 0.3125 3.1875 0 0 Z " fill="#9C6644" transform="translate(54,251)"/>
<path d="M0 0 C0.66 0 1.32 0 2 0 C2 1.65 2 3.3 2 5 C1.34 5 0.68 5 0 5 C-0.28875 5.598125 -0.5775 6.19625 -0.875 6.8125 C-2 9 -2 9 -4 12 C-4.66 11.67 -5.32 11.34 -6 11 C-4.02 7.37 -2.04 3.74 0 0 Z " fill="#C46C37" transform="translate(167,289)"/>
<path d="M0 0 C0.33 0.66 0.66 1.32 1 2 C0.37915039 3.69580078 0.37915039 3.69580078 -0.65234375 5.6953125 C-1.01650391 6.41074219 -1.38066406 7.12617188 -1.75585938 7.86328125 C-2.14580078 8.60964844 -2.53574219 9.35601562 -2.9375 10.125 C-3.32357422 10.87910156 -3.70964844 11.63320313 -4.10742188 12.41015625 C-5.06452132 14.27709097 -6.03136106 16.13902628 -7 18 C-7.66 17.67 -8.32 17.34 -9 17 C-7.68990468 14.35295091 -6.37705236 11.7073344 -5.0625 9.0625 C-4.50272461 7.93038086 -4.50272461 7.93038086 -3.93164062 6.77539062 C-3.39506836 5.69741211 -3.39506836 5.69741211 -2.84765625 4.59765625 C-2.51773682 3.93258057 -2.18781738 3.26750488 -1.84790039 2.58227539 C-1 1 -1 1 0 0 Z " fill="#9C4626" transform="translate(177,271)"/>
<path d="M0 0 C3.82176372 3.82176372 3.0558885 9.80697511 3.0625 14.9375 C3.04660111 16.6250537 3.02746229 18.31259486 3 20 C2.67 20 2.34 20 2 20 C1.67 17.03 1.34 14.06 1 11 C0.67 11 0.34 11 0 11 C-0.19491452 9.54263913 -0.38069358 8.08405407 -0.5625 6.625 C-0.66691406 5.81289062 -0.77132812 5.00078125 -0.87890625 4.1640625 C-1 2 -1 2 0 0 Z " fill="#935136" transform="translate(235,197)"/>
<path d="M0 0 C5.77990862 0.45630858 11.28773424 2.64378194 16 6 C17.296875 8.671875 17.296875 8.671875 18 11 C16 11 16 11 14.375 9.625 C13 8 13 8 13 6 C11.7315625 5.5978125 11.7315625 5.5978125 10.4375 5.1875 C6.86145933 3.9521405 3.46139092 2.523012 0 1 C0 0.67 0 0.34 0 0 Z " fill="#592214" transform="translate(181,186)"/>
<path d="M0 0 C0.66 1.32 1.32 2.64 2 4 C-2.62 4.33 -7.24 4.66 -12 5 C-9.65085508 2.65085508 -8.04320554 2.26859643 -4.875 1.375 C-3.96492187 1.11460938 -3.05484375 0.85421875 -2.1171875 0.5859375 C-1.41851562 0.39257812 -0.71984375 0.19921875 0 0 Z " fill="#AC5B2C" transform="translate(156,8)"/>
<path d="M0 0 C0.66 0.33 1.32 0.66 2 1 C2 2.98 2 4.96 2 7 C0.35 6.67 -1.3 6.34 -3 6 C-3.33 7.32 -3.66 8.64 -4 10 C-4.66 10 -5.32 10 -6 10 C-4.6302836 6.00499382 -2.74277578 3.19990508 0 0 Z " fill="#EF6E29" transform="translate(267,480)"/>
<path d="M0 0 C0.66 0.33 1.32 0.66 2 1 C1.74379316 2.6065676 1.46944129 4.2102483 1.1875 5.8125 C1.03667969 6.70582031 0.88585937 7.59914063 0.73046875 8.51953125 C0 11 0 11 -3 14 C-3 11.03 -3 8.06 -3 5 C-2.34 5 -1.68 5 -1 5 C-0.67 3.35 -0.34 1.7 0 0 Z " fill="#F2692A" transform="translate(276,355)"/>
<path d="M0 0 C1.98 0.495 1.98 0.495 4 1 C2.84414715 4.91211733 1.64465038 7.8745041 -1 11 C-1.0270043 9.54176788 -1.04639787 8.08339325 -1.0625 6.625 C-1.07410156 5.81289063 -1.08570313 5.00078125 -1.09765625 4.1640625 C-1 2 -1 2 0 0 Z " fill="#CF7D54" transform="translate(201,280)"/>
<path d="M0 0 C3.40686225 3.40686225 4.76723573 8.38733985 5.19140625 13.1484375 C5.18810331 14.76687972 5.10309523 16.38484134 5 18 C4.67 18 4.34 18 4 18 C4 16.35 4 14.7 4 13 C3.34 13 2.68 13 2 13 C1.66127487 11.58461283 1.32925376 10.16762037 1 8.75 C0.814375 7.96109375 0.62875 7.1721875 0.4375 6.359375 C0 4 0 4 0 0 Z " fill="#963B1E" transform="translate(457,211)"/>
<path d="M0 0 C0.66 0 1.32 0 2 0 C2.33951619 1.56116819 2.67132544 3.12401338 3 4.6875 C3.185625 5.55761719 3.37125 6.42773438 3.5625 7.32421875 C3.98972047 9.93712964 4.07616201 12.35813038 4 15 C3.34 15 2.68 15 2 15 C1.34 10.05 0.68 5.1 0 0 Z " fill="#C86531" transform="translate(294,57)"/>
<path d="M0 0 C0.66 0.33 1.32 0.66 2 1 C1.505 1.433125 1.01 1.86625 0.5 2.3125 C-1.33218192 3.99740483 -1.33218192 3.99740483 -1 7 C-1.33 7.66 -1.66 8.32 -2 9 C-3.65 8.67 -5.3 8.34 -7 8 C-7 8.66 -7 9.32 -7 10 C-7.66 9.67 -8.32 9.34 -9 9 C-6 6 -3 3 0 0 Z " fill="#B25729" transform="translate(130,20)"/>
<path d="M0 0 C0.99 0.495 0.99 0.495 2 1 C2 1.66 2 2.32 2 3 C2.66 3 3.32 3 4 3 C7.62870159 12.41002278 7.62870159 12.41002278 6 17 C5.67 17 5.34 17 5 17 C4.80664062 16.19175781 4.61328125 15.38351563 4.4140625 14.55078125 C4.15367187 13.48214844 3.89328125 12.41351563 3.625 11.3125 C3.36976563 10.25675781 3.11453125 9.20101562 2.8515625 8.11328125 C2.08094511 5.29593234 1.14501457 2.68331675 0 0 Z " fill="#893623" transform="translate(428,217)"/>
<path d="M0 0 C0.99 0 1.98 0 3 0 C3 0.66 3 1.32 3 2 C3.804375 2.2475 4.60875 2.495 5.4375 2.75 C8 4 8 4 8.8125 6.125 C8.874375 6.74375 8.93625 7.3625 9 8 C8.01 8.495 8.01 8.495 7 9 C5.62437146 7.71034824 4.29233607 6.37310707 3 5 C3 4.34 3 3.68 3 3 C2.34 3 1.68 3 1 3 C0.67 2.01 0.34 1.02 0 0 Z " fill="#EC6C2C" transform="translate(429,183)"/>
<path d="M0 0 C0.99 0 1.98 0 3 0 C2.40716379 3.39192363 1.23256811 5.2107757 -1.0625 7.75 C-1.61035156 8.36359375 -2.15820312 8.9771875 -2.72265625 9.609375 C-3.14417969 10.06828125 -3.56570313 10.5271875 -4 11 C-4 7.80389448 -3.45328458 6.58282374 -2 3.8125 C-1.62875 3.09707031 -1.2575 2.38164062 -0.875 1.64453125 C-0.441875 0.83048828 -0.441875 0.83048828 0 0 Z " fill="#F06F2C" transform="translate(433,312)"/>
<path d="M0 0 C0.33 1.32 0.66 2.64 1 4 C1.99 4 2.98 4 4 4 C4 4.66 4 5.32 4 6 C1.36 6.99 -1.28 7.98 -4 9 C-2.94124926 5.59687262 -1.99097846 2.98646769 0 0 Z " fill="#E3753B" transform="translate(196,240)"/>
<path d="M0 0 C0.33 0 0.66 0 1 0 C1.19818283 6.70518586 1.30844801 12.65176798 -1 19 C-1.99 19 -2.98 19 -4 19 C-3.525625 17.906875 -3.05125 16.81375 -2.5625 15.6875 C-0.61291255 10.56523487 -0.28970046 5.43438112 0 0 Z " fill="#D87549" transform="translate(206,210)"/>
<path d="M0 0 C-0.495 0.474375 -0.99 0.94875 -1.5 1.4375 C-3.11542197 2.75923698 -3.11542197 2.75923698 -3 4 C-5.64 4.33 -8.28 4.66 -11 5 C-7.58994413 0.25027933 -7.58994413 0.25027933 -4.9375 -0.875 C-3 -1 -3 -1 0 0 Z " fill="#EF7436" transform="translate(139,20)"/>
<path d="M0 0 C2.49415272 0.99766109 3.78740335 1.68616685 5.3125 3.9375 C6 6 6 6 5 9 C4.34 9 3.68 9 3 9 C2.896875 8.360625 2.79375 7.72125 2.6875 7.0625 C2.460625 6.381875 2.23375 5.70125 2 5 C1.01 4.67 0.02 4.34 -1 4 C-0.67 2.68 -0.34 1.36 0 0 Z " fill="#B55929" transform="translate(451,202)"/>
<path d="M0 0 C0 4.66993394 -2.17546569 7.40513814 -5 11 C-5.66 10.67 -6.32 10.34 -7 10 C-6.67 8.68 -6.34 7.36 -6 6 C-5.34 6 -4.68 6 -4 6 C-4 5.34 -4 4.68 -4 4 C-3.34 4 -2.68 4 -2 4 C-1.34 2.68 -0.68 1.36 0 0 Z " fill="#F07234" transform="translate(119,35)"/>
<path d="M0 0 C0.33 0 0.66 0 1 0 C1.42670076 3.48472283 1.64789556 6.0186845 -0.3359375 9.0234375 C-1.83609212 10.74896747 -3.36656784 12.40059768 -5 14 C-5 10.35167014 -3.86745089 9.08847648 -2 6 C-1.28856912 4.01548229 -0.61008664 2.01797888 0 0 Z " fill="#8F2C15" transform="translate(432,307)"/>
<path d="M0 0 C0.99 0 1.98 0 3 0 C2.52060632 4.71403788 2.03165952 8.66579301 0 13 C-0.33 13 -0.66 13 -1 13 C-0.67 8.71 -0.34 4.42 0 0 Z " fill="#A46547" transform="translate(234,219)"/>
<path d="M0 0 C3.74633486 1.24877829 5.41041797 3.06047445 8 6 C8 6.99 8 7.98 8 9 C4.20620942 7.50958227 2.31656242 5.30937488 0 2 C0 1.34 0 0.68 0 0 Z " fill="#9D4C2D" transform="translate(275,183)"/>
<path d="M0 0 C2.36574234 3.5486135 2.10865265 4.5764525 1.625 8.6875 C1.51414062 9.68136719 1.40328125 10.67523438 1.2890625 11.69921875 C1.19367188 12.45847656 1.09828125 13.21773437 1 14 C0.34 14 -0.32 14 -1 14 C-1.02705729 12.22925083 -1.04642195 10.45838289 -1.0625 8.6875 C-1.07410156 7.70136719 -1.08570312 6.71523437 -1.09765625 5.69921875 C-1 3 -1 3 0 0 Z " fill="#994C2B" transform="translate(105,58)"/>
<path d="M0 0 C0.33 0.66 0.66 1.32 1 2 C0.22265625 3.7265625 0.22265625 3.7265625 -0.9375 5.625 C-1.618125 6.73875 -2.29875 7.8525 -3 9 C-3.66 9 -4.32 9 -5 9 C-5 9.66 -5 10.32 -5 11 C-5.66 11 -6.32 11 -7 11 C-5.125 6.25 -5.125 6.25 -4 4 C-3.34 4 -2.68 4 -2 4 C-1.34 2.68 -0.68 1.36 0 0 Z " fill="#A7592F" transform="translate(120,30)"/>
<path d="M0 0 C0 3 0 3 -2.375 5.6875 C-5 8 -5 8 -7 8 C-7 7.01 -7 6.02 -7 5 C-6.34 5 -5.68 5 -5 5 C-4.67 3.68 -4.34 2.36 -4 1 C-2.68 0.67 -1.36 0.34 0 0 Z " fill="#A16545" transform="translate(166,346)"/>
<path d="M0 0 C0.66 0.33 1.32 0.66 2 1 C1 3 1 3 -0.9375 3.875 C-3.15206079 4.82823451 -3.15206079 4.82823451 -4 7 C-5.24508396 9.49016793 -6.46716796 9.98686718 -9 11 C-7.59928507 5.70841026 -4.14512755 3.22521956 0 0 Z " fill="#894A25" transform="translate(283,341)"/>
<path d="M0 0 C-1.75 4.875 -1.75 4.875 -4 6 C-3.67 6.66 -3.34 7.32 -3 8 C-4.32 8.33 -5.64 8.66 -7 9 C-7 5 -7 5 -4.625 2.25 C-2 0 -2 0 0 0 Z " fill="#ED6F29" transform="translate(145,335)"/>
<path d="M0 0 C1.28635286 3.85905859 0.4211258 5.46716465 -1.03125 9.125 C-2.25518193 11.49390051 -3.67710568 12.71840314 -6 14 C-5.31113213 10.61108678 -4.01283514 7.81988387 -2.4375 4.75 C-1.75494141 3.41195312 -1.75494141 3.41195312 -1.05859375 2.046875 C-0.70925781 1.37140625 -0.35992187 0.6959375 0 0 Z " fill="#702D17" transform="translate(203,224)"/>
<path d="M0 0 C0.66 0.33 1.32 0.66 2 1 C1.34 1.66 0.68 2.32 0 3 C-0.64767793 5.57061311 -0.64767793 5.57061311 -1 8 C-1.99 7.67 -2.98 7.34 -4 7 C-4.33 7.66 -4.66 8.32 -5 9 C-5.66 8.34 -6.32 7.68 -7 7 C-4.69 4.69 -2.38 2.38 0 0 Z " fill="#B85C2F" transform="translate(24,173)"/>
<path d="M0 0 C-0.33 0.99 -0.66 1.98 -1 3 C-1.66 3 -2.32 3 -3 3 C-3 3.66 -3 4.32 -3 5 C-4.32 5 -5.64 5 -7 5 C-7 3.68 -7 2.36 -7 1 C-4 0 -4 0 0 0 Z " fill="#D27750" transform="translate(159,353)"/>
<path d="M0 0 C-1.26457276 3.79371827 -2.69944493 4.79962995 -6 7 C-9.3125 7.75 -9.3125 7.75 -12 8 C-9.94870558 5.86088258 -7.84304969 4.04262537 -5.4375 2.3125 C-4.53837891 1.65701172 -4.53837891 1.65701172 -3.62109375 0.98828125 C-2 0 -2 0 0 0 Z " fill="#E47E42" transform="translate(141,337)"/>
<path d="M0 0 C0.99 0.33 1.98 0.66 3 1 C1.6302836 4.99500618 -0.25722422 7.80009492 -3 11 C-3 8.69 -3 6.38 -3 4 C-2.01 4 -1.02 4 0 4 C0 2.68 0 1.36 0 0 Z " fill="#B4774C" transform="translate(213,262)"/>
<path d="M0 0 C2.475 0.99 2.475 0.99 5 2 C5 2.66 5 3.32 5 4 C4.34 4 3.68 4 3 4 C3 6.31 3 8.62 3 11 C2.34 11 1.68 11 1 11 C0.67 7.37 0.34 3.74 0 0 Z " fill="#E16934" transform="translate(433,223)"/>
<path d="M0 0 C0.99 0 1.98 0 3 0 C3 0.66 3 1.32 3 2 C2.34 2 1.68 2 1 2 C0.731875 2.598125 0.46375 3.19625 0.1875 3.8125 C-0.98493467 5.97224808 -2.19369282 7.35790256 -4 9 C-4.33 7.02 -4.66 5.04 -5 3 C-3.68 3.33 -2.36 3.66 -1 4 C-0.67 2.68 -0.34 1.36 0 0 Z " fill="#88391B" transform="translate(143,47)"/>
<path d="M0 0 C5.625 -0.25 5.625 -0.25 9 2 C9 2.66 9 3.32 9 4 C10.32 4.66 11.64 5.32 13 6 C9.51038791 6 7.88519705 5.09620626 4.8125 3.5 C3.91144531 3.0359375 3.01039063 2.571875 2.08203125 2.09375 C1.39496094 1.7328125 0.70789063 1.371875 0 1 C0 0.67 0 0.34 0 0 Z " fill="#88321C" transform="translate(241,35)"/>
<path d="M0 0 C0.99 0.66 1.98 1.32 3 2 C2.67 3.65 2.34 5.3 2 7 C1.01 7.33 0.02 7.66 -1 8 C-1.66 6.35 -2.32 4.7 -3 3 C-2.01 2.01 -1.02 1.02 0 0 Z " fill="#CC5828" transform="translate(56,310)"/>
<path d="M0 0 C0.33 0 0.66 0 1 0 C1.1799928 5.21979128 0.97094808 9.07262981 -1 14 C-1.33 14 -1.66 14 -2 14 C-2.1799928 8.78020872 -1.97094808 4.92737019 0 0 Z " fill="#903E1F" transform="translate(461,303)"/>
<path d="M0 0 C0.66 0 1.32 0 2 0 C0.55049545 3.7910119 -1.15172566 7.3874638 -3 11 C-3.33 11 -3.66 11 -4 11 C-4 9.02 -4 7.04 -4 5 C-3.34 5 -2.68 5 -2 5 C-1.34 3.35 -0.68 1.7 0 0 Z " fill="#A66948" transform="translate(224,245)"/>
<path d="M0 0 C0 0.66 0 1.32 0 2 C-2.64 2.66 -5.28 3.32 -8 4 C-8 2.68 -8 1.36 -8 0 C-4.94736336 -0.98120464 -3.05263664 -0.98120464 0 0 Z " fill="#FD9458" transform="translate(202,164)"/>
<path d="M0 0 C1.8871875 0.0309375 1.8871875 0.0309375 3.8125 0.0625 C3.8125 0.3925 3.8125 0.7225 3.8125 1.0625 C2.1625 1.0625 0.5125 1.0625 -1.1875 1.0625 C-1.1875 1.7225 -1.1875 2.3825 -1.1875 3.0625 C-2.5075 3.0625 -3.8275 3.0625 -5.1875 3.0625 C-5.1875 3.7225 -5.1875 4.3825 -5.1875 5.0625 C-5.8475 5.0625 -6.5075 5.0625 -7.1875 5.0625 C-7.1875 3.7425 -7.1875 2.4225 -7.1875 1.0625 C-4.43671116 0.14557039 -2.82801087 -0.04636083 0 0 Z " fill="#DB7542" transform="translate(182.1875,161.9375)"/>
<path d="M0 0 C9.41002278 -0.18451025 9.41002278 -0.18451025 14 1 C11.56661348 2.53508028 10.32875493 3.03088304 7.421875 2.7578125 C6.09929687 2.44457031 6.09929687 2.44457031 4.75 2.125 C3.85796875 1.92132812 2.9659375 1.71765625 2.046875 1.5078125 C1.37140625 1.34023438 0.6959375 1.17265625 0 1 C0 0.67 0 0.34 0 0 Z " fill="#EB6D34" transform="translate(152,523)"/>
<path d="M0 0 C0.91078492 2.55019778 1.17843392 3.59554978 0.0625 6.125 C-0.288125 6.74375 -0.63875 7.3625 -1 8 C-1 8.66 -1 9.32 -1 10 C-2.32 10 -3.64 10 -5 10 C-3.66511872 6.40608886 -2.03977277 3.24509304 0 0 Z " fill="#B65D2F" transform="translate(153,313)"/>
<path d="M0 0 C1.06351675 3.38391693 1.21442982 4.5804634 -0.4375 7.8125 C-0.953125 8.534375 -1.46875 9.25625 -2 10 C-2.33 9.34 -2.66 8.68 -3 8 C-2.0625 5.875 -2.0625 5.875 -1 4 C-1.99 3.67 -2.98 3.34 -4 3 C-4 2.34 -4 1.68 -4 1 C-2 0 -2 0 0 0 Z " fill="#C76B3E" transform="translate(185,312)"/>
<path d="M0 0 C2.475 0.99 2.475 0.99 5 2 C5 2.99 5 3.98 5 5 C5.66 5 6.32 5 7 5 C6.67 5.66 6.34 6.32 6 7 C3.9375 7.625 3.9375 7.625 2 8 C1.855625 7.236875 1.71125 6.47375 1.5625 5.6875 C1.0367406 2.91827092 1.0367406 2.91827092 0 0 Z " fill="#DC8C5E" transform="translate(58,263)"/>
<path d="M0 0 C0.66 0 1.32 0 2 0 C2 0.66 2 1.32 2 2 C2.66 2 3.32 2 4 2 C5.6875 4.375 5.6875 4.375 7 7 C6.67 7.66 6.34 8.32 6 9 C0.42857143 3.85714286 0.42857143 3.85714286 0 0 Z " fill="#904223" transform="translate(281,30)"/>
<path d="M0 0 C0.66 0 1.32 0 2 0 C0.60667426 3.36720387 -0.9789286 4.9859524 -4 7 C-4.66 6.67 -5.32 6.34 -6 6 C-5.34 4.68 -4.68 3.36 -4 2 C-2.68 2 -1.36 2 0 2 C0 1.34 0 0.68 0 0 Z " fill="#A34221" transform="translate(272,511)"/>
<path d="M0 0 C0.99 0 1.98 0 3 0 C3.33 1.98 3.66 3.96 4 6 C4.99 6.33 5.98 6.66 7 7 C6.67 7.99 6.34 8.98 6 10 C3.25722422 6.80009492 1.3697164 3.99500618 0 0 Z " fill="#A04F2C" transform="translate(46,301)"/>
<path d="M0 0 C0.66 0.33 1.32 0.66 2 1 C1.01 2.485 1.01 2.485 0 4 C-0.185625 5.2684375 -0.185625 5.2684375 -0.375 6.5625 C-1 9 -1 9 -3.0625 10.3125 C-4.0215625 10.6528125 -4.0215625 10.6528125 -5 11 C-3.77472971 6.94718288 -2.30119506 3.55639236 0 0 Z " fill="#FB8B57" transform="translate(195,281)"/>
<path d="M0 0 C1.32 0.66 2.64 1.32 4 2 C2.92598892 4.91517292 2.22189824 6.77810176 0 9 C0 8.01 0 7.02 0 6 C-0.66 5.67 -1.32 5.34 -2 5 C-1.01 5 -0.02 5 1 5 C0.67 3.35 0.34 1.7 0 0 Z M-2 2 C0 3 0 3 0 3 Z " fill="#C77A4F" transform="translate(216,254)"/>
<path d="M0 0 C0.66 0 1.32 0 2 0 C2 1.98 2 3.96 2 6 C0.35 6.66 -1.3 7.32 -3 8 C-2.690625 7.236875 -2.38125 6.47375 -2.0625 5.6875 C-1.32106407 3.81210323 -0.63771783 1.91315348 0 0 Z " fill="#944C22" transform="translate(190,247)"/>
<path d="M0 0 C1.98 0.66 3.96 1.32 6 2 C6 3.32 6 4.64 6 6 C4.125 5.8125 4.125 5.8125 2 5 C0.75 2.4375 0.75 2.4375 0 0 Z " fill="#B1502D" transform="translate(424,211)"/>
<path d="M0 0 C2.72869407 0.03287583 5.2966618 0.56397771 8 1 C8 1.99 8 2.98 8 4 C7.01 4 6.02 4 5 4 C5 3.34 5 2.68 5 2 C2.69 2 0.38 2 -2 2 C-1.34 1.34 -0.68 0.68 0 0 Z " fill="#A75A31" transform="translate(50,163)"/>
<path d="M0 0 C4.10958767 1.45044271 7.43258745 3.51110752 11 6 C10.67 6.66 10.34 7.32 10 8 C5.43041625 6.02677065 2.86536704 4.07763771 0 0 Z " fill="#822D17" transform="translate(263,15)"/>
<path d="M0 0 C0.556875 0.28875 1.11375 0.5775 1.6875 0.875 C4.08494645 2.0413253 6.51596939 3.0339881 9 4 C8.01 4.33 7.02 4.66 6 5 C5.67 5.66 5.34 6.32 5 7 C3.29115995 5.37660195 1.62553283 3.70680947 0 2 C0 1.34 0 0.68 0 0 Z " fill="#BE5F32" transform="translate(123,505)"/>
<path d="M0 0 C1.12894876 0.93274109 2.25300876 1.87140122 3.375 2.8125 C4.00148438 3.33457031 4.62796875 3.85664063 5.2734375 4.39453125 C7 6 7 6 9 9 C7.65686601 8.35330586 6.32608822 7.68096422 5 7 C4.0925 6.54625 3.185 6.0925 2.25 5.625 C1.5075 5.08875 0.765 4.5525 0 4 C0 2.68 0 1.36 0 0 Z " fill="#8B573C" transform="translate(100,331)"/>
<path d="M0 0 C0.2475 0.53625 0.495 1.0725 0.75 1.625 C2.29696975 4.56424252 4.13014369 7.25754408 6 10 C5.67 10.66 5.34 11.32 5 12 C3.96674014 10.57140593 2.94872366 9.13177617 1.9375 7.6875 C1.36902344 6.88699219 0.80054688 6.08648437 0.21484375 5.26171875 C-0.18605469 4.51535156 -0.58695313 3.76898438 -1 3 C-0.67 2.01 -0.34 1.02 0 0 Z " fill="#D2744B" transform="translate(61,322)"/>
<path d="M0 0 C0.33 0.66 0.66 1.32 1 2 C-0.65 4.31 -2.3 6.62 -4 9 C-4.99 8.67 -5.98 8.34 -7 8 C-4.69 5.36 -2.38 2.72 0 0 Z " fill="#C5663C" transform="translate(430,316)"/>
<path d="M0 0 C1.32 0 2.64 0 4 0 C2.75023244 3.65316671 2.32901247 4.78065836 -1 7 C-0.67 4.69 -0.34 2.38 0 0 Z " fill="#9C4824" transform="translate(284,496)"/>
<path d="M0 0 C0.66 0.33 1.32 0.66 2 1 C-1.625 5.875 -1.625 5.875 -5 7 C-5.66 6.34 -6.32 5.68 -7 5 C-4.69 3.35 -2.38 1.7 0 0 Z " fill="#9F4C25" transform="translate(421,325)"/>
<path d="M0 0 C0.99 0 1.98 0 3 0 C3 0.66 3 1.32 3 2 C2.34 2 1.68 2 1 2 C0.67 3.65 0.34 5.3 0 7 C-0.99 6.34 -1.98 5.68 -3 5 C-1.6875 2.5 -1.6875 2.5 0 0 Z " fill="#E46C2F" transform="translate(149,328)"/>
<path d="M0 0 C0.99 0 1.98 0 3 0 C5.09230769 4.43076923 5.09230769 4.43076923 4.625 7.3125 C4.41875 7.869375 4.2125 8.42625 4 9 C0 2.25 0 2.25 0 0 Z " fill="#A55933" transform="translate(37,285)"/>
<path d="M0 0 C3 1 3 1 4.25 2.875 C5 5 5 5 4 8 C4 7.34 4 6.68 4 6 C2.68 5.67 1.36 5.34 0 5 C0 3.35 0 1.7 0 0 Z " fill="#865C34" transform="translate(37,223)"/>
<path d="M0 0 C3.91402949 1.26941497 5.79072873 2.51167694 8 6 C6.68 6 5.36 6 4 6 C3.67 5.34 3.34 4.68 3 4 C2.01 3.67 1.02 3.34 0 3 C0 2.01 0 1.02 0 0 Z " fill="#CD5A34" transform="translate(439,189)"/>
<path d="M0 0 C1.32 0.66 2.64 1.32 4 2 C3.01 2.99 2.02 3.98 1 5 C-0.32 4.34 -1.64 3.68 -3 3 C-2.01 2.01 -1.02 1.02 0 0 Z " fill="#E67438" transform="translate(249,496)"/>
<path d="M0 0 C0.99 0.33 1.98 0.66 3 1 C2.44855089 5.08072342 2.08669204 5.91330796 -1 9 C-0.67 6.03 -0.34 3.06 0 0 Z " fill="#9A3C1A" transform="translate(289,487)"/>
<path d="M0 0 C1.051875 -0.02126953 1.051875 -0.02126953 2.125 -0.04296875 C4 0.1875 4 0.1875 6 2.1875 C4.18738027 2.1875 2.37452416 2.17146216 0.5625 2.125 C-1.80763007 2.18280805 -3.73747091 2.51712101 -6 3.1875 C-6 2.5275 -6 1.8675 -6 1.1875 C-3.77109005 0.07304502 -2.46944894 0.02269714 0 0 Z " fill="#E56D35" transform="translate(134,362.8125)"/>
<path d="M0 0 C-5.14285714 4.42857143 -5.14285714 4.42857143 -9 5 C-7.35234966 0.05704899 -4.76872479 -0.25776891 0 0 Z " fill="#AB462D" transform="translate(154,358)"/>
<path d="M0 0 C1.98 0.99 1.98 0.99 4 2 C4 6 4 6 3 8 C1.5 6.8125 1.5 6.8125 0 5 C-0.1875 2.3125 -0.1875 2.3125 0 0 Z " fill="#B4532D" transform="translate(76,348)"/>
<path d="M0 0 C2.31 0.33 4.62 0.66 7 1 C4.60490662 3.89932357 2.68754757 4.50168276 -1 5 C-0.67 3.35 -0.34 1.7 0 0 Z " fill="#F99562" transform="translate(160,344)"/>
<path d="M0 0 C1.32 0.33 2.64 0.66 4 1 C4 1.66 4 2.32 4 3 C1.5 4.625 1.5 4.625 -1 6 C-1.33 5.01 -1.66 4.02 -2 3 C-1.34 2.01 -0.68 1.02 0 0 Z " fill="#C8612B" transform="translate(436,344)"/>
<path d="M0 0 C0.99 0.33 1.98 0.66 3 1 C3 1.66 3 2.32 3 3 C0.36 3.66 -2.28 4.32 -5 5 C-3.35 3.35 -1.7 1.7 0 0 Z " fill="#F87127" transform="translate(285,343)"/>
<path d="M0 0 C1.32 0 2.64 0 4 0 C3.39816251 2.02045442 2.72693904 4.02111039 2 6 C1.01 6.495 1.01 6.495 0 7 C0 4.69 0 2.38 0 0 Z " fill="#B96E48" transform="translate(191,299)"/>
<path d="M0 0 C2.31 0.33 4.62 0.66 7 1 C7 1.66 7 2.32 7 3 C7.99 3 8.98 3 10 3 C10 3.66 10 4.32 10 5 C8.51800098 4.55090939 7.03944764 4.09043436 5.5625 3.625 C4.73878906 3.36976563 3.91507812 3.11453125 3.06640625 2.8515625 C1 2 1 2 0 0 Z " fill="#DC6F40" transform="translate(285,192)"/>
<path d="M0 0 C1.32 0.33 2.64 0.66 4 1 C3.67 2.32 3.34 3.64 3 5 C4.32 5.66 5.64 6.32 7 7 C5.35 6.67 3.7 6.34 2 6 C1.34 4.02 0.68 2.04 0 0 Z " fill="#9E4723" transform="translate(174,179)"/>
<path d="M0 0 C-0.33 0.66 -0.66 1.32 -1 2 C-3.64860427 2.59355614 -6.29197322 2.74209269 -9 3 C-7.01532024 -0.96935951 -3.9567243 -1.41311582 0 0 Z " fill="#7C3E17" transform="translate(294,338)"/>
<path d="M0 0 C3.0916909 2.52956528 3.90931332 5.22454612 5 9 C4.01 8.67 3.02 8.34 2 8 C2 6.68 2 5.36 2 4 C1.34 4 0.68 4 0 4 C0 2.68 0 1.36 0 0 Z " fill="#B7894E" transform="translate(91,315)"/>
<path d="M0 0 C2 3 2 3 2 5 C0.625 6.5 0.625 6.5 -1 8 C-1.66 8.66 -2.32 9.32 -3 10 C-2.49287967 6.28111761 -1.88391785 3.26545761 0 0 Z " fill="#F17D44" transform="translate(195,276)"/>
<path d="M0 0 C0.66 0 1.32 0 2 0 C2.99 2.31 3.98 4.62 5 7 C4.34 7.66 3.68 8.32 3 9 C0 3.375 0 3.375 0 0 Z " fill="#A14B2D" transform="translate(7,230)"/>
<path d="M0 0 C0 1.65 0 3.3 0 5 C-2.31 4.34 -4.62 3.68 -7 3 C-1 0 -1 0 0 0 Z " fill="#B64B25" transform="translate(102,363)"/>
<path d="M0 0 C0.75 1.75 0.75 1.75 1 4 C-0.9375 6.25 -0.9375 6.25 -3 8 C-3 6.02 -3 4.04 -3 2 C-2.01 2.33 -1.02 2.66 0 3 C0 2.01 0 1.02 0 0 Z " fill="#F19763" transform="translate(172,333)"/>
<path d="M0 0 C0.33 0.66 0.66 1.32 1 2 C-0.98 4.97 -0.98 4.97 -3 8 C-4.33332095 5.3333581 -3.67102033 3.83319697 -3 1 C-2.01 0.67 -1.02 0.34 0 0 Z " fill="#87472A" transform="translate(176,331)"/>
<path d="M0 0 C0.66 0 1.32 0 2 0 C4 3 4 3 3.625 5.1875 C3.41875 5.785625 3.2125 6.38375 3 7 C1.5 5.75 1.5 5.75 0 4 C0 2.68 0 1.36 0 0 Z " fill="#F9A06F" transform="translate(87,312)"/>
<path d="M0 0 C0.99 0 1.98 0 3 0 C3.33 2.31 3.66 4.62 4 7 C3.34 7 2.68 7 2 7 C1.34 4.69 0.68 2.38 0 0 Z " fill="#E86F3A" transform="translate(32,273)"/>
<path d="M0 0 C2.475 0.99 2.475 0.99 5 2 C4.67 3.32 4.34 4.64 4 6 C3.01 5.67 2.02 5.34 1 5 C0.67 3.35 0.34 1.7 0 0 Z " fill="#F68550" transform="translate(43,253)"/>
<path d="M0 0 C0.99 0.66 1.98 1.32 3 2 C3 2.99 3 3.98 3 5 C3.66 5 4.32 5 5 5 C4.67 5.66 4.34 6.32 4 7 C3.01 6.34 2.02 5.68 1 5 C1 4.34 1 3.68 1 3 C0.01 3 -0.98 3 -2 3 C-1 1 -1 1 0 0 Z " fill="#BE6E49" transform="translate(227,182)"/>
<path d="M0 0 C0 0.66 0 1.32 0 2 C-0.99 2 -1.98 2 -3 2 C-3.66 3.32 -4.32 4.64 -5 6 C-5.99 5.34 -6.98 4.68 -8 4 C-2.25 0 -2.25 0 0 0 Z " fill="#B86634" transform="translate(34,168)"/>
</svg>
